<svg xmlns="http://www.w3.org/2000/svg" width="61.948" height="104.504" viewBox="0 0 61.948 104.504"><g transform="translate(-1229 -851)"><g transform="translate(1229 851)"><path d="M54.137,0H7.811A7.816,7.816,0,0,0,0,7.811V96.693A7.816,7.816,0,0,0,7.811,104.5H54.137a7.816,7.816,0,0,0,7.811-7.811V7.811A7.816,7.816,0,0,0,54.137,0ZM7.811,2.693H54.137a5.123,5.123,0,0,1,5.117,5.117v7.272H2.693V7.811A5.123,5.123,0,0,1,7.811,2.693ZM59.255,82.418H2.693V17.776H59.255ZM54.137,101.81H7.811a5.123,5.123,0,0,1-5.117-5.117V85.111H59.255V96.693a5.123,5.123,0,0,1-5.117,5.117Z" transform="translate(0 0)" fill="#be1622"/><rect width="11.851" height="3.232" transform="translate(25.049 7.811)" fill="#be1622"/><ellipse cx="3.232" cy="3.232" rx="3.232" ry="3.232" transform="translate(27.203 89.151)" fill="#be1622"/></g></g></svg>