<svg xmlns="http://www.w3.org/2000/svg" width="96" height="96" viewBox="0 0 96 96"><g transform="translate(-512 -1405)"><circle cx="48" cy="48" r="48" transform="translate(512 1405)" fill="#be1622"/><path d="M41.88,30.463l-9.43-4.042A2.021,2.021,0,0,0,30.092,27l-4.176,5.1A31.21,31.21,0,0,1,11,17.186l5.1-4.176a2.016,2.016,0,0,0,.581-2.358l-4.042-9.43A2.034,2.034,0,0,0,10.323.051L1.566,2.072A2.021,2.021,0,0,0,0,4.042,39.064,39.064,0,0,0,39.069,43.11a2.021,2.021,0,0,0,1.97-1.566l2.021-8.757a2.045,2.045,0,0,0-1.18-2.324Z" transform="translate(538 1431)" fill="#fff"/></g></svg>