<svg xmlns="http://www.w3.org/2000/svg" width="224.132" height="180.229" viewBox="0 0 224.132 180.229"><g transform="translate(-9079 583)"><path d="M-41.274-5.877c0-.666-.371-.965-1.118-.965h-1.233v3.248h.554V-4.913h.319l.933,1.319h.648l-.935-1.33A.86.86,0,0,0-41.274-5.877Zm-1.8.457v-.917h.51c.363,0,.731.086.731.46,0,.431-.4.457-.85.457Z" transform="translate(9342.898 -400.803)" fill="#fff"/><path d="M-41.91-7.514a2.792,2.792,0,0,0-2.783,2.783A2.79,2.79,0,0,0-41.91-1.942a2.784,2.784,0,0,0,2.791-2.789A2.785,2.785,0,0,0-41.91-7.514Zm0,5.018a2.132,2.132,0,0,1-2.177-2.235A2.128,2.128,0,0,1-41.91-6.955a2.132,2.132,0,0,1,2.187,2.224A2.136,2.136,0,0,1-41.91-2.5Z" transform="translate(9342.233 -401.219)" fill="#fff"/><path d="M-153.463-25.874c-2.76-2.762-6.7-3.995-11.043-3.995h-15.1V11.958h15.1c4.345,0,8.282-1.239,11.043-4,4.7-4.693,4.228-10.8,4.228-17.086S-148.767-21.178-153.463-25.874Zm-5.7,27.959A7.3,7.3,0,0,1-165.27,4.67h-6.169V-22.591h6.169A7.29,7.29,0,0,1-159.162-20c1.524,1.886,1.761,4.528,1.761,10.869S-157.637.2-159.162,2.084Z" transform="translate(9258.606 -415.077)" fill="#fff"/><rect width="8.159" height="41.806" transform="translate(9116.922 -444.925)" fill="#fff"/><path d="M-116.135-17.059c0-6.988-5.046-12.8-13.558-12.8h-16.382V11.949h8.159V-4.73h5.874l8.161,16.68h9.45L-123.765-6.08A11.249,11.249,0,0,0-116.135-17.059Zm-14.091,5.519h-7.69V-22.578h7.69c3.58,0,5.932,2.294,5.932,5.519S-126.646-11.54-130.226-11.54Z" transform="translate(9279.39 -415.068)" fill="#fff"/><path d="M-123.291,11.95h27.535V4.662h-19.375V-5.492h16.5v-7.28h-16.5v-9.806h19.375v-7.278h-27.535Z" transform="translate(9293.514 -415.069)" fill="#fff"/><path d="M-88.029-22.795c3.935,0,6.159,2.349,7.043,5.927h8.279c-1.408-8.509-7.338-13.205-15.387-13.205A15.284,15.284,0,0,0-99.36-25.49a11.789,11.789,0,0,0-3.407,6.277,56.857,56.857,0,0,0-.7,10.391,56.881,56.881,0,0,0,.7,10.391A12.045,12.045,0,0,0-99.36,7.853a15.3,15.3,0,0,0,11.266,4.579c7.989,0,13.98-4.7,15.387-13.212h-8.279c-.884,3.582-3.109,5.93-7.043,5.93A6.487,6.487,0,0,1-93.26,2.982c-1.7-1.824-2.049-3.7-2.049-11.8s.353-9.977,2.049-11.8A6.465,6.465,0,0,1-88.029-22.795Z" transform="translate(9305.801 -415.203)" fill="#fff"/><path d="M-83.1-22.578h10.922V11.95h8.161V-22.578H-53.1v-7.278h-30Z" transform="translate(9318.426 -415.069)" fill="#fff"/><path d="M-36.855-29.857l-8.4,27.239-8.4-27.239H-62.1L-48.3,11.95H-42.2l13.851-41.806Z" transform="translate(9331.444 -415.069)" fill="#fff"/><path d="M7.58-115.1H-23.643C-2.855-93.5,1.4-66.389-13.752-42.822c-17.14,24.727-65.116,47.209-122.812,53.8H9.142c5.419,0,8.7-3.494,8.7-8.138V-107.6C17.845-110.316,15.924-115.1,7.58-115.1Z" transform="translate(9285.286 -467.905)" fill="#fff"/><path d="M-171.232,10.941h19.809C-67.554,6.817-26.4-21.71-24.2-50.647c.073-1.034.115-2.073.1-3.109-.6-28.78-38.035-61.662-113.4-61.27h-33.28c-5.325,0-8.752,3.9-8.752,9.18V2.162C-179.544,5.469-176.993,10.941-171.232,10.941Z" transform="translate(9258.645 -467.864)" fill="#0083c7"/></g></svg>