<svg xmlns="http://www.w3.org/2000/svg" width="473.531" height="95.533" viewBox="0 0 473.531 95.533"><g transform="translate(-305.908 -32.78)"><path d="M307.744,65.668a48.427,48.427,0,0,0,11.59,11.59l15.826-27.417L307.744,65.668" transform="translate(6.72 42.495)" fill="#fff"/><path d="M319.334,35.828a48.036,48.036,0,0,0-11.59,11.59l27.417,15.823L319.334,35.828" transform="translate(6.72 5.511)" fill="#fff"/><path d="M335.534,37.713a47.476,47.476,0,0,0-15.83-4.236v31.66l15.83-27.42" transform="translate(38.283 -0.693)" fill="#fff"/><path d="M312.981,78.445a47.639,47.639,0,0,0,15.834,4.243V51.028L312.981,78.445" transform="translate(20.54 45.625)" fill="#fff"/><path d="M349.172,47.418a48.076,48.076,0,0,0-11.587-11.59L321.759,63.241l27.413-15.823" transform="translate(43.706 5.511)" fill="#fff"/><path d="M337.585,77.259a48.128,48.128,0,0,0,11.583-11.59l-27.41-15.826,15.826,27.417" transform="translate(43.706 42.495)" fill="#fff"/><path d="M354.6,56.895a47.89,47.89,0,0,0-4.232-15.83l-27.424,15.83H354.6" transform="translate(46.833 19.332)" fill="#fff"/><path d="M305.393,47.787a47.545,47.545,0,0,0,4.232,15.823l27.428-15.823h-31.66" transform="translate(0.515 37.072)" fill="#fff"/><path d="M309.625,41.065a47.686,47.686,0,0,0-4.232,15.83h31.66l-27.428-15.83" transform="translate(0.515 19.332)" fill="#fff"/><path d="M322.947,47.787,350.371,63.61A47.453,47.453,0,0,0,354.6,47.787h-31.66" transform="translate(46.831 37.072)" fill="#fff"/><path d="M328.815,33.48a47.518,47.518,0,0,0-15.834,4.236l15.834,27.42V33.476" transform="translate(20.54 -0.696)" fill="#fff"/><path d="M319.7,82.688a47.6,47.6,0,0,0,15.83-4.243L319.7,51.028v31.66" transform="translate(38.272 45.625)" fill="#fff"/><path d="M328.471,39.235a5.768,5.768,0,1,1,1.689,4.1A5.772,5.772,0,0,1,328.471,39.235Zm10.622,0a4.854,4.854,0,1,0-4.84,4.865h0a4.673,4.673,0,0,0,4.84-4.494A3.151,3.151,0,0,0,339.093,39.235Zm-6.157,3.275h-.848v-6.6h2.842c1.721,0,2.307.64,2.307,1.82,0,1.274-.9,1.75-2.042,1.841l1.961,2.933h-.946l-1.863-2.933h-1.4Zm1.164-3.7c.924,0,2.213.153,2.213-1.092,0-.921-.764-1.048-1.565-1.048h-1.82v2.136Z" transform="translate(61.42 -0.691)" fill="#fff"/><path d="M367.493,52.565a8.8,8.8,0,0,0-9.331-7.02c-10.862,0-12.875,9.942-12.875,17.693,0,9.1,2.755,17.668,12.329,17.668a8.927,8.927,0,0,0,9.684-7h6.4c-.6,7.38-8.046,12.242-16.634,12.242-12.992,0-18.163-10.6-18.163-22.908,0-10.793,4.731-23.356,19.491-22.926,8.475.244,14.822,4.392,15.488,12.256h-6.39" transform="translate(88.956 17.316)" fill="#fff"/><path d="M355.828,61.3c-.422,5.371,1.776,10.917,7.682,10.917a6.445,6.445,0,0,0,7.369-5.357,6.774,6.774,0,0,0,.076-.859h6.092c-.917,6.951-6.274,10.415-13.592,10.415-9.826,0-13.716-6.94-13.716-15.961,0-8.959,4.505-16.463,14.192-16.463,9.149.178,13.465,5.975,13.465,14.44V61.3h-21.58m15.492-4c.116-5.131-2.205-9.1-7.809-9.1a8.126,8.126,0,0,0-7.733,8.494,5.591,5.591,0,0,0,.051.6Z" transform="translate(117.55 27.051)" fill="#fff"/><path d="M364.658,49.412h.12a10.611,10.611,0,0,1,9.265-5.422c2.136,0,11.594.549,11.594,10.364V75.493h-5.815V56.235c0-5.058-2.125-7.8-7.016-7.8a7.926,7.926,0,0,0-5.6,2.256c-.851.848-2.442,2.183-2.442,8.17V75.493H358.97V44.9h5.673v4.509" transform="translate(141.909 27.051)" fill="#fff"/><path d="M372.624,50.279v-6.51l5.793-1.82v8.344h7.074v4.2H378.4V74.148c0,2.183,1.707,3.224,3.785,3.224a13.307,13.307,0,0,0,3.035-.364v4.429c-1.332.066-2.624.364-3.948.364a21.548,21.548,0,0,1-3.9-.291,5.481,5.481,0,0,1-3.417-2.02c-1.037-1.456-1.346-1.579-1.346-5.662V54.482h-5.237v-4.2h5.237" transform="translate(164.074 21.665)" fill="#fff"/><path d="M394.286,44.244h5.782v30.59h-5.662v-4.5h-.12A11.623,11.623,0,0,1,383.8,75.751a10.029,10.029,0,0,1-10.117-9.938,7.859,7.859,0,0,1,.051-1.092V44.24h5.8v18.1c0,5.309,1.216,9.207,6.769,9.207a7.278,7.278,0,0,0,6.831-4.392,22.65,22.65,0,0,0,1.157-7.187V44.24" transform="translate(180.735 27.711)" fill="#fff"/><path d="M388.85,75.167h-5.79V44.577h5.79v5.9h.127a8.475,8.475,0,0,1,8.956-6.332c.728,0,1.35.066,2.012.066V49.7a7.238,7.238,0,0,0-2.5-.3c-7.322.237-8.6,4.138-8.6,10.6V75.167" transform="translate(205.484 27.378)" fill="#fff"/><path d="M402.582,86.551h-5.928l4.636-11.831L388.553,44.24H395l9.578,24.138,9.767-24.138h6.208L402.574,86.551" transform="translate(219.98 27.711)" fill="#fff"/><path d="M398.541,84.564V40.553H408V77.26h19.08v7.3h-28.53" transform="translate(246.339 17.981)" fill="#fff"/><path d="M407.87,40.553h9.756v7.871H407.87Zm.306,13.421h9.145v30.59h-9.145Z" transform="translate(270.959 17.981)" fill="#fff"/><path d="M421.963,48.455l.12.186a10.418,10.418,0,0,1,9.389-4.633c3.046,0,8.963,2.245,10.055,6.7a20.632,20.632,0,0,1,.619,4.88v19.92h-9.159v-18.4c-.055-3.3-.979-7.009-5.484-7.009-2.871,0-5.364,2.547-5.491,7.009v18.4h-9.138V44.921h9.079v3.534" transform="translate(284.163 27.034)" fill="#fff"/><path d="M432.488,66.358l.117.109,9.021-12.857h10.189L441.261,67.016l11.216,17.548H441.815l-9.207-16.74-.116.124V84.579H423.35V40.553h9.141v25.8" transform="translate(311.812 17.981)" fill="#fff"/><path d="M432.339,49.91a5.842,5.842,0,1,1,0,.018Zm10.626,0a4.855,4.855,0,1,0-4.836,4.869,4.665,4.665,0,0,0,4.836-4.491,3.261,3.261,0,0,0,0-.364Zm-6.157,3.275h-.848V46.576h2.849c1.714,0,2.3.648,2.3,1.82,0,1.274-.892,1.754-2.042,1.841l1.965,2.933h-.95l-1.86-2.933h-1.412Zm1.164-3.7c.924,0,2.213.156,2.213-1.092,0-.921-.768-1.044-1.565-1.044H436.8v2.114Z" transform="translate(335.535 27.438)" fill="#fff"/></g></svg>