<svg xmlns="http://www.w3.org/2000/svg" width="454.822" height="91.758" viewBox="0 0 454.822 91.758"><g transform="translate(-305.908 -32.78)"><path d="M307.744,65.043a46.513,46.513,0,0,0,11.133,11.133l15.2-26.334-26.334,15.2" transform="translate(6.381 40.142)"/><path d="M318.876,35.828A46.137,46.137,0,0,0,307.744,46.96l26.334,15.2-15.2-26.33" transform="translate(6.381 5.173)"/><path d="M334.908,37.546a45.6,45.6,0,0,0-15.2-4.069V63.886l15.2-26.337" transform="translate(36.225 -0.694)"/><path d="M312.981,77.362a45.757,45.757,0,0,0,15.208,4.076V51.028L312.981,77.362" transform="translate(19.449 43.101)"/><path d="M348.089,46.961A46.176,46.176,0,0,0,336.96,35.828l-15.2,26.33,26.33-15.2" transform="translate(41.353 5.173)"/><path d="M336.96,76.176a46.228,46.228,0,0,0,11.126-11.133l-26.327-15.2,15.2,26.334" transform="translate(41.353 40.142)"/><path d="M353.349,56.269a46,46,0,0,0-4.065-15.2l-26.341,15.2h30.409" transform="translate(44.31 18.241)"/><path d="M305.393,47.787a45.666,45.666,0,0,0,4.065,15.2l26.344-15.2H305.393" transform="translate(0.515 35.014)"/><path d="M309.458,41.065a45.8,45.8,0,0,0-4.065,15.2H335.8l-26.344-15.2" transform="translate(0.515 18.241)"/><path d="M322.946,47.787l26.341,15.2a45.579,45.579,0,0,0,4.065-15.2H322.943" transform="translate(44.307 35.014)"/><path d="M328.189,33.479a45.641,45.641,0,0,0-15.208,4.069l15.208,26.337V33.476" transform="translate(19.449 -0.696)"/><path d="M319.7,81.437a45.716,45.716,0,0,0,15.2-4.076L319.7,51.028V81.437" transform="translate(36.215 43.101)"/><path d="M328.471,39.008a5.54,5.54,0,1,1,1.623,3.935A5.544,5.544,0,0,1,328.471,39.008Zm10.2,0a4.663,4.663,0,1,0-4.649,4.673h0a4.488,4.488,0,0,0,4.649-4.317A3.034,3.034,0,0,0,338.674,39.008Zm-5.914,3.146h-.814V35.809h2.73c1.653,0,2.216.615,2.216,1.748,0,1.223-.86,1.681-1.961,1.769l1.884,2.817h-.909l-1.79-2.817h-1.349Zm1.118-3.555c.888,0,2.125.147,2.125-1.049,0-.884-.734-1.007-1.5-1.007h-1.748V38.6Z" transform="translate(58.101 -0.691)"/><path d="M366.364,52.08a8.455,8.455,0,0,0-8.962-6.742c-10.433,0-12.366,9.549-12.366,16.994,0,8.738,2.646,16.97,11.842,16.97a8.574,8.574,0,0,0,9.3-6.725h6.148c-.58,7.088-7.728,11.758-15.977,11.758-12.478,0-17.445-10.178-17.445-22,0-10.367,4.544-22.433,18.721-22.02,8.141.234,14.236,4.219,14.876,11.772h-6.138" transform="translate(84.137 16.334)"/><path d="M355.588,60.614c-.405,5.159,1.706,10.486,7.379,10.486a6.19,6.19,0,0,0,7.078-5.145,6.506,6.506,0,0,0,.073-.825h5.851c-.881,6.676-6.026,10-13.055,10-9.437,0-13.174-6.666-13.174-15.33,0-8.605,4.327-15.813,13.632-15.813,8.787.171,12.933,5.739,12.933,13.869v2.758H355.577m14.879-3.845c.112-4.928-2.118-8.738-7.5-8.738a7.8,7.8,0,0,0-7.427,8.158,5.374,5.374,0,0,0,.049.58Z" transform="translate(111.174 25.539)"/><path d="M364.433,49.2h.115a10.192,10.192,0,0,1,8.9-5.208c2.052,0,11.136.528,11.136,9.955v20.3H379v-18.5c0-4.858-2.041-7.49-6.739-7.49a7.613,7.613,0,0,0-5.379,2.167c-.818.814-2.345,2.1-2.345,7.847V74.249H358.97V44.867h5.449V49.2" transform="translate(134.205 25.539)"/><path d="M372.416,49.95V43.7l5.565-1.748v8.015h6.795V54h-6.812V72.875c0,2.1,1.639,3.1,3.635,3.1a12.78,12.78,0,0,0,2.915-.35v4.254c-1.279.063-2.52.35-3.792.35a20.7,20.7,0,0,1-3.747-.28,5.264,5.264,0,0,1-3.282-1.94c-1-1.4-1.293-1.517-1.293-5.439V53.987h-5.03V49.95h5.03" transform="translate(155.163 20.447)"/><path d="M393.472,44.243h5.554V73.625h-5.439V69.3h-.115a11.164,11.164,0,0,1-10.073,5.2,9.633,9.633,0,0,1-9.717-9.546,7.535,7.535,0,0,1,.049-1.049V44.24H379.3V61.629c0,5.1,1.167,8.843,6.5,8.843a6.991,6.991,0,0,0,6.561-4.219,21.759,21.759,0,0,0,1.112-6.9V44.24" transform="translate(170.916 26.163)"/><path d="M388.621,73.94H383.06V44.558h5.561v5.669h.122a8.141,8.141,0,0,1,8.6-6.082c.7,0,1.3.063,1.933.063v5.267a6.951,6.951,0,0,0-2.4-.287c-7.033.227-8.26,3.974-8.26,10.185V73.94" transform="translate(194.317 25.849)"/><path d="M402.027,84.88h-5.694l4.453-11.363L388.553,44.24h6.19l9.2,23.184,9.381-23.184h5.963L402.02,84.88" transform="translate(208.023 26.163)"/><path d="M398.541,82.825V40.553h9.088V75.81h18.326v7.015h-27.4" transform="translate(232.947 16.963)"/><path d="M407.87,40.553h9.371v7.56H407.87Zm.294,12.891h8.784V82.825h-8.784Z" transform="translate(256.225 16.963)"/><path d="M421.6,48.278l.115.178a10.007,10.007,0,0,1,9.018-4.45c2.926,0,8.609,2.157,9.657,6.438a19.813,19.813,0,0,1,.594,4.687V74.265h-8.8V56.6c-.052-3.17-.94-6.732-5.267-6.732-2.758,0-5.152,2.447-5.274,6.732V74.265h-8.777V44.884h8.721v3.394" transform="translate(268.709 25.523)"/><path d="M432.127,65.338l.112.1L440.9,53.094h9.787L440.554,65.971l10.773,16.854H441.085l-8.843-16.078-.112.119V82.839h-8.78V40.553h8.78V65.338" transform="translate(294.852 16.963)"/><path d="M432.339,49.682a5.613,5.613,0,1,1,0,.017Zm10.206,0a4.663,4.663,0,1,0-4.645,4.677,4.481,4.481,0,0,0,4.645-4.313,3.121,3.121,0,0,0,0-.35Zm-5.914,3.146h-.814V46.48h2.737c1.646,0,2.206.622,2.206,1.748,0,1.223-.856,1.685-1.961,1.769l1.887,2.817h-.912L437.988,50h-1.356Zm1.118-3.555c.888,0,2.125.15,2.125-1.049,0-.884-.737-1-1.5-1h-1.748v2.031Z" transform="translate(317.282 25.905)"/></g></svg>