<svg xmlns="http://www.w3.org/2000/svg" width="68.911" height="68.914" viewBox="0 0 68.911 68.914"><g transform="translate(-7069 3505)"><path d="M307.744,61.259A34.933,34.933,0,0,0,316.1,69.62l11.417-19.778L307.744,61.259" transform="translate(6767.427 -3511.879)"/><path d="M316.1,35.828a34.651,34.651,0,0,0-8.361,8.361L327.521,55.6,316.1,35.828" transform="translate(6767.427 -3534.654)"/><path d="M331.123,36.533A34.247,34.247,0,0,0,319.7,33.477V56.315l11.419-19.78" transform="translate(6786.864 -3538.474)"/><path d="M312.981,70.805A34.365,34.365,0,0,0,324.4,73.866V51.028L312.981,70.805" transform="translate(6775.938 -3509.952)"/><path d="M341.534,44.189a34.68,34.68,0,0,0-8.358-8.361L321.759,55.6l19.775-11.414" transform="translate(6790.203 -3534.654)"/><path d="M333.176,69.619a34.719,34.719,0,0,0,8.356-8.361L321.759,49.842l11.417,19.777" transform="translate(6790.203 -3511.879)"/><path d="M345.78,52.484a34.547,34.547,0,0,0-3.053-11.419L322.944,52.484h22.838" transform="translate(6792.129 -3526.143)"/><path d="M305.393,47.787A34.3,34.3,0,0,0,308.446,59.2l19.785-11.414H305.393" transform="translate(6763.607 -3515.219)"/><path d="M308.446,41.065a34.4,34.4,0,0,0-3.053,11.419h22.839L308.446,41.065" transform="translate(6763.607 -3526.143)"/><path d="M322.946,47.787,342.728,59.2a34.231,34.231,0,0,0,3.053-11.414H322.943" transform="translate(6792.127 -3515.219)"/><path d="M324.4,33.479a34.278,34.278,0,0,0-11.422,3.056L324.4,56.314V33.476" transform="translate(6775.938 -3538.476)"/><path d="M319.7,73.866a34.335,34.335,0,0,0,11.419-3.061L319.7,51.028V73.866" transform="translate(6786.857 -3509.952)"/></g></svg>