<svg xmlns="http://www.w3.org/2000/svg" width="142.681" height="38.356" viewBox="0 0 142.681 38.356"><g transform="translate(-70.728)"><g transform="translate(70.728 0)"><circle cx="4.664" cy="4.664" r="4.664" transform="translate(116.852 15.959)" fill="#d9292c"/><circle cx="3.929" cy="3.929" r="3.929" transform="translate(101.26 7.735)" fill="#d9292c"/><circle cx="3.684" cy="3.684" r="3.684" transform="translate(85.432 2.327)" fill="#d9292c"/><circle cx="3.194" cy="3.194" r="3.194" transform="translate(68.983)" fill="#d9292c"/><circle cx="2.695" cy="2.695" r="2.695" transform="translate(52.297 0.49)" fill="#d9292c"/><circle cx="2.389" cy="2.389" r="2.389" transform="translate(35.786 3.01)" fill="#d9292c"/><circle cx="1.654" cy="1.654" r="1.654" transform="translate(20.439 9.887)" fill="#d9292c"/><circle cx="1.032" cy="1.032" r="1.032" transform="translate(7.805 19.783)" fill="#d9292c"/><circle cx="0.779" cy="0.779" r="0.779" transform="translate(0 30.344)" fill="#d9292c"/><path d="M209.77,37.09a5.25,5.25,0,1,1-5.425-5.25C206.13,31.8,209.77,33.31,209.77,37.09Z" transform="translate(-67.088 -3.981)" fill="#d9292c"/></g></g></svg>