<svg xmlns="http://www.w3.org/2000/svg" width="440.216" height="163.661" viewBox="0 0 440.216 163.661"><g transform="translate(0 0)"><path d="M61.117,28.77V43.781H17.2V66.526H58.7V81.082H17.2v38.035H0V28.77Zm46.3,43.787a18.283,18.283,0,0,0-6.486-1.321c-9.655,0-17.462,9.655-17.462,23.478v24.4H67.06V57.6H83.333V67.656h.308c3.7-7.337,9-11.5,16.934-11.5a17.1,17.1,0,0,1,6.882,1.467Zm319.7,0a18.283,18.283,0,0,0-6.486-1.321c-9.655,0-17.462,9.655-17.462,23.478v24.4H386.759V57.6h16.273V67.656h.264c3.7-7.337,9-11.5,16.934-11.5a17.1,17.1,0,0,1,6.882,1.467ZM176.086,88.434c0,16.141-12.825,32.15-34,32.15-20.631,0-33.6-15.085-33.6-32.018,0-19.311,16.141-32.415,32.943-32.415,22.73,0,34.66,16.537,34.66,32.282ZM126.078,88.3c0,10.976,8.2,17.726,16.537,17.726,9.523,0,15.877-9,15.877-17.462,0-9-6.618-17.858-15.745-17.858-9.553,0-16.684,7.528-16.684,17.594ZM238.89,119.117H222.485V83.4c0-6.354-1.849-11.372-9-11.372-9.92,0-15.745,10.272-15.745,22.1v24.946H181.34V57.6H197.73V67.26c2.641-3.977,7.542-11.108,19.443-11.108,14.821,0,21.688,10.184,21.688,22.891ZM310.308,57.6v61.513H293.917V57.6ZM378.7,90.547H333.214a21.086,21.086,0,0,0,3.845,7.939,19.736,19.736,0,0,0,14.953,7.014c9,0,17.2-4.637,24.344-10.184V112.1c-5.429,2.935-15.613,8.467-26.985,8.467-19.575,0-33.207-14.953-33.207-32.018a32.283,32.283,0,0,1,32.018-32.415c18.518,0,30.551,13.206,30.551,31.886Zm-17.726-11.24a12.722,12.722,0,0,0-12.429-10.844,14.777,14.777,0,0,0-13.9,10.844ZM267.93,39.218V57.736h17.2V70.048H268.458V96.9c0,6.882,3.7,8.6,7.939,8.6a22.348,22.348,0,0,0,8.731-2.113v14.556a57.4,57.4,0,0,1-14.953,2.142c-11.108,0-18.122-5.693-18.122-17.609V70.048H241.869V57.736h10.2V39.144H267.93" transform="translate(0 13.447)" fill="#fff"/><circle cx="7.821" cy="7.821" r="7.821" transform="translate(266.697 26.765)" fill="#fff"/><circle cx="6.589" cy="6.589" r="6.589" transform="translate(240.549 12.972)" fill="#fff"/><circle cx="6.178" cy="6.178" r="6.178" transform="translate(214.004 3.903)" fill="#fff"/><circle cx="5.356" cy="5.356" r="5.356" transform="translate(186.417)" fill="#fff"/><circle cx="4.52" cy="4.52" r="4.52" transform="translate(158.434 0.822)" fill="#fff"/><circle cx="4.006" cy="4.006" r="4.006" transform="translate(130.744 5.048)" fill="#fff"/><circle cx="2.773" cy="2.773" r="2.773" transform="translate(105.006 16.581)" fill="#fff"/><circle cx="1.732" cy="1.732" r="1.732" transform="translate(83.817 33.178)" fill="#fff"/><circle cx="1.306" cy="1.306" r="1.306" transform="translate(70.728 50.889)" fill="#fff"/><path d="M216.879,40.645a8.8,8.8,0,1,1-9.1-8.8C210.774,31.782,216.879,34.306,216.879,40.645Z" transform="translate(93.136 14.881)" fill="#fff"/></g><path d="M29.785,117.336H26.85l8.188-18.885h2.407l8.115,18.885H42.624l-1.981-4.652H31.678Zm2.832-6.955H39.69l-3.522-8.8Zm14.879-.029v-11.9h2.641V110.19c0,2.583,1.174,5.253,4.7,5.253s4.7-2.671,4.7-5.253V98.451H62.17v11.9a6.985,6.985,0,0,1-7.337,7.469,6.985,6.985,0,0,1-7.337-7.469Zm26.266,6.985H71.092V100.784H65.075V98.451H79.9v2.318H73.762ZM83.4,98.451h2.641v7.895H95.6V98.451h2.671v18.885H95.582v-8.643H86.03v8.643H83.388Zm28.453,19.369a9.92,9.92,0,1,1,10.022-9.949,9.626,9.626,0,0,1-10.022,9.949Zm0-17.521a7.586,7.586,0,1,0,7.176,7.572,7.131,7.131,0,0,0-7.175-7.572Zm16.259,17.036h-2.641V98.451h6.06c3.654,0,6.721,1.379,6.721,5.224a4.974,4.974,0,0,1-4.593,4.989l5.283,8.672h-3.2l-4.8-8.393h-2.832Zm0-10.609h3.037c2.48,0,4.4-.778,4.4-3.037s-1.952-2.935-4.241-2.935h-3.228Zm17.975,10.609h-2.641V98.451h2.641Zm18.65-16.552L154.072,115H164.9v2.348H150.873v-2.318l10.639-14.248H151.079V98.451H164.74Zm7.043,14.2h9.861v2.348h-12.5V98.451h12.106v2.318h-9.465v5.649h8.907v2.274h-8.907Zm14.454-16.537h6.486c4.828,0,10.184,2.744,10.184,9.435,0,6.456-5.356,9.435-10.184,9.435h-6.486Zm2.641,16.567h3.3c4.564,0,7.895-2.612,7.895-7.117s-3.331-7.146-7.895-7.146h-3.3Zm34.234-13.06a4.519,4.519,0,0,0-3.683-1.761,3.316,3.316,0,0,0-3.683,3.067c0,2.054,1.732,2.612,3.874,3.3,2.539.807,5.547,1.761,5.547,5.517s-3.17,5.737-6.53,5.737a7.938,7.938,0,0,1-6.222-2.744l2.054-1.732a5.151,5.151,0,0,0,4.211,2.216,3.434,3.434,0,0,0,3.786-3.228c0-2.289-2.084-2.935-4.476-3.654s-4.9-1.834-4.9-5.312c0-3.757,3.36-5.385,6.486-5.385a7.337,7.337,0,0,1,5.415,2.157Zm6.559,15.378h-2.935l8.188-18.885h2.407l8.115,18.885h-2.935l-1.981-4.652h-8.966Zm2.832-6.955h7.073l-3.522-8.8Zm18.533,4.608h8.423v2.348H248.4V98.451h2.641Zm14.7,0h9.875v2.348h-12.5V98.451H275.22v2.318h-9.465v5.649h8.907v2.274h-8.907Zm23.3-13.03a4.52,4.52,0,0,0-3.683-1.761,3.316,3.316,0,0,0-3.683,3.067c0,2.054,1.731,2.612,3.874,3.3,2.539.807,5.547,1.761,5.547,5.517s-3.17,5.737-6.53,5.737a7.938,7.938,0,0,1-6.222-2.744l2.054-1.732a5.15,5.15,0,0,0,4.211,2.216,3.434,3.434,0,0,0,3.786-3.228c0-2.289-2.084-2.935-4.476-3.654s-4.9-1.834-4.9-5.312c0-3.757,3.36-5.385,6.486-5.385a7.337,7.337,0,0,1,5.415,2.157Zm13.28,15.378h-2.935l8.188-18.885h2.406l8.115,18.885h-2.935l-1.952-4.652h-8.966Zm2.832-6.955h7.073l-3.522-8.8Zm28.056-7.968a6.911,6.911,0,0,0-5.121-2.054,7.586,7.586,0,0,0,.073,15.143,9.524,9.524,0,0,0,4.4-.939v-5.253h-4.182v-2.245h6.838v9.142a14.674,14.674,0,0,1-7.087,1.658,9.929,9.929,0,1,1,6.985-17.389Zm9.685,12.575h9.934v2.348h-12.5V98.451h12.106v2.318h-9.465v5.649h8.907v2.274h-8.907Zm27.22-1.438v-15.1h2.641v18.885h-3.331l-9.978-15.422v15.422h-2.641V98.451h3.434Zm14.424,3.786H381.9V100.784h-6.06V98.451h14.747v2.318h-6.06Z" transform="translate(12.549 45.793)" fill="#fff"/><path d="M296.778,49.924h-1.555v4.167h-1V49.924H292.64V49h4.138Zm6.662,4.167h-1.013V50.335l-1.467,3.756h-.675l-1.467-3.756v3.756h-1V49h1.467l1.379,3.58L301.973,49h1.467Z" transform="translate(136.776 22.902)" fill="#fff"/></svg>