<svg xmlns="http://www.w3.org/2000/svg" width="541" height="87.725" viewBox="0 0 541 87.725"><path d="M44.95,42.05H20.59V68H0V0H20.59V24.07H44.95V0H65.54V68H44.95Z" fill="#fff"/><path d="M85.85,56.69c-2.9,3.19-8.265,6.67-16.965,6.67C57.43,63.36,52.5,56.545,52.5,47.99V12.9H70.915V40.3c0,4.93,2.61,6.96,7.1,6.96A9.434,9.434,0,0,0,85.7,43.35V12.9H104.12V62.2H85.85Z" transform="translate(23.625 5.805)" fill="#fff"/><path d="M102.225,62.17c3.77,3.77,9.425,5.365,14.645,5.365,4.35,0,11.455-1.6,11.455-10.295V54.63c-4.205,4.785-8.7,6.67-13.92,6.67-11.89,0-21.6-7.685-21.6-24.65C92.8,20.265,102.225,12,114.4,12a17.674,17.674,0,0,1,13.92,6.38V13.16H146.74V57.095c0,21.315-17.545,25.23-29.725,25.23-8.41,0-15.95-2.175-22.475-7.395Zm26.1-30.595a11.049,11.049,0,0,0-7.54-3.19c-4.93,0-9.135,2.32-9.135,8.41,0,5.945,4.205,8.41,9.135,8.41a11.049,11.049,0,0,0,7.54-3.19Z" transform="translate(41.76 5.4)" fill="#fff"/><path d="M170.45,40.6c0-5.075-2.755-6.815-7.1-6.815a9.514,9.514,0,0,0-7.83,3.915V68.15H137.1V0h18.415V24.36c2.9-3.335,8.265-6.815,16.965-6.815,11.455,0,16.385,6.67,16.385,15.37V68.15H170.45V40.6Z" transform="translate(61.695)" fill="#fff"/><path d="M204.18,12.1c14.5,0,25.665,10.44,25.665,27.695v3.77H196.35c1.015,3.19,4.64,6.235,10.875,6.235a20.013,20.013,0,0,0,11.165-3.48l7.54,11.31c-4.93,4.205-13.63,6.09-21.025,6.09-15.37,0-27.4-9.715-27.4-25.955C177.355,23.555,188.375,12.1,204.18,12.1Zm-7.975,19.865h16.24c-.58-2.175-2.175-5.945-8.12-5.945C198.67,26.02,196.785,29.79,196.205,31.965Z" transform="translate(79.874 5.445)" fill="#fff"/><path d="M222.4,43.855c3.915,3.045,12.18,6.235,17.69,6.235,3.77,0,4.93-1.015,4.93-2.32,0-1.595-2.175-2.175-6.96-2.9-8.265-1.16-21.025-2.61-21.025-15.95,0-8.845,7.685-16.82,22.04-16.82a38.58,38.58,0,0,1,21.315,6.38l-6.67,11.89a23.793,23.793,0,0,0-14.5-5.075c-2.61,0-4.64.725-4.64,2.175s1.45,2.03,6.38,2.755c8.265,1.16,21.6,2.9,21.6,16.675,0,9.86-8.7,16.965-23.345,16.965-9.135,0-18.85-3.19-24.215-7.54Z" transform="translate(96.75 5.445)" fill="#fff"/><path d="M265.79,18.415V68H253.9V0h12.18l34.8,48.285V0h11.89V68H301.315Z" transform="translate(114.255)" fill="#fff"/><path d="M327.185,12.1c14.79,0,24.215,11.31,24.215,26.825v2.61H313.41c.87,7.395,6.38,13.63,15.66,13.63,4.785,0,10.44-1.885,13.92-5.365l4.93,7.1c-4.93,4.64-12.18,7.105-20.01,7.105-14.79,0-25.81-10.295-25.81-25.955C302.245,23.555,312.685,12.1,327.185,12.1ZM313.41,33.85h27.7c-.145-5.8-4.205-13.05-13.92-13.05C318.05,20.8,313.845,27.9,313.41,33.85Z" transform="translate(135.945 5.445)" fill="#fff"/><path d="M347.52,54.885V26.465H339.4V17.04h8.12V3.7h10.73V17.185h10V26.61h-10V52.42c0,3.335,1.595,5.8,4.64,5.8a7.254,7.254,0,0,0,4.785-1.74l2.61,8.12c-1.885,1.885-5.075,3.19-10.15,3.19C351.87,67.645,347.52,63.15,347.52,54.885Z" transform="translate(152.73 1.665)" fill="#fff"/><g transform="translate(528.235 56.55)"><g transform="translate(3.48 2.755)"><path d="M366.7,47.57V40.9h2.9a4.51,4.51,0,0,1,1.6.145,1.447,1.447,0,0,1,.725.58,2.688,2.688,0,0,1,.29,1.015,2.339,2.339,0,0,1-.435,1.305,1.838,1.838,0,0,1-1.3.58,1.448,1.448,0,0,1,.725.58,5.472,5.472,0,0,1,.725,1.16l.87,1.305H371.2l-1.015-1.45a3.608,3.608,0,0,0-.725-1.015c-.145-.145-.29-.29-.435-.29a6.28,6.28,0,0,0-.725-.145h-.29v2.755H366.7Zm1.45-3.915h1.015c.58,0,1.015,0,1.16-.145.145,0,.29-.145.435-.29a.533.533,0,0,0,.145-.435c0-.29,0-.435-.145-.58a.753.753,0,0,0-.58-.29h-2.03v1.74Z" transform="translate(-366.7 -40.9)" fill="#fff"/></g><path d="M370.68,51.76a6.38,6.38,0,1,1,6.38-6.38A6.253,6.253,0,0,1,370.68,51.76Zm0-11.745a5.365,5.365,0,0,0,0,10.73,5.365,5.365,0,1,0,0-10.73Z" transform="translate(-364.3 -39)" fill="#fff"/></g></svg>