<svg xmlns="http://www.w3.org/2000/svg" width="538.442" height="139.259" viewBox="0 0 538.442 139.259"><path d="M144.774,46.127h7.2V70.895c0,8.412,3.458,16.169,19.627,16.169a100.48,100.48,0,0,0,15.048-1.215V65.287s-2.991.187-5.608.094c-4.767,0-4.58-2.617-4.58-4.3V46.127H187.3V24.911H176.552V5.564H152.065V24.911h-7.2V46.127ZM33.927,65.941A10.468,10.468,0,1,1,44.4,55.473,10.531,10.531,0,0,1,33.927,65.941m0-43.086C14.487,22.855,0,37.248,0,55.38S14.487,87.9,33.927,87.9,67.854,73.511,67.854,55.38c-.093-18.038-14.487-32.525-33.927-32.525m73.088,43.086a10.468,10.468,0,1,1,10.468-10.468,10.451,10.451,0,0,1-10.468,10.468m7.01-43.086c-7.2,0-13.085,2.243-17.291,7.1a20.91,20.91,0,0,0,.28-4.019V24.911H72.527v76.92H97.015V81.269c4.206,4.58,10,6.729,16.917,6.729,15.8,0,28.226-13.646,28.226-32.618.094-18.88-12.337-32.525-28.132-32.525" transform="translate(0 9.297)" fill="#fff"/><path d="M202.983,24.64A14.954,14.954,0,1,0,217.94,39.594,15,15,0,0,0,202.983,24.64" transform="translate(320.502 41.812)" fill="#0084d6"/><path d="M88.286.069A14.954,14.954,0,1,0,103.24,15.023,15,15,0,0,0,88.286.069" transform="translate(124.997 -0.069)" fill="#fff"/><path d="M71.708,33.934h7.2V73.842h24.487V12.717H71.708Z" transform="translate(122.228 21.49)" fill="#fff"/><g transform="translate(233.192 33.179)"><path d="M141.489,34.169c0,4.953-3.458,6.542-6.168,6.542s-5.888-1.589-5.888-6.542V1.27H104.945V37.347c0,12.8,9.627,26.076,30.469,26.076,20.936,0,30.469-13.272,30.656-26.076V1.27H141.583v32.9ZM248.878.242a24.248,24.248,0,0,0-19.44,9.253c-3.458-5.7-9.44-9.253-17.1-9.253a21.031,21.031,0,0,0-15.608,7.2,25.1,25.1,0,0,0,.467-5.047V1.27H172.706V62.395h24.487V25.01a8.074,8.074,0,0,1,6.262-3.365c3.271,0,5.982,1.869,5.982,6.262V62.395h24.487V25.01a8.248,8.248,0,0,1,6.262-3.365c3.271,0,5.982,1.869,5.982,6.262V62.395h24.58V20.617c0-13.272-10.934-20.375-21.87-20.375M76.345.242A24.248,24.248,0,0,0,56.9,9.495C53.447,3.794,47.465.242,39.8.242a21.031,21.031,0,0,0-15.608,7.2,25.1,25.1,0,0,0,.467-5.047V1.27H.173V62.395H24.66V25.01a8.075,8.075,0,0,1,6.262-3.365c3.271,0,5.982,1.869,5.982,6.262V62.395H61.391V25.01a8.074,8.074,0,0,1,6.262-3.365c3.271,0,5.982,1.869,5.982,6.262V62.395H98.123V20.617C98.215,7.345,87.281.242,76.345.242" transform="translate(-0.173 -0.242)" fill="#fff"/></g><g transform="translate(151.971 110.472)"><path d="M24.788,28.458c-.28,0-.748.094-1.215.094-3.271,0-4.767-1.308-5.795-3.084a8.836,8.836,0,0,1-7.29,3.178C4.507,28.644.207,24.439.207,18.27A10.157,10.157,0,0,1,10.488,7.9a8.086,8.086,0,0,1,5.888,2.337V8.176h4.767V18.831a9.136,9.136,0,0,0,.187,2.43,2.976,2.976,0,0,0,2.9,2.617h.467v4.58ZM16.376,18.27a5.4,5.4,0,0,0-5.514-5.7c-3.178,0-5.421,2.337-5.421,5.7a5.381,5.381,0,0,0,5.421,5.7A5.4,5.4,0,0,0,16.376,18.27ZM47.967,28.458a8.541,8.541,0,0,1-1.589.094,5.682,5.682,0,0,1-5.234-2.8,8.7,8.7,0,0,1-6.262,2.8c-5.14,0-8.131-3.271-8.131-8.786V8.083h5.234v11.4c0,2.617,1.589,4.393,4.112,4.393a4.053,4.053,0,0,0,4.113-4.393V8.083h5.234V21.541c0,1.4.654,2.43,2.617,2.337v4.58Zm13.085,0a8.571,8.571,0,0,1-1.682.094c-4.113,0-6.916-2.15-7.757-6.262a21.013,21.013,0,0,1-.28-3.739V12.662H49.089V8.176h2.243V3.223h5.047V8.176h4.3v4.486h-4.3V17.8a14.262,14.262,0,0,0,.187,3.178,3.219,3.219,0,0,0,3.645,2.9h.841Zm17.291-.187v-11.4a4.146,4.146,0,0,0-4.3-4.393,4.2,4.2,0,0,0-4.3,4.393v11.4H64.51V.606h5.234v9.44A7.547,7.547,0,0,1,75.165,7.9c5.141,0,8.318,3.271,8.318,8.786V28.271Zm18.973.467A10.267,10.267,0,0,1,86.661,18.27a10.7,10.7,0,0,1,21.4,0A10.346,10.346,0,0,1,97.315,28.738Zm5.608-10.561a5.749,5.749,0,0,0-5.608-5.888,5.691,5.691,0,0,0-5.608,5.888,5.615,5.615,0,1,0,11.216,0Zm8.6,10.094V8.083h4.954v2.056A6.161,6.161,0,0,1,121.242,7.8a5.692,5.692,0,0,1,3.832,1.215l-2.8,4.112a3.871,3.871,0,0,0-2.15-.561c-1.963,0-3.458,1.308-3.458,4.206v11.4h-5.141ZM126.663,3.129a2.991,2.991,0,0,1,5.982,0,2.991,2.991,0,0,1-5.982,0Zm.374,25.142V8.083h5.234V28.271Z" transform="translate(-0.207 -0.138)" fill="#fff"/><path d="M50.351,23.263V20.085L59.7,7.56H50.632V3.076H66.613V6.067l-9.439,12.8h9.907v4.487H50.351Z" transform="translate(85.264 4.869)" fill="#fff"/><path d="M62.265,19.81c.374,2.617,2.8,4.3,6.169,4.3a8.134,8.134,0,0,0,5.047-1.589l3.084,3.365a11.749,11.749,0,0,1-8.131,2.71c-6.542,0-11.309-3.832-11.309-10.655,0-6.075,4.393-10.655,10.374-10.655,6.169,0,10,4.019,10.188,9.814,0,1.682-.094,2.617-.094,2.617H62.265ZM72.546,15.7c-.374-2.524-2.337-4.019-5.047-4.019A4.9,4.9,0,0,0,62.452,15.7ZM103.2,28.222c-.28,0-.748.094-1.122.094-3.271,0-4.486-1.5-5.327-2.9-1.5,1.869-3.365,2.991-6.823,2.991-5.982,0-10.281-4.206-10.281-10.374A10.157,10.157,0,0,1,89.93,7.66a8.235,8.235,0,0,1,5.7,2.15V.463h4.954V20.651c0,2.15.935,3.084,2.056,3.084h.561ZM95.725,18.034a5.4,5.4,0,0,0-5.515-5.7c-3.178,0-5.421,2.337-5.421,5.7a5.381,5.381,0,0,0,5.421,5.7A5.455,5.455,0,0,0,95.725,18.034Zm23.366,10V7.847h4.953V9.9a6.162,6.162,0,0,1,4.767-2.337,5.692,5.692,0,0,1,3.832,1.215l-2.8,4.112a3.871,3.871,0,0,0-2.15-.561c-1.963,0-3.458,1.308-3.458,4.206v11.4h-5.14Zm18.225-8.225c.374,2.617,2.8,4.3,6.168,4.3a8.133,8.133,0,0,0,5.047-1.589l3.085,3.365a11.749,11.749,0,0,1-8.131,2.71c-6.543,0-11.309-3.832-11.309-10.655,0-6.075,4.393-10.655,10.374-10.655,6.169,0,10,4.019,10.187,9.814,0,1.682-.093,2.617-.093,2.617H137.316ZM147.6,15.7c-.374-2.524-2.337-4.019-5.047-4.019A4.9,4.9,0,0,0,137.5,15.7Zm20-2.056a5.915,5.915,0,0,0-4.58-2.15c-1.776,0-2.8.654-2.8,1.776,0,3.552,11.216,1.308,11.216,8.879,0,4.486-3.832,6.542-8.225,6.542a12.307,12.307,0,0,1-9.066-3.552l3.365-3.271a7.717,7.717,0,0,0,5.7,2.43c2.056,0,2.991-.748,2.991-1.682,0-3.458-11.028-1.4-11.028-9.346,0-3.552,2.991-6.075,7.757-6.075,3.271,0,6.075.935,8.038,3.365Zm10.934,6.169c.373,2.617,2.8,4.3,6.169,4.3a8.132,8.132,0,0,0,5.047-1.589l3.086,3.365A11.75,11.75,0,0,1,184.7,28.6c-6.542,0-11.308-3.832-11.308-10.655,0-6.075,4.392-10.655,10.375-10.655,6.166,0,10,4.019,10.185,9.814,0,1.682-.092,2.617-.092,2.617H178.532ZM188.72,15.7c-.373-2.524-2.337-4.019-5.047-4.019a4.9,4.9,0,0,0-5.047,4.019Zm17.2,12.524a7.555,7.555,0,0,1-1.5.094,6.492,6.492,0,0,1-6.542-4.393,15.714,15.714,0,0,1-.841-5.608V.276h5.139V18.408a8.678,8.678,0,0,0,.281,2.43,3,3,0,0,0,2.991,2.617h.468Zm10.934,0a7.556,7.556,0,0,1-1.5.094,6.5,6.5,0,0,1-6.542-4.393,15.774,15.774,0,0,1-.841-5.608V.276h5.141V18.408a8.69,8.69,0,0,0,.279,2.43,3,3,0,0,0,2.991,2.617h.468Zm6.074-8.412c.376,2.617,2.8,4.3,6.169,4.3a8.132,8.132,0,0,0,5.047-1.589l3.086,3.365A11.75,11.75,0,0,1,229.1,28.6c-6.542,0-11.308-3.832-11.308-10.655,0-6.075,4.392-10.655,10.375-10.655,6.166,0,10,4.019,10.185,9.814,0,1.682-.092,2.617-.092,2.617H222.927ZM233.21,15.7c-.376-2.524-2.337-4.019-5.047-4.019a4.9,4.9,0,0,0-5.049,4.019Zm8.6,12.337V7.847h4.955V9.9a6.159,6.159,0,0,1,4.765-2.337,5.693,5.693,0,0,1,3.832,1.215l-2.8,4.112a3.871,3.871,0,0,0-2.15-.561c-1.961,0-3.456,1.308-3.456,4.206v11.4h-5.141Z" transform="translate(96.809 0.097)" fill="#fff"/></g></svg>