<svg xmlns="http://www.w3.org/2000/svg" width="126.456" height="47.013" viewBox="0 0 126.456 47.013"><g transform="translate(0 0)"><path d="M17.556,28.77v4.312H4.94v6.534H16.861V43.8H4.94V54.723H0V28.77Zm13.3,12.578a5.252,5.252,0,0,0-1.863-.379c-2.774,0-5.016,2.774-5.016,6.744v7.01H19.263V37.053h4.675V39.94h.089c1.062-2.108,2.584-3.3,4.864-3.3a4.911,4.911,0,0,1,1.977.422Zm91.837,0a5.252,5.252,0,0,0-1.863-.379c-2.774,0-5.016,2.774-5.016,6.744v7.01H111.1V37.053h4.675V39.94h.076c1.062-2.108,2.584-3.3,4.864-3.3a4.911,4.911,0,0,1,1.977.422Zm-72.11,4.561a9.368,9.368,0,0,1-9.767,9.235c-5.927,0-9.653-4.333-9.653-9.2a9.378,9.378,0,0,1,9.463-9.311c6.529,0,9.956,4.751,9.956,9.273Zm-14.365-.038a4.86,4.86,0,0,0,4.751,5.092c2.736,0,4.561-2.584,4.561-5.016,0-2.584-1.9-5.13-4.523-5.13a4.807,4.807,0,0,0-4.793,5.054Zm32.406,8.852H63.911V44.463c0-1.825-.531-3.267-2.584-3.267-2.849,0-4.523,2.951-4.523,6.348V54.71H52.091V37.053H56.8v2.774a6.189,6.189,0,0,1,5.585-3.191c4.257,0,6.23,2.925,6.23,6.576Zm20.515-17.67v17.67H84.431V37.053Zm19.647,9.463H95.719a6.057,6.057,0,0,0,1.1,2.28,5.669,5.669,0,0,0,4.3,2.015c2.584,0,4.94-1.332,6.993-2.925v4.822c-1.56.843-4.485,2.432-7.752,2.432a9.257,9.257,0,1,1-.341-18.509c5.32,0,8.776,3.794,8.776,9.16Zm-5.092-3.229a3.655,3.655,0,0,0-3.57-3.115,4.245,4.245,0,0,0-3.992,3.115ZM76.965,31.771v5.32h4.94v3.537H77.117v7.714c0,1.977,1.062,2.47,2.28,2.47a6.42,6.42,0,0,0,2.508-.607v4.181a16.489,16.489,0,0,1-4.3.615c-3.191,0-5.206-1.635-5.206-5.058V40.627H69.479V37.091h2.93V31.75h4.557" transform="translate(0 -16.643)" fill="#d9292c"/><ellipse cx="2.247" cy="2.247" rx="2.247" ry="2.247" transform="translate(76.611 7.689)" fill="#d9292c"/><ellipse cx="1.893" cy="1.893" rx="1.893" ry="1.893" transform="translate(69.1 3.726)" fill="#d9292c"/><ellipse cx="1.775" cy="1.775" rx="1.775" ry="1.775" transform="translate(61.475 1.121)" fill="#d9292c"/><ellipse cx="1.539" cy="1.539" rx="1.539" ry="1.539" transform="translate(53.55)" fill="#d9292c"/><ellipse cx="1.298" cy="1.298" rx="1.298" ry="1.298" transform="translate(45.512 0.236)" fill="#d9292c"/><ellipse cx="1.151" cy="1.151" rx="1.151" ry="1.151" transform="translate(37.557 1.45)" fill="#d9292c"/><ellipse cx="0.797" cy="0.797" rx="0.797" ry="0.797" transform="translate(30.164 4.763)" fill="#d9292c"/><ellipse cx="0.497" cy="0.497" rx="0.497" ry="0.497" transform="translate(24.077 9.531)" fill="#d9292c"/><ellipse cx="0.375" cy="0.375" rx="0.375" ry="0.375" transform="translate(20.317 14.618)" fill="#d9292c"/><path d="M204.328,34.369a2.529,2.529,0,1,1-2.613-2.529A2.627,2.627,0,0,1,204.328,34.369Z" transform="translate(-115.274 -18.418)" fill="#d9292c"/></g><path d="M27.693,103.539H26.85L29.2,98.114h.691l2.331,5.425h-.843l-.569-1.336H28.237Zm.814-2h2.032l-1.012-2.529Zm4.274-.008V98.114h.759v3.372a1.357,1.357,0,1,0,2.7,0V98.114H37v3.419a2.11,2.11,0,1,1-4.215,0Zm7.545,2.006h-.767V98.784H37.831v-.67h4.257v.666H40.326ZM43.1,98.114h.759v2.268H46.6V98.114h.767v5.425h-.771v-2.483H43.85v2.483h-.759Zm8.173,5.564a2.849,2.849,0,1,1,2.879-2.858,2.765,2.765,0,0,1-2.879,2.858Zm0-5.033a2.179,2.179,0,1,0,2.061,2.175,2.049,2.049,0,0,0-2.061-2.175Zm4.67,4.894H55.18V98.114h1.741c1.05,0,1.931.4,1.931,1.5a1.429,1.429,0,0,1-1.319,1.433l1.517,2.491h-.919l-1.378-2.411h-.814Zm0-3.048h.873c.712,0,1.265-.223,1.265-.873s-.561-.843-1.218-.843h-.927Zm5.164,3.048h-.759V98.114H61.1Zm5.358-4.755L63.4,102.868h3.111v.674h-4.03v-.666l3.056-4.093h-3v-.67H66.46Zm2.023,4.08h2.833v.674H67.725V98.114H71.2v.666H68.484V100.4h2.559v.653H68.484Zm4.152-4.751H74.5a2.69,2.69,0,0,1,2.925,2.71,2.73,2.73,0,0,1-2.925,2.71H72.636Zm.759,4.759h.948a2.059,2.059,0,1,0,0-4.1h-.948Zm9.834-3.752a1.3,1.3,0,0,0-1.058-.506.953.953,0,0,0-1.058.881c0,.59.5.75,1.113.948.729.232,1.593.506,1.593,1.585a1.707,1.707,0,0,1-1.876,1.648,2.28,2.28,0,0,1-1.787-.788l.59-.5a1.479,1.479,0,0,0,1.21.636.986.986,0,0,0,1.088-.927c0-.658-.6-.843-1.286-1.05s-1.408-.527-1.408-1.526a1.656,1.656,0,0,1,1.863-1.547,2.108,2.108,0,0,1,1.555.62Zm1.884,4.418H84.27l2.352-5.425h.691l2.331,5.425H88.8l-.569-1.336H85.656Zm.814-2h2.032l-1.012-2.529Zm5.324,1.324h2.42v.674H90.491V98.114h.759Zm4.224,0H98.31v.674H94.719V98.114H98.2v.666H95.478V100.4h2.559v.653H95.478Zm6.694-3.743a1.3,1.3,0,0,0-1.058-.506.953.953,0,0,0-1.058.881c0,.59.5.75,1.113.948.729.232,1.593.506,1.593,1.585a1.707,1.707,0,0,1-1.876,1.648,2.28,2.28,0,0,1-1.787-.788l.59-.5a1.48,1.48,0,0,0,1.21.636.986.986,0,0,0,1.088-.927c0-.658-.6-.843-1.286-1.05s-1.408-.527-1.408-1.526a1.656,1.656,0,0,1,1.863-1.547,2.108,2.108,0,0,1,1.555.62Zm3.815,4.418h-.843l2.352-5.425h.691l2.331,5.425h-.843l-.561-1.336h-2.576Zm.814-2h2.032l-1.012-2.529Zm8.059-2.289a1.985,1.985,0,0,0-1.471-.59,2.179,2.179,0,0,0,.021,4.35,2.735,2.735,0,0,0,1.265-.27v-1.509h-1.2v-.645h1.964v2.626a4.215,4.215,0,0,1-2.036.476,2.852,2.852,0,1,1,2.006-5Zm2.782,3.612h2.854v.674H116.9V98.114h3.478v.666h-2.719V100.4h2.559v.653h-2.559Zm7.819-.413V98.114h.759v5.425h-.957l-2.866-4.43v4.43h-.759V98.114h.986Zm4.144,1.088h-.759V98.784H127.1v-.67h4.236v.666H129.6Z" transform="translate(-15.532 -56.678)" fill="#5a5b5c"/><path d="M293.829,49.266h-.447v1.2H293.1v-1.2h-.455V49h1.189Zm1.914,1.2h-.291V49.384l-.421,1.079h-.194l-.421-1.079v1.079h-.287V49h.422l.4,1.029L295.321,49h.421Z" transform="translate(-169.286 -28.345)" fill="#d9292c"/></svg>