<svg xmlns="http://www.w3.org/2000/svg" width="123.789" height="32.016" viewBox="0 0 123.789 32.016"><path d="M33.284,14.889h1.654v5.694c0,1.934.8,3.717,4.512,3.717a23.1,23.1,0,0,0,3.46-.279V19.294s-.688.043-1.289.022c-1.1,0-1.053-.6-1.053-.988V14.889h2.493V10.012H40.59V5.564H34.96v4.448H33.306v4.878ZM7.8,19.445a2.407,2.407,0,1,1,2.407-2.407A2.421,2.421,0,0,1,7.8,19.445m0-9.906a7.484,7.484,0,1,0,0,14.955,7.484,7.484,0,1,0,0-14.955m16.8,9.906a2.407,2.407,0,1,1,2.407-2.407A2.4,2.4,0,0,1,24.6,19.445m1.612-9.906a4.992,4.992,0,0,0-3.975,1.633,4.807,4.807,0,0,0,.064-.924v-.236h-5.63V27.7H22.3V22.969a5.053,5.053,0,0,0,3.889,1.547c3.631,0,6.489-3.137,6.489-7.5.022-4.341-2.836-7.478-6.468-7.478" transform="translate(0 -2.147)"/><path d="M191.468,24.64a3.438,3.438,0,1,0,3.438,3.438,3.448,3.448,0,0,0-3.438-3.438" transform="translate(-71.117 -9.362)" fill="#0084d6"/><path d="M76.77.069a3.438,3.438,0,1,0,3.438,3.438A3.448,3.448,0,0,0,76.77.069" transform="translate(-27.736 -0.069)"/><path d="M71.708,17.595h1.655V26.77h5.63V12.717H71.708Z" transform="translate(-27.121 -4.853)"/><g transform="translate(53.612 7.628)"><path d="M32.662,8.042a1.369,1.369,0,0,1-1.418,1.5,1.326,1.326,0,0,1-1.354-1.5V.478H24.26V8.772c0,2.944,2.213,6,7,6,4.813,0,7-3.051,7.048-6V.478h-5.63V8.042ZM57.351.242a5.575,5.575,0,0,0-4.469,2.127A4.428,4.428,0,0,0,48.949.242,4.835,4.835,0,0,0,45.361,1.9a5.77,5.77,0,0,0,.107-1.16V.478h-5.63V14.531h5.63V5.936a1.856,1.856,0,0,1,1.44-.774A1.293,1.293,0,0,1,48.283,6.6v7.929h5.63V5.936a1.9,1.9,0,0,1,1.44-.774A1.293,1.293,0,0,1,56.728,6.6v7.929h5.651v-9.6c0-3.051-2.514-4.684-5.028-4.684m-39.666,0a5.575,5.575,0,0,0-4.469,2.127A4.428,4.428,0,0,0,9.283.242,4.835,4.835,0,0,0,5.7,1.9,5.771,5.771,0,0,0,5.8.736V.478H.173V14.531H5.8V5.936a1.856,1.856,0,0,1,1.44-.774A1.293,1.293,0,0,1,8.617,6.6v7.929h5.63V5.936a1.856,1.856,0,0,1,1.44-.774A1.293,1.293,0,0,1,17.062,6.6v7.929h5.63v-9.6C22.713,1.875,20.2.242,17.685.242" transform="translate(-0.173 -0.242)"/></g><g transform="translate(34.939 25.398)"><path d="M5.859,6.649c-.064,0-.172.022-.279.022a1.355,1.355,0,0,1-1.332-.709,2.031,2.031,0,0,1-1.676.731A2.273,2.273,0,0,1,.207,4.307,2.335,2.335,0,0,1,2.571,1.922a1.859,1.859,0,0,1,1.354.537V1.986h1.1v2.45a2.1,2.1,0,0,0,.043.559.684.684,0,0,0,.666.6h.107V6.649ZM3.925,4.307A1.242,1.242,0,0,0,2.657,3,1.225,1.225,0,0,0,1.411,4.307,1.237,1.237,0,0,0,2.657,5.618,1.242,1.242,0,0,0,3.925,4.307Zm7.263,2.342a1.964,1.964,0,0,1-.365.022,1.306,1.306,0,0,1-1.2-.645,2,2,0,0,1-1.44.645A1.784,1.784,0,0,1,6.31,4.651V1.965h1.2V4.586A.92.92,0,0,0,8.459,5.6.932.932,0,0,0,9.4,4.586V1.965h1.2V5.059c0,.322.15.559.6.537V6.649Zm3.008,0a1.971,1.971,0,0,1-.387.022,1.676,1.676,0,0,1-1.783-1.44,4.831,4.831,0,0,1-.064-.859V3.018h-.516V1.986h.516V.847h1.16V1.986h.988V3.018h-.988V4.2a3.279,3.279,0,0,0,.043.731A.74.74,0,0,0,14,5.6H14.2Zm3.975-.043V3.984a.953.953,0,0,0-.988-1.01.964.964,0,0,0-.988,1.01V6.606h-1.2V.246h1.2v2.17a1.735,1.735,0,0,1,1.246-.494,1.814,1.814,0,0,1,1.912,2.02V6.606Zm4.362.107a2.36,2.36,0,0,1-2.45-2.407,2.461,2.461,0,0,1,4.921,0A2.379,2.379,0,0,1,22.533,6.713Zm1.289-2.428a1.322,1.322,0,0,0-1.289-1.354,1.308,1.308,0,0,0-1.289,1.354,1.291,1.291,0,1,0,2.579,0ZM25.8,6.606V1.965h1.139v.473a1.416,1.416,0,0,1,1.1-.537,1.309,1.309,0,0,1,.881.279l-.645.945A.89.89,0,0,0,27.776,3c-.451,0-.8.3-.8.967V6.584H25.8ZM29.28.826a.688.688,0,0,1,1.375,0,.688.688,0,0,1-1.375,0Zm.086,5.78V1.965h1.2V6.606Z" transform="translate(-0.207 -0.138)"/><path d="M50.351,7.717V6.986L52.5,4.107H50.416V3.076H54.09v.688L51.92,6.707H54.2V7.739H50.351Z" transform="translate(-19.173 -1.249)"/><path d="M58.306,4.767a1.282,1.282,0,0,0,1.418.988,1.87,1.87,0,0,0,1.16-.365l.709.774a2.7,2.7,0,0,1-1.869.623,2.365,2.365,0,0,1-2.6-2.45,2.356,2.356,0,0,1,2.385-2.45,2.2,2.2,0,0,1,2.342,2.256c0,.387-.022.6-.022.6H58.306Zm2.364-.945a1.077,1.077,0,0,0-1.16-.924,1.127,1.127,0,0,0-1.16.924ZM67.718,6.7c-.064,0-.172.022-.258.022a1.249,1.249,0,0,1-1.225-.666,1.792,1.792,0,0,1-1.569.688A2.273,2.273,0,0,1,62.3,4.359a2.335,2.335,0,0,1,2.364-2.385,1.893,1.893,0,0,1,1.311.494V.319h1.139V4.961c0,.494.215.709.473.709h.129ZM66,4.359a1.242,1.242,0,0,0-1.268-1.311,1.225,1.225,0,0,0-1.246,1.311A1.237,1.237,0,0,0,64.731,5.67,1.254,1.254,0,0,0,66,4.359Zm5.372,2.3V2.017h1.139V2.49a1.417,1.417,0,0,1,1.1-.537,1.309,1.309,0,0,1,.881.279l-.645.945a.89.89,0,0,0-.494-.129c-.451,0-.8.3-.8.967V6.637H71.371Zm4.19-1.891a1.282,1.282,0,0,0,1.418.988,1.87,1.87,0,0,0,1.16-.365l.709.774a2.7,2.7,0,0,1-1.869.623,2.365,2.365,0,0,1-2.6-2.45,2.356,2.356,0,0,1,2.385-2.45,2.2,2.2,0,0,1,2.342,2.256c0,.387-.021.6-.021.6H75.561Zm2.364-.945a1.077,1.077,0,0,0-1.16-.924,1.127,1.127,0,0,0-1.16.924Zm4.6-.473a1.36,1.36,0,0,0-1.053-.494c-.408,0-.645.15-.645.408,0,.817,2.579.3,2.579,2.041,0,1.031-.881,1.5-1.891,1.5a2.829,2.829,0,0,1-2.084-.817L80.2,5.24a1.774,1.774,0,0,0,1.311.559c.473,0,.688-.172.688-.387,0-.8-2.535-.322-2.535-2.149,0-.817.688-1.4,1.783-1.4A2.236,2.236,0,0,1,83.3,2.64Zm2.514,1.418a1.282,1.282,0,0,0,1.418.988,1.87,1.87,0,0,0,1.16-.365l.709.774a2.7,2.7,0,0,1-1.87.623,2.364,2.364,0,0,1-2.6-2.45,2.356,2.356,0,0,1,2.385-2.45,2.2,2.2,0,0,1,2.342,2.256c0,.387-.021.6-.021.6H85.036Zm2.342-.945a1.077,1.077,0,0,0-1.16-.924,1.127,1.127,0,0,0-1.16.924ZM91.333,6.7a1.737,1.737,0,0,1-.344.022,1.493,1.493,0,0,1-1.5-1.01,3.613,3.613,0,0,1-.193-1.289V.276h1.181V4.445A2,2,0,0,0,90.537,5a.689.689,0,0,0,.688.6h.108Zm2.514,0a1.737,1.737,0,0,1-.344.022A1.493,1.493,0,0,1,92,5.713a3.626,3.626,0,0,1-.193-1.289V.276h1.182V4.445A2,2,0,0,0,93.051,5a.689.689,0,0,0,.688.6h.108Zm1.4-1.934a1.282,1.282,0,0,0,1.418.988,1.87,1.87,0,0,0,1.16-.365l.709.774a2.7,2.7,0,0,1-1.87.623,2.364,2.364,0,0,1-2.6-2.45,2.356,2.356,0,0,1,2.385-2.45,2.2,2.2,0,0,1,2.342,2.256c0,.387-.021.6-.021.6H95.243Zm2.364-.945a1.078,1.078,0,0,0-1.16-.924,1.127,1.127,0,0,0-1.161.924Zm1.977,2.836V2.017h1.139V2.49a1.416,1.416,0,0,1,1.1-.537,1.309,1.309,0,0,1,.881.279l-.645.945a.89.89,0,0,0-.494-.129c-.451,0-.795.3-.795.967V6.637H99.584Z" transform="translate(-21.735 -0.191)"/></g></svg>