<svg xmlns="http://www.w3.org/2000/svg" xmlns:xlink="http://www.w3.org/1999/xlink" width="126.455" height="56.772" viewBox="0 0 126.455 56.772"><defs><linearGradient id="a" y1="0.002" x2="1" y2="0.998" gradientUnits="objectBoundingBox"><stop offset="0" stop-color="#00abf7"/><stop offset="0.12" stop-color="#00abf7"/><stop offset="0.88" stop-color="#01d258"/><stop offset="1" stop-color="#01d258"/></linearGradient></defs><path d="M8.89,112.617H7.65l-.842-1.979H2.053l-.827,1.979H0l4.238-9.909h.413ZM2.481,109.6h3.9l-1.934-4.77Zm13.785.148a3.3,3.3,0,0,1-.229,1.255,2.723,2.723,0,0,1-1.573,1.558,3.288,3.288,0,0,1-2.333,0,2.861,2.861,0,0,1-.952-.605,2.741,2.741,0,0,1-.635-.953,3.3,3.3,0,0,1-.229-1.255v-4.327h1.122v4.4a2.053,2.053,0,0,0,.148.8,1.722,1.722,0,0,0,.989.975,1.969,1.969,0,0,0,.724.133,1.91,1.91,0,0,0,.716-.133,1.775,1.775,0,0,0,.583-.377,1.676,1.676,0,0,0,.391-.6,2.148,2.148,0,0,0,.14-.8v-4.4h1.137Zm6.136-3.308H20.158v3.928a1.732,1.732,0,0,0,.111.665,1.014,1.014,0,0,0,.31.421,1.242,1.242,0,0,0,.473.222,2.593,2.593,0,0,0,.613.066c.148,0,.3-.007.45-.022s.323-.037.509-.066v.96a5.54,5.54,0,0,1-.561.118,4,4,0,0,1-.62.045,2.668,2.668,0,0,1-1.743-.554,2.165,2.165,0,0,1-.679-1.779v-4H17.81v-1.019h1.211v-1.964h1.137v1.964H22.4v1.019Zm3.109-.206a2.438,2.438,0,0,1,.9-.717,3.188,3.188,0,0,1,2.385-.052,2.3,2.3,0,0,1,.834.584,2.541,2.541,0,0,1,.517.9,3.549,3.549,0,0,1,.178,1.145v4.519H29.188v-4.371a2.039,2.039,0,0,0-.473-1.4,1.657,1.657,0,0,0-1.314-.539,1.919,1.919,0,0,0-.761.148,1.874,1.874,0,0,0-.6.4,1.747,1.747,0,0,0-.391.613,2.126,2.126,0,0,0-.14.775v4.371H24.374V101.541h1.137v4.7Zm10.507-.975a3.743,3.743,0,0,1,2.651,1.085,3.815,3.815,0,0,1,.8,1.189,3.819,3.819,0,0,1,0,2.946,3.792,3.792,0,0,1-.8,1.2,3.692,3.692,0,0,1-1.2.8,3.76,3.76,0,0,1-1.469.288,3.635,3.635,0,0,1-1.462-.3,3.88,3.88,0,0,1-1.189-.8,3.727,3.727,0,0,1-.8-1.181,3.657,3.657,0,0,1-.3-1.477,3.711,3.711,0,0,1,1.086-2.665,3.692,3.692,0,0,1,1.2-.8A3.809,3.809,0,0,1,36.018,105.263Zm0,1.048a2.615,2.615,0,0,0-1.041.206,2.453,2.453,0,0,0-.827.576,2.642,2.642,0,0,0-.539.864,2.934,2.934,0,0,0-.192,1.07,2.881,2.881,0,0,0,.192,1.064A2.525,2.525,0,0,0,36,111.716a2.56,2.56,0,0,0,1.034-.206,2.526,2.526,0,0,0,.82-.569,2.658,2.658,0,0,0,.547-.857,2.8,2.8,0,0,0,.2-1.056,2.9,2.9,0,0,0-.2-1.078,2.7,2.7,0,0,0-.539-.864,2.424,2.424,0,0,0-.82-.569A2.567,2.567,0,0,0,36.018,106.311Zm9.1-.945a2.456,2.456,0,0,1,.3.015,1.481,1.481,0,0,1,.222.044v1h-.414a2.586,2.586,0,0,0-.849.14,2.271,2.271,0,0,0-.724.406,1.99,1.99,0,0,0-.509.657,2.041,2.041,0,0,0-.192.909v4.076H41.815v-7.192h1.063v1.034a2.634,2.634,0,0,1,.99-.812,2.889,2.889,0,0,1,1.255-.281Zm3.212,7.251H47.2v-7.192h1.137Zm-.561-10.766a.821.821,0,0,1,.591.244.812.812,0,0,1,0,1.174.834.834,0,0,1-.591.236.852.852,0,0,1-.605-.236.812.812,0,0,1,0-1.174A.838.838,0,0,1,47.773,101.851Zm8.1,3.913-4.135,5.848h4.179v1H50.011v-.339l4.091-5.834H50.35v-1.019h5.523v.339Zm4.9-.5a3.435,3.435,0,0,1,1.277.237,3.127,3.127,0,0,1,1.041.665,3.051,3.051,0,0,1,.694,1.026,3.386,3.386,0,0,1,.251,1.322,4.126,4.126,0,0,1-.03.524,2.487,2.487,0,0,1-.059.332H58.273a2.912,2.912,0,0,0,.274.982,2.374,2.374,0,0,0,1.366,1.219,2.941,2.941,0,0,0,.989.162,2.709,2.709,0,0,0,1.226-.266,3.74,3.74,0,0,0,.974-.709l.665.768a3.984,3.984,0,0,1-1.263.916,3.788,3.788,0,0,1-1.617.339,3.894,3.894,0,0,1-1.506-.288,3.672,3.672,0,0,1-1.2-.8,3.711,3.711,0,0,1-1.085-2.666,3.847,3.847,0,0,1,.28-1.469,3.653,3.653,0,0,1,.783-1.2,3.774,3.774,0,0,1,1.166-.8,3.524,3.524,0,0,1,1.447-.3Zm-.03,1.034a2.506,2.506,0,0,0-.864.148,2.308,2.308,0,0,0-.723.421,2.4,2.4,0,0,0-.532.657,2.813,2.813,0,0,0-.3.842h4.548a2.094,2.094,0,0,0-.177-.886,2.03,2.03,0,0,0-.465-.65,1.89,1.89,0,0,0-.672-.4A2.467,2.467,0,0,0,60.739,106.3ZM72.9,112.617H71.837v-1.152a2.9,2.9,0,0,1-1.145.967,3.557,3.557,0,0,1-1.573.347,3.5,3.5,0,0,1-1.432-.288,3.382,3.382,0,0,1-1.122-.8,3.725,3.725,0,0,1-.739-1.189,4.021,4.021,0,0,1-.266-1.477,4.081,4.081,0,0,1,.266-1.484,3.645,3.645,0,0,1,.746-1.2,3.441,3.441,0,0,1,2.547-1.085,3.5,3.5,0,0,1,1.514.332,2.963,2.963,0,0,1,1.13.909v-4.962H72.9v11.076Zm-3.618-6.306a2.545,2.545,0,0,0-1.012.2,2.452,2.452,0,0,0-.812.561,2.559,2.559,0,0,0-.539.856,3.165,3.165,0,0,0,0,2.171,2.617,2.617,0,0,0,.532.856,2.469,2.469,0,0,0,.8.569,2.5,2.5,0,0,0,1.027.207,2.768,2.768,0,0,0,.908-.155,2.224,2.224,0,0,0,.8-.487,2.416,2.416,0,0,0,.569-.842,3.568,3.568,0,0,0,0-2.436,2.409,2.409,0,0,0-.569-.842,2.313,2.313,0,0,0-.8-.495A2.661,2.661,0,0,0,69.282,106.311Zm13.646-.945a2.443,2.443,0,0,1,.3.015,1.469,1.469,0,0,1,.222.044v1h-.413a2.586,2.586,0,0,0-.849.14,2.271,2.271,0,0,0-.724.406,1.99,1.99,0,0,0-.509.657,2.036,2.036,0,0,0-.192.909v4.076H79.62v-7.192h1.063v1.034a2.634,2.634,0,0,1,.99-.812A2.889,2.889,0,0,1,82.928,105.366Zm5.087-.1a3.439,3.439,0,0,1,1.278.236,3.126,3.126,0,0,1,1.041.665,3.051,3.051,0,0,1,.694,1.026,3.386,3.386,0,0,1,.251,1.322,4.131,4.131,0,0,1-.03.524,2.489,2.489,0,0,1-.059.332H85.519a2.912,2.912,0,0,0,.274.982,2.377,2.377,0,0,0,1.366,1.219,2.941,2.941,0,0,0,.989.162,2.709,2.709,0,0,0,1.226-.266,3.74,3.74,0,0,0,.974-.709l.665.768a3.983,3.983,0,0,1-1.262.916,3.793,3.793,0,0,1-1.617.339,3.894,3.894,0,0,1-1.506-.288,3.672,3.672,0,0,1-1.2-.8,3.711,3.711,0,0,1-1.085-2.666,3.839,3.839,0,0,1,.281-1.469,3.654,3.654,0,0,1,.782-1.2,3.774,3.774,0,0,1,1.167-.8,3.522,3.522,0,0,1,1.447-.3Zm-.03,1.034a2.5,2.5,0,0,0-.864.148,2.308,2.308,0,0,0-.724.421,2.4,2.4,0,0,0-.532.657,2.814,2.814,0,0,0-.3.842h4.548a2.087,2.087,0,0,0-.177-.886,2.029,2.029,0,0,0-.465-.65,1.89,1.89,0,0,0-.672-.4,2.465,2.465,0,0,0-.812-.133Zm9.03.148H94.771v3.928a1.731,1.731,0,0,0,.111.664,1.014,1.014,0,0,0,.31.421,1.242,1.242,0,0,0,.473.222,2.594,2.594,0,0,0,.613.066c.148,0,.3-.007.45-.022s.323-.037.509-.066v.96a5.549,5.549,0,0,1-.561.118,3.991,3.991,0,0,1-.62.045,2.667,2.667,0,0,1-1.743-.554,2.165,2.165,0,0,1-.679-1.779v-4H92.423v-1.019h1.211v-1.964h1.137v1.964h2.244v1.019Zm4.541-1.182a3.366,3.366,0,0,1,1.137.184,2.422,2.422,0,0,1,.893.554,2.5,2.5,0,0,1,.583.916,3.583,3.583,0,0,1,.207,1.27v4.43H103.3V111.7a2.528,2.528,0,0,1-1,.8,3.356,3.356,0,0,1-1.41.28,3.49,3.49,0,0,1-1.012-.14,2.424,2.424,0,0,1-.8-.4,1.8,1.8,0,0,1-.517-.635,1.9,1.9,0,0,1-.184-.849,1.758,1.758,0,0,1,.7-1.462,2.982,2.982,0,0,1,1.883-.547h2.274v-.62a1.8,1.8,0,0,0-.473-1.366,1.784,1.784,0,0,0-1.285-.45,2.176,2.176,0,0,0-1.159.3,3.527,3.527,0,0,0-.923.849l-.768-.621a3.159,3.159,0,0,1,1.285-1.2,3.674,3.674,0,0,1,1.639-.377Zm-.532,6.572a2.459,2.459,0,0,0,.849-.148,2.2,2.2,0,0,0,.709-.413,1.992,1.992,0,0,0,.48-.628,1.772,1.772,0,0,0,.177-.79v-.178h-2.156q-1.536,0-1.536,1.019a.945.945,0,0,0,.443.856A1.891,1.891,0,0,0,101.025,111.835Zm6.934.783h-1.137v-7.192h1.137Zm-.561-10.766a.819.819,0,0,1,.591.244.812.812,0,0,1,0,1.174.834.834,0,0,1-.591.236.852.852,0,0,1-.605-.236.812.812,0,0,1,0-1.174A.838.838,0,0,1,107.4,101.851Zm4.231,10.766h-1.137V101.541h1.137v11.076Zm5.693-7.354a3.439,3.439,0,0,1,1.278.236,3.128,3.128,0,0,1,1.041.665,3.051,3.051,0,0,1,.694,1.026,3.386,3.386,0,0,1,.251,1.322,4.214,4.214,0,0,1-.03.524,2.489,2.489,0,0,1-.059.332h-5.671a2.912,2.912,0,0,0,.273.982,2.378,2.378,0,0,0,1.366,1.219,2.943,2.943,0,0,0,.99.162,2.706,2.706,0,0,0,1.226-.266,3.74,3.74,0,0,0,.975-.709l.665.768a3.984,3.984,0,0,1-1.263.916,3.791,3.791,0,0,1-1.617.339,3.9,3.9,0,0,1-1.507-.288,3.671,3.671,0,0,1-1.2-.8,3.708,3.708,0,0,1-1.086-2.666,3.847,3.847,0,0,1,.281-1.469,3.654,3.654,0,0,1,.782-1.2,3.774,3.774,0,0,1,1.167-.8,3.524,3.524,0,0,1,1.447-.3Zm-.03,1.034a2.5,2.5,0,0,0-.864.148,2.308,2.308,0,0,0-.724.421,2.4,2.4,0,0,0-.531.657,2.813,2.813,0,0,0-.3.842h4.548a2.094,2.094,0,0,0-.177-.886,2.03,2.03,0,0,0-.465-.65,1.889,1.889,0,0,0-.672-.4,2.466,2.466,0,0,0-.813-.133Zm8.646-.93a2.451,2.451,0,0,1,.3.015,1.469,1.469,0,0,1,.222.044v1h-.413a2.589,2.589,0,0,0-.849.14,2.271,2.271,0,0,0-.723.406,1.99,1.99,0,0,0-.51.657,2.041,2.041,0,0,0-.192.909v4.076h-1.137v-7.192h1.063v1.034a2.634,2.634,0,0,1,.99-.812,2.889,2.889,0,0,1,1.256-.281Z" transform="translate(0 -56.008)" fill="#01aaf4"/><path d="M205.393,17.089l8.787-9.938a3.441,3.441,0,1,0-5.156-4.559l-8.226,9.3-8.224-9.3a3.442,3.442,0,1,0-5.157,4.559l8.787,9.938-8.787,9.938a3.442,3.442,0,1,0,5.158,4.559l8.224-9.3,8.225,9.3a3.441,3.441,0,1,0,5.156-4.559l-8.787-9.938Z" transform="translate(-102.899 -0.788)" fill="#00d258"/><path d="M108.072,16.3a9.416,9.416,0,1,1,9.416,9.416A9.416,9.416,0,0,1,108.072,16.3Zm3.25,15.061A16.282,16.282,0,1,0,101.192,16.3,16.3,16.3,0,0,0,111.322,31.357Z" transform="translate(-55.815 0)" fill="url(#a)"/><path d="M46.837,32.6A16.3,16.3,0,1,1,55.125,2.269a3.441,3.441,0,0,1-3.5,5.924,9.415,9.415,0,1,0,0,16.223,3.442,3.442,0,1,1,3.5,5.925A16.289,16.289,0,0,1,46.837,32.6" transform="translate(-16.845 -0.003)" fill="#01aaf4"/></svg>