<svg xmlns="http://www.w3.org/2000/svg" width="284" height="39.667" viewBox="0 0 284 39.667"><g transform="translate(-71.017 -308.889)"><g transform="translate(71.017 308.889)"><g transform="translate(0 19.665)"><path d="M76.142,366.574a9.582,9.582,0,0,1-3.757-3.564,10.39,10.39,0,0,1,0-10.305,9.589,9.589,0,0,1,3.757-3.564,11.158,11.158,0,0,1,5.373-1.284,11.279,11.279,0,0,1,4.545.884,9.1,9.1,0,0,1,3.412,2.542L86.6,353.934a6.182,6.182,0,0,0-4.863-2.265,6.463,6.463,0,0,0-3.2.787,5.607,5.607,0,0,0-2.2,2.2,6.92,6.92,0,0,0,0,6.409,5.593,5.593,0,0,0,2.2,2.2,6.453,6.453,0,0,0,3.2.788,6.15,6.15,0,0,0,4.863-2.293l2.873,2.652a8.958,8.958,0,0,1-3.426,2.57,11.4,11.4,0,0,1-4.558.884A11.1,11.1,0,0,1,76.142,366.574Z" transform="translate(-71.017 -347.857)" fill="#fff"/><path d="M123.774,363.708h-8.979l-1.713,4.145H108.5l8.62-19.339h4.421l8.648,19.339h-4.7Zm-1.408-3.4-3.067-7.4-3.067,7.4Z" transform="translate(-89.583 -348.182)" fill="#fff"/><path d="M171.884,359.55a4.837,4.837,0,0,1,.94,3.026,4.472,4.472,0,0,1-1.975,3.909,10.1,10.1,0,0,1-5.76,1.368h-10V348.514h9.449a9.252,9.252,0,0,1,5.429,1.354,4.286,4.286,0,0,1,1.892,3.674,4.642,4.642,0,0,1-2.57,4.255A5.1,5.1,0,0,1,171.884,359.55Zm-12.349-7.666v4.558h4.448a4.486,4.486,0,0,0,2.515-.58,1.936,1.936,0,0,0,.857-1.713,1.9,1.9,0,0,0-.857-1.7,4.576,4.576,0,0,0-2.515-.567Zm7.887,12.018a1.988,1.988,0,0,0,.9-1.8q0-2.4-3.564-2.4h-5.221v4.779h5.221A4.963,4.963,0,0,0,167.422,363.9Z" transform="translate(-112.662 -348.182)" fill="#fff"/><path d="M193.848,348.514h4.475v15.692h9.7v3.648H193.848Z" transform="translate(-131.863 -348.182)" fill="#fff"/><path d="M240.52,364.262v3.591H225.546V348.514h14.615v3.591H229.994v4.2h8.979v3.481h-8.979v4.476Z" transform="translate(-147.566 -348.182)" fill="#fff"/><path d="M258.833,348.514h4.475v19.339h-4.475Z" transform="translate(-164.055 -348.182)" fill="#fff"/><path d="M289.051,348.514v19.339h-3.674l-9.642-11.742v11.742h-4.421V348.514h3.7l9.614,11.741V348.514Z" transform="translate(-170.238 -348.182)" fill="#fff"/><path d="M316.318,352.16H310.13v-3.646h16.853v3.646h-6.188v15.693h-4.476Z" transform="translate(-189.466 -348.182)" fill="#fff"/><path d="M362.167,364.262v3.591H347.193V348.514h14.615v3.591H351.641v4.2h8.979v3.481h-8.979v4.476Z" transform="translate(-207.825 -348.182)" fill="#fff"/><path d="M391.928,367.853l-3.729-5.387h-4.117v5.387h-4.475V348.514h8.371a10.746,10.746,0,0,1,4.461.856,6.635,6.635,0,0,1,2.915,2.431,6.7,6.7,0,0,1,1.022,3.73,6.3,6.3,0,0,1-3.978,6.105l4.337,6.217ZM390.8,353.03a4.709,4.709,0,0,0-3.067-.87h-3.647V358.9h3.647a4.654,4.654,0,0,0,3.067-.884,3.487,3.487,0,0,0,0-4.987Z" transform="translate(-223.882 -348.182)" fill="#fff"/><path d="M434.078,348.514v19.339H430.4l-9.642-11.742v11.742h-4.421V348.514h3.7l9.614,11.741V348.514Z" transform="translate(-242.079 -348.182)" fill="#fff"/><path d="M470.077,364.262v3.591H455.1V348.514h14.615v3.591H459.551v4.2h8.978v3.481h-8.978v4.476Z" transform="translate(-261.28 -348.182)" fill="#fff"/><path d="M493.861,352.16h-6.188v-3.646h16.852v3.646h-6.188v15.693h-4.476Z" transform="translate(-277.415 -348.182)" fill="#fff"/></g><g transform="translate(97.793 30.459)"><path d="M268.7,373.318h-2.89l-1.007,2.2v4.843h4.9v-4.843Z" transform="translate(-264.806 -371.264)" fill="#011e41"/><g transform="translate(0.901 6.836)"><rect width="0.517" height="2.093" transform="translate(2.586)" fill="#fff"/><rect width="0.517" height="2.093" transform="translate(1.724)" fill="#fff"/><rect width="0.517" height="2.093" transform="translate(0.862)" fill="#fff"/><rect width="0.517" height="2.093" fill="#fff"/></g><g transform="translate(0.918)"><rect width="3.068" height="0.513" transform="translate(0 1.027)" fill="#fff"/><rect width="3.068" height="0.513" fill="#fff"/></g></g><g transform="translate(94.876 13.245)"><circle cx="2.26" cy="2.26" r="2.26" fill="#be1622"/></g><g transform="translate(98.252)"><path d="M275.917,323.146h3.716c-.824-9.077-7.584-13.118-13.916-14.257v3.856C269.555,313.778,274.746,315.732,275.917,323.146Z" transform="translate(-265.716 -308.889)" fill="#be1622"/><g transform="translate(0 7.235)"><path d="M269.433,330.248h3.857a8.892,8.892,0,0,0-7.574-7.021v3.745A4.563,4.563,0,0,1,269.433,330.248Z" transform="translate(-265.716 -323.227)" fill="#be1622"/></g></g><rect width="4.853" height="1.364" transform="translate(145.177 26.947) rotate(90)" fill="#011e41"/><rect width="4.853" height="1.364" transform="translate(83.78 26.947) rotate(90)" fill="#011e41"/><rect width="4.853" height="1.364" transform="translate(199.618 26.947) rotate(90)" fill="#011e41"/></g><path d="M562.874,349.256v18.754h33.855l-8.274-18.754Z" transform="translate(-243.65 -19.997)" fill="#fff"/><g transform="translate(301.603 329.26)"><path d="M540.356,349.256v10.235c0,3-1.182,4.5-3.538,4.5a3.751,3.751,0,0,1-1.759-.38c-1.2-.612-1.8-1.991-1.8-4.122V349.256h-5.3v10.4a8.61,8.61,0,0,0,2.314,6.451,8.076,8.076,0,0,0,4.791,2.174,13.193,13.193,0,0,0,1.7.105,8.873,8.873,0,0,0,6.5-2.279,8.612,8.612,0,0,0,2.314-6.451v-10.4Z" transform="translate(-527.954 -349.256)" fill="#fff"/></g><path d="M559.107,359.365c-4.534,0-4.527-7.035,0-7.035a4.049,4.049,0,0,1,.464.028v-3.1h-12.24v10.235c0,3-1.182,4.5-3.538,4.5a3.751,3.751,0,0,1-1.759-.38v3.825a.944.944,0,0,0,.944.945h16.593l4.087-6.711C563.509,361.69,559.268,359.365,559.107,359.365Z" transform="translate(-233.326 -19.996)" fill="#fff"/><path d="M562.909,367.617A10.958,10.958,0,0,1,559.4,366.1l1.756-3.945a11.345,11.345,0,0,0,2.946,1.351,11.21,11.21,0,0,0,3.3.514q3.08,0,3.08-1.541a1.276,1.276,0,0,0-.878-1.2,16.228,16.228,0,0,0-2.824-.825,26.875,26.875,0,0,1-3.566-.986,6.007,6.007,0,0,1-2.459-1.689,4.559,4.559,0,0,1-1.027-3.134,5.423,5.423,0,0,1,.946-3.121,6.327,6.327,0,0,1,2.823-2.2,11.619,11.619,0,0,1,4.607-.811,16.259,16.259,0,0,1,3.675.419,11.287,11.287,0,0,1,3.189,1.229l-1.649,3.972a11.008,11.008,0,0,0-5.242-1.459,4.4,4.4,0,0,0-2.324.473,1.418,1.418,0,0,0-.73,1.23,1.219,1.219,0,0,0,.865,1.134,15.65,15.65,0,0,0,2.783.784,26.1,26.1,0,0,1,3.58.986,6.181,6.181,0,0,1,2.459,1.675,4.472,4.472,0,0,1,1.04,3.121,5.326,5.326,0,0,1-.945,3.081,6.452,6.452,0,0,1-2.838,2.2,11.474,11.474,0,0,1-4.594.824A17.493,17.493,0,0,1,562.909,367.617Z" transform="translate(-241.927 -19.629)" fill="#be1622"/><path d="M604.048,348.79h-5.227l-8.234,18.99H596l1.47-3.644H605.4l1.47,3.644h5.522Zm-5.026,11.434,2.413-6,2.413,6Z" transform="translate(-257.378 -19.766)" fill="#be1622"/><g transform="translate(303.174 330.966)"><path d="M532.292,361.825l.289.889h.935l-.756.55.289.889-.756-.55-.756.55.289-.889-.756-.55H532Z" transform="translate(-531.068 -357.189)" fill="#011e41"/><path d="M532.292,352.638l.289.889h.935l-.756.55.289.889-.756-.55-.756.55.289-.889-.756-.55H532Z" transform="translate(-531.068 -352.638)" fill="#011e41"/><path d="M532.292,371.011l.289.889h.935l-.756.55.289.889-.756-.55-.756.55.289-.889-.756-.55H532Z" transform="translate(-531.068 -361.74)" fill="#011e41"/></g></g></svg>