<svg xmlns="http://www.w3.org/2000/svg" width="126.456" height="40.665" viewBox="0 0 126.456 40.665"><path d="M0,14.285H3.959c.059.071.094.09.1.122a3.452,3.452,0,0,0,3.358,3.059,6.959,6.959,0,0,0,3.22-.24,2.18,2.18,0,0,0,1.571-1.964A1.946,1.946,0,0,0,10.992,13.3a15.06,15.06,0,0,0-4.08-1.331c-1.072-.255-2.14-.534-3.189-.864a4.572,4.572,0,0,1-3.338-4C.035,4.66.7,2.516,2.788,1.188A7.619,7.619,0,0,1,5.891.144,12.567,12.567,0,0,1,11.1.4a5.91,5.91,0,0,1,4.355,5.871h-3.8A3.123,3.123,0,0,0,8.514,3.438a8.86,8.86,0,0,0-2.443.137A2.513,2.513,0,0,0,4.8,4.361a1.787,1.787,0,0,0,.456,2.894A8.7,8.7,0,0,0,7.1,7.99c1.681.495,3.381.915,5.058,1.414,2.56.762,3.907,2.321,4.029,4.591.165,3.016-1.084,5.2-3.585,6.228a12.658,12.658,0,0,1-6.209.644A7.512,7.512,0,0,1,2.333,19.3a6.138,6.138,0,0,1-2.211-3.88C.09,15.251.039,15.086,0,14.913ZM105.073,6.2a10.253,10.253,0,0,1,9.68-.35,8.4,8.4,0,0,1,1.217.821,2.034,2.034,0,0,1,.785,1.724c-.039,3.841,0,7.685,0,11.53v.652c-.891,0-1.732.063-2.564,0a1.841,1.841,0,0,1-1.7-1.987V10.9a3.275,3.275,0,0,0-.157-1.241,2.6,2.6,0,0,0-.84-1.155,3.142,3.142,0,0,0-3.212-.13,2.446,2.446,0,0,0-1.265,2.427v9.763h-4.025V10.707a2.414,2.414,0,0,0-2.721-2.67,2.473,2.473,0,0,0-2.67,2.7v9.818H93.539c0-.169-.024-.338-.024-.5,0-2.914-.02-5.824,0-8.738A6.194,6.194,0,0,1,95.373,6.4a6.805,6.805,0,0,1,4.618-1.6,7.268,7.268,0,0,1,5.082,1.4ZM20.978,19.736c0,1.473-.059,2.91,0,4.343a2.048,2.048,0,0,1-2.317,2.313c-.518-.051-1.045,0-1.594,0,0-.22-.027-.393-.027-.562,0-4.595-.035-9.193.024-13.788A11.926,11.926,0,0,1,17.629,8.8a4.991,4.991,0,0,1,3.016-3.244,9.425,9.425,0,0,1,5.82-.53,6.014,6.014,0,0,1,4.748,4.548,11.718,11.718,0,0,1-.188,7.081,5.848,5.848,0,0,1-4.39,4.19,7.069,7.069,0,0,1-5.105-.872c-.122-.071-.24-.149-.361-.216A.785.785,0,0,0,20.978,19.736Zm6.641-6.817a9.527,9.527,0,0,0-.554-2.859,2.782,2.782,0,0,0-2.886-1.771A2.674,2.674,0,0,0,21.5,10.2a10.69,10.69,0,0,0-.491,2.749,5.305,5.305,0,0,0,.652,3.04,3,3,0,0,0,2.851,1.539,2.749,2.749,0,0,0,2.537-1.665A6.511,6.511,0,0,0,27.619,12.918Zm18.9,2.922a6.07,6.07,0,0,1-3.534,4.32,8.106,8.106,0,0,1-6.067.251,5.965,5.965,0,0,1-3.856-4.151,11.675,11.675,0,0,1-.118-6.452,6.2,6.2,0,0,1,5.973-4.944,7.784,7.784,0,0,1,4.677.954c2,1.2,2.749,3.142,3.051,5.317.122.88.118,1.775.173,2.749h-10a3.024,3.024,0,0,0,2.6,3.593c1.433.134,2.8.075,3.566-1.457a.452.452,0,0,1,.346-.161c1.045-.024,2.062-.02,3.185-.02Zm-3.927-4.555A3.082,3.082,0,0,0,41.2,8.536a2.981,2.981,0,0,0-3.244.137,3.086,3.086,0,0,0-1.249,2.6ZM92.318,5.17a2.44,2.44,0,0,1,.047.314c0,3.279.043,6.562-.039,9.841a5.321,5.321,0,0,1-4.771,5.353,9.936,9.936,0,0,1-4.736-.267,5.166,5.166,0,0,1-3.79-4.98c-.145-3.4-.035-6.8-.035-10.246q.2-.031.393-.043h3.106c.393,0,.5.13.5.511v9.209a2.513,2.513,0,0,0,1.178,2.431,2.969,2.969,0,0,0,2.973.024,2.434,2.434,0,0,0,1.241-2.337V7.456a3.605,3.605,0,0,1,.181-1.08,1.622,1.622,0,0,1,1.5-1.2c.73-.039,1.469,0,2.25,0ZM61.455,9.851H57.724a.55.55,0,0,1-.369-.271A2.736,2.736,0,0,0,54.661,8.2a2.612,2.612,0,0,0-2.454,1.516,6.523,6.523,0,0,0-.554,3.794,8.345,8.345,0,0,0,.6,2.423,3.334,3.334,0,0,0,4.8,1.025,1.547,1.547,0,0,0,.495-.6c.169-.459.471-.518.9-.507,1.029.027,2.062,0,3.169,0A6.633,6.633,0,0,1,59.692,19.1a7.13,7.13,0,0,1-6.232,1.645,6.454,6.454,0,0,1-5.647-5.855,12.959,12.959,0,0,1,.334-5.478A5.838,5.838,0,0,1,52.98,5a7.608,7.608,0,0,1,6.2,1.178,6.207,6.207,0,0,1,2.27,3.676ZM62.574.689c.836,0,1.61-.035,2.376,0A1.714,1.714,0,0,1,66.521,2.48c.031.7,0,1.4,0,2.1v.636h2.388V6.4c0,.785-.035,1.547,0,2.317.031.511-.161.628-.628.6-.573-.035-1.151,0-1.775,0V20.462a20.312,20.312,0,0,1-2.356,0A1.745,1.745,0,0,1,62.676,19a4.493,4.493,0,0,1-.161-1.088V1.121a1.573,1.573,0,0,0,.059-.432ZM77.78,5.076V9.207l-.5.024c-.42,0-.844,0-1.261.035a2.774,2.774,0,0,0-2.851,3.142v8.066H69.117c0-.192-.024-.393-.024-.562,0-2.333-.055-4.669.024-7a11.923,11.923,0,0,1,.538-3.3c.836-2.537,2.808-3.8,5.341-4.265C75.895,5.2,76.81,5.17,77.78,5.076Z" transform="translate(0 0.016)" fill="#143257"/><path d="M300.37,20.02V32.767l8.5-6.374Z" transform="translate(-182.412 -12.152)" fill="#0f99d6"/><path d="M160.3,65.416h1.433l2.144,6.063H162.5l-.393-1.245h-2.231l-.393,1.245H158.16Zm-.082,3.77h1.571l-.766-2.384Zm4.43-3.77h1.288v3.723a2.117,2.117,0,0,0,.149.911,1.233,1.233,0,0,0,1.995,0,2.117,2.117,0,0,0,.149-.911V65.416h1.288v3.727a3.142,3.142,0,0,1-.3,1.492,2.8,2.8,0,0,1-4.269,0,3.142,3.142,0,0,1-.3-1.5Zm10.489,0v1.072h-1.814v4.987h-1.276V66.488H170.22V65.416Zm.73,6.063V65.416h1.257v2.313h2.356V65.416h1.257V71.48h-1.257V68.77H177.12v2.706Zm10.76-.542a3.142,3.142,0,0,1-3.974,0,3.271,3.271,0,0,1-.923-2.5,3.207,3.207,0,0,1,.923-2.5,3.142,3.142,0,0,1,3.974,0,3.205,3.205,0,0,1,.927,2.505A3.279,3.279,0,0,1,186.624,70.938Zm-.785-.923a3,3,0,0,0,0-3.142,1.445,1.445,0,0,0-1.178-.558,1.465,1.465,0,0,0-1.2.554,2.98,2.98,0,0,0,0,3.142,1.465,1.465,0,0,0,1.2.554,1.445,1.445,0,0,0,1.17-.546Zm6.554-4.442a1.5,1.5,0,0,1,.566.424,1.869,1.869,0,0,1,.306.511,1.7,1.7,0,0,1,.114.636,1.814,1.814,0,0,1-.22.848,1.217,1.217,0,0,1-.719.589,1.131,1.131,0,0,1,.609.483,2,2,0,0,1,.177.946V70.4a3.031,3.031,0,0,0,.035.562.507.507,0,0,0,.236.346v.153h-1.4q-.059-.2-.082-.326a2.984,2.984,0,0,1-.055-.522v-.562a1.147,1.147,0,0,0-.2-.785,1.025,1.025,0,0,0-.723-.192H189.8v2.376h-1.237V65.416h2.9a2.643,2.643,0,0,1,.931.157Zm-2.619.9V68.1h1.363a1.453,1.453,0,0,0,.609-.1.683.683,0,0,0,.357-.683.786.786,0,0,0-.346-.742,1.257,1.257,0,0,0-.585-.106Zm5.969,5.011h-1.257V65.416h1.257Zm.758-1.072,3.1-3.927h-3.016V65.416h4.595v1.017l-3.142,3.978h3.142V71.48H196.5Zm10.057-3.919h-3.208v1.288h2.945v1.052h-2.945V70.4h3.358v1.092h-4.595V65.416h4.445Zm4.685-.958a2,2,0,0,1,1.049.785,2.686,2.686,0,0,1,.432.978,4.713,4.713,0,0,1,.114,1.005,4.021,4.021,0,0,1-.487,2.05,2.191,2.191,0,0,1-2.034,1.131H207.7V65.416h2.615A3.189,3.189,0,0,1,211.242,65.53Zm-2.321.923v3.97H210.1a1.264,1.264,0,0,0,1.253-.884,3.117,3.117,0,0,0,.192-1.155,2.835,2.835,0,0,0-.291-1.422,1.227,1.227,0,0,0-1.155-.495Zm-36.027,7.764a1.5,1.5,0,0,1,.569.424,1.884,1.884,0,0,1,.306.511,1.7,1.7,0,0,1,.114.636,1.815,1.815,0,0,1-.22.848,1.217,1.217,0,0,1-.719.589,1.131,1.131,0,0,1,.593.479,2,2,0,0,1,.177.946v.393a3.031,3.031,0,0,0,.035.562.5.5,0,0,0,.236.346V80.1h-1.4q-.059-.2-.083-.326a2.987,2.987,0,0,1-.055-.522v-.562a1.143,1.143,0,0,0-.2-.785,1.021,1.021,0,0,0-.723-.192h-1.257v2.376h-1.237V74.06h2.9a2.639,2.639,0,0,1,.962.157Zm-2.623.9v1.63h1.363a1.453,1.453,0,0,0,.6-.1.683.683,0,0,0,.357-.683.785.785,0,0,0-.346-.742,1.256,1.256,0,0,0-.585-.106Zm9.307.024H176.37v1.288H179.3v1.052h-2.945v1.571h3.358v1.092h-4.595V74.06h4.457Zm2.046,3.114a1.233,1.233,0,0,0,.232.62,1.343,1.343,0,0,0,1.08.393,2.324,2.324,0,0,0,.742-.1.707.707,0,0,0,.542-.7.518.518,0,0,0-.267-.463,2.883,2.883,0,0,0-.84-.295l-.668-.153a4.085,4.085,0,0,1-1.331-.463,1.477,1.477,0,0,1-.613-1.312,1.74,1.74,0,0,1,.6-1.355,2.557,2.557,0,0,1,1.759-.538,2.7,2.7,0,0,1,1.653.507,1.806,1.806,0,0,1,.719,1.473h-1.217a.868.868,0,0,0-.491-.785,1.673,1.673,0,0,0-.754-.153,1.433,1.433,0,0,0-.785.2.624.624,0,0,0-.3.55.518.518,0,0,0,.295.487,3.658,3.658,0,0,0,.805.251l1.064.251a2.7,2.7,0,0,1,1.048.44,1.484,1.484,0,0,1,.542,1.237,1.74,1.74,0,0,1-.644,1.378,2.71,2.71,0,0,1-1.814.55,2.965,2.965,0,0,1-1.881-.542,1.787,1.787,0,0,1-.687-1.488Zm9.189-3.114h-3.208v1.288h2.945v1.052h-2.945v1.571h3.358v1.092h-4.591V74.06h4.445Zm1.135-1.076h1.268v4.972h3.028v1.092h-4.3Zm5.145,0h1.268v4.972h3.028v1.092h-4.3Zm9.629,1.076h-3.208v1.288h2.945v1.052h-2.945v1.571h3.358v1.092h-4.595V74.06h4.445Zm5.019-.919a1.5,1.5,0,0,1,.55.424,1.868,1.868,0,0,1,.306.511,1.7,1.7,0,0,1,.114.636,1.815,1.815,0,0,1-.22.848,1.217,1.217,0,0,1-.719.589,1.131,1.131,0,0,1,.609.479,2,2,0,0,1,.177.946v.393a3.034,3.034,0,0,0,.035.562.507.507,0,0,0,.236.346V80.1h-1.4q-.059-.2-.082-.326a2.984,2.984,0,0,1-.055-.522v-.562a1.146,1.146,0,0,0-.2-.785,1.025,1.025,0,0,0-.723-.192H209.13v2.376h-1.237V74.06h2.9A2.643,2.643,0,0,1,211.741,74.217Zm-2.619.9v1.63h1.363a1.452,1.452,0,0,0,.628-.1.683.683,0,0,0,.357-.683.786.786,0,0,0-.346-.742,1.256,1.256,0,0,0-.585-.106Z" transform="translate(-96.049 -39.605)" fill="#143257"/></svg>