<svg xmlns="http://www.w3.org/2000/svg" width="210" viewBox="0 0 210 30" height="30" version="1.0"><defs><clipPath id="a"><path d="M 3.386719 14 L 17 14 L 17 28.410156 L 3.386719 28.410156 Z M 3.386719 14"/></clipPath><clipPath id="b"><path d="M 16 14 L 33 14 L 33 28.410156 L 16 28.410156 Z M 16 14"/></clipPath><clipPath id="c"><path d="M 33 14 L 47 14 L 47 28.410156 L 33 28.410156 Z M 33 14"/></clipPath><clipPath id="d"><path d="M 47 14 L 58 14 L 58 28.410156 L 47 28.410156 Z M 47 14"/></clipPath><clipPath id="e"><path d="M 59 14 L 70 14 L 70 28.410156 L 59 28.410156 Z M 59 14"/></clipPath><clipPath id="f"><path d="M 71 14 L 75 14 L 75 28.410156 L 71 28.410156 Z M 71 14"/></clipPath><clipPath id="g"><path d="M 75 14 L 89 14 L 89 28.410156 L 75 28.410156 Z M 75 14"/></clipPath><clipPath id="h"><path d="M 89 14 L 102 14 L 102 28.410156 L 89 28.410156 Z M 89 14"/></clipPath><clipPath id="i"><path d="M 103 14 L 114 14 L 114 28.410156 L 103 28.410156 Z M 103 14"/></clipPath><clipPath id="j"><path d="M 114 14 L 128 14 L 128 28.410156 L 114 28.410156 Z M 114 14"/></clipPath><clipPath id="k"><path d="M 128 14 L 141 14 L 141 28.410156 L 128 28.410156 Z M 128 14"/></clipPath><clipPath id="l"><path d="M 142 14 L 153 14 L 153 28.410156 L 142 28.410156 Z M 142 14"/></clipPath><clipPath id="m"><path d="M 153 14 L 166 14 L 166 28.410156 L 153 28.410156 Z M 153 14"/></clipPath><clipPath id="n"><path d="M 73 23 L 77 23 L 77 28.410156 L 73 28.410156 Z M 73 23"/></clipPath><clipPath id="o"><path d="M 75 26 L 77 26 L 77 28.410156 L 75 28.410156 Z M 75 26"/></clipPath><clipPath id="p"><path d="M 75 26 L 76 26 L 76 28.410156 L 75 28.410156 Z M 75 26"/></clipPath><clipPath id="q"><path d="M 74 26 L 75 26 L 75 28.410156 L 74 28.410156 Z M 74 26"/></clipPath><clipPath id="r"><path d="M 73 0.101562 L 84 0.101562 L 84 11 L 73 11 Z M 73 0.101562"/></clipPath><clipPath id="s"><path d="M 168 14 L 182 14 L 182 28.410156 L 168 28.410156 Z M 168 14"/></clipPath><clipPath id="t"><path d="M 173 14 L 189 14 L 189 28.410156 L 173 28.410156 Z M 173 14"/></clipPath><clipPath id="u"><path d="M 179 14 L 192 14 L 192 28.410156 L 179 28.410156 Z M 179 14"/></clipPath><clipPath id="v"><path d="M 191 14 L 206.613281 14 L 206.613281 28 L 191 28 Z M 191 14"/></clipPath></defs><g clip-path="url(#a)"><path fill="#011E41" d="M 7.054688 27.386719 C 5.917969 26.792969 5.023438 25.953125 4.367188 24.863281 C 4.046875 24.308594 3.800781 23.722656 3.636719 23.101562 C 3.46875 22.484375 3.386719 21.855469 3.386719 21.214844 C 3.386719 20.574219 3.46875 19.945312 3.636719 19.328125 C 3.800781 18.710938 4.046875 18.125 4.367188 17.566406 C 5.023438 16.480469 5.917969 15.636719 7.054688 15.046875 C 8.257812 14.417969 9.539062 14.113281 10.898438 14.136719 C 12.027344 14.121094 13.113281 14.328125 14.152344 14.761719 C 15.109375 15.167969 15.925781 15.769531 16.59375 16.5625 L 14.539062 18.4375 C 14.113281 17.921875 13.59375 17.523438 12.984375 17.242188 C 12.371094 16.960938 11.730469 16.824219 11.058594 16.835938 C 10.246094 16.820312 9.480469 17.007812 8.769531 17.390625 C 8.09375 17.761719 7.566406 18.28125 7.195312 18.949219 C 6.820312 19.660156 6.632812 20.417969 6.632812 21.21875 C 6.632812 22.019531 6.820312 22.777344 7.195312 23.488281 C 7.566406 24.15625 8.089844 24.675781 8.769531 25.042969 C 9.480469 25.429688 10.246094 25.613281 11.058594 25.601562 C 11.734375 25.609375 12.375 25.472656 12.988281 25.1875 C 13.597656 24.902344 14.113281 24.5 14.539062 23.976562 L 16.59375 25.855469 C 15.925781 26.660156 15.109375 27.269531 14.140625 27.675781 C 13.097656 28.109375 12.011719 28.316406 10.878906 28.300781 C 9.527344 28.320312 8.25 28.015625 7.054688 27.386719 Z M 7.054688 27.386719"/></g><g clip-path="url(#b)"><path fill="#011E41" d="M 27.855469 25.128906 L 21.429688 25.128906 L 20.203125 28.0625 L 16.921875 28.0625 L 23.09375 14.371094 L 26.253906 14.371094 L 32.445312 28.0625 L 29.082031 28.0625 Z M 26.847656 22.71875 L 24.652344 17.480469 L 22.457031 22.71875 Z M 26.847656 22.71875"/></g><g clip-path="url(#c)"><path fill="#011E41" d="M 45.765625 22.183594 C 46.238281 22.820312 46.464844 23.535156 46.4375 24.324219 C 46.460938 24.878906 46.347656 25.398438 46.097656 25.890625 C 45.84375 26.386719 45.488281 26.785156 45.023438 27.09375 C 43.75 27.832031 42.375 28.15625 40.902344 28.0625 L 33.746094 28.0625 L 33.746094 14.371094 L 40.507812 14.371094 C 41.90625 14.285156 43.199219 14.605469 44.394531 15.328125 C 44.828125 15.621094 45.167969 15.996094 45.410156 16.457031 C 45.648438 16.921875 45.761719 17.410156 45.746094 17.929688 C 45.761719 18.566406 45.601562 19.15625 45.269531 19.699219 C 44.9375 20.246094 44.484375 20.660156 43.910156 20.941406 C 44.664062 21.160156 45.28125 21.574219 45.765625 22.183594 Z M 36.929688 16.757812 L 36.929688 19.984375 L 40.113281 19.984375 C 40.753906 20.023438 41.351562 19.886719 41.910156 19.574219 C 42.347656 19.285156 42.550781 18.878906 42.523438 18.359375 C 42.554688 17.84375 42.351562 17.441406 41.910156 17.15625 C 41.351562 16.847656 40.75 16.714844 40.113281 16.753906 Z M 42.574219 25.265625 C 42.789062 25.125 42.953125 24.941406 43.070312 24.714844 C 43.183594 24.484375 43.234375 24.246094 43.214844 23.992188 C 43.214844 22.859375 42.367188 22.292969 40.667969 22.292969 L 36.929688 22.292969 L 36.929688 25.675781 L 40.667969 25.675781 C 41.339844 25.71875 41.976562 25.578125 42.574219 25.261719 Z M 42.574219 25.265625"/></g><g clip-path="url(#d)"><path fill="#011E41" d="M 47.742188 14.371094 L 50.945312 14.371094 L 50.945312 25.480469 L 57.886719 25.480469 L 57.886719 28.0625 L 47.742188 28.0625 Z M 47.742188 14.371094"/></g><g clip-path="url(#e)"><path fill="#011E41" d="M 69.902344 25.519531 L 69.902344 28.0625 L 59.1875 28.0625 L 59.1875 14.371094 L 69.648438 14.371094 L 69.648438 16.914062 L 62.371094 16.914062 L 62.371094 19.886719 L 68.796875 19.886719 L 68.796875 22.351562 L 62.371094 22.351562 L 62.371094 25.519531 Z M 69.902344 25.519531"/></g><g clip-path="url(#f)"><path fill="#011E41" d="M 71.207031 14.371094 L 74.410156 14.371094 L 74.410156 28.0625 L 71.207031 28.0625 Z M 71.207031 14.371094"/></g><g clip-path="url(#g)"><path fill="#011E41" d="M 88.40625 14.371094 L 88.40625 28.0625 L 85.777344 28.0625 L 78.878906 19.75 L 78.878906 28.0625 L 75.714844 28.0625 L 75.714844 14.371094 L 78.363281 14.371094 L 85.242188 22.683594 L 85.242188 14.371094 Z M 88.40625 14.371094"/></g><g clip-path="url(#h)"><path fill="#011E41" d="M 94.160156 16.953125 L 89.730469 16.953125 L 89.730469 14.371094 L 101.792969 14.371094 L 101.792969 16.953125 L 97.363281 16.953125 L 97.363281 28.0625 L 94.160156 28.0625 Z M 94.160156 16.953125"/></g><g clip-path="url(#i)"><path fill="#011E41" d="M 113.832031 25.519531 L 113.832031 28.0625 L 103.117188 28.0625 L 103.117188 14.371094 L 113.574219 14.371094 L 113.574219 16.914062 L 106.300781 16.914062 L 106.300781 19.886719 L 112.726562 19.886719 L 112.726562 22.351562 L 106.300781 22.351562 L 106.300781 25.519531 Z M 113.832031 25.519531"/></g><g clip-path="url(#j)"><path fill="#011E41" d="M 123.636719 28.0625 L 120.96875 24.25 L 118.023438 24.25 L 118.023438 28.0625 L 114.820312 28.0625 L 114.820312 14.371094 L 120.8125 14.371094 C 121.917969 14.34375 122.984375 14.546875 124.003906 14.976562 C 124.871094 15.34375 125.566406 15.917969 126.089844 16.699219 C 126.601562 17.503906 126.84375 18.386719 126.820312 19.339844 C 126.839844 19.800781 126.785156 20.253906 126.664062 20.699219 C 126.539062 21.144531 126.347656 21.5625 126.09375 21.949219 C 125.839844 22.335938 125.53125 22.675781 125.167969 22.96875 C 124.808594 23.257812 124.410156 23.492188 123.972656 23.660156 L 127.078125 28.0625 Z M 122.832031 17.566406 C 122.175781 17.101562 121.441406 16.898438 120.636719 16.953125 L 118.027344 16.953125 L 118.027344 21.722656 L 120.636719 21.722656 C 121.445312 21.78125 122.175781 21.570312 122.832031 21.097656 C 123.070312 20.867188 123.257812 20.597656 123.386719 20.289062 C 123.515625 19.984375 123.582031 19.664062 123.582031 19.332031 C 123.582031 19 123.515625 18.679688 123.386719 18.375 C 123.257812 18.070312 123.070312 17.800781 122.832031 17.566406 Z M 122.832031 17.566406"/></g><g clip-path="url(#k)"><path fill="#011E41" d="M 140.777344 14.371094 L 140.777344 28.0625 L 138.148438 28.0625 L 131.246094 19.75 L 131.246094 28.0625 L 128.082031 28.0625 L 128.082031 14.371094 L 130.730469 14.371094 L 137.609375 22.683594 L 137.609375 14.371094 Z M 140.777344 14.371094"/></g><g clip-path="url(#l)"><path fill="#011E41" d="M 152.800781 25.519531 L 152.800781 28.0625 L 142.082031 28.0625 L 142.082031 14.371094 L 152.539062 14.371094 L 152.539062 16.914062 L 145.265625 16.914062 L 145.265625 19.886719 L 151.691406 19.886719 L 151.691406 22.351562 L 145.265625 22.351562 L 145.265625 25.519531 Z M 152.800781 25.519531"/></g><g clip-path="url(#m)"><path fill="#011E41" d="M 158.273438 16.953125 L 153.84375 16.953125 L 153.84375 14.371094 L 165.902344 14.371094 L 165.902344 16.953125 L 161.476562 16.953125 L 161.476562 28.0625 L 158.273438 28.0625 Z M 158.273438 16.953125"/></g><g clip-path="url(#n)"><path fill="#FFF" d="M 76.152344 23.230469 L 74.085938 23.230469 L 73.363281 24.789062 L 73.363281 28.21875 L 76.871094 28.21875 L 76.871094 24.789062 Z M 76.152344 23.230469"/></g><g clip-path="url(#o)"><path fill="#011E41" d="M 75.863281 26.617188 L 76.230469 26.617188 L 76.230469 28.097656 L 75.863281 28.097656 Z M 75.863281 26.617188"/></g><g clip-path="url(#p)"><path fill="#011E41" d="M 75.246094 26.617188 L 75.613281 26.617188 L 75.613281 28.097656 L 75.246094 28.097656 Z M 75.246094 26.617188"/></g><g clip-path="url(#q)" fill="#011E41"><path d="M 74.628906 26.617188 L 74.996094 26.617188 L 74.996094 28.097656 L 74.628906 28.097656 Z M 74.628906 26.617188"/><path d="M 74.011719 26.617188 L 74.382812 26.617188 L 74.382812 28.097656 L 74.011719 28.097656 Z M 74.011719 26.617188"/></g><path fill="#011E41" d="M 74.023438 22.503906 L 76.21875 22.503906 L 76.21875 22.867188 L 74.023438 22.867188 Z M 74.023438 22.503906"/><path fill="#011E41" d="M 74.023438 21.777344 L 76.21875 21.777344 L 76.21875 22.140625 L 74.023438 22.140625 Z M 74.023438 21.777344"/><path fill="#BE1622" d="M 74.511719 11.191406 C 74.511719 11.402344 74.472656 11.609375 74.390625 11.804688 C 74.308594 12 74.191406 12.171875 74.039062 12.324219 C 73.886719 12.472656 73.714844 12.589844 73.515625 12.667969 C 73.316406 12.75 73.109375 12.792969 72.894531 12.792969 C 72.679688 12.792969 72.476562 12.75 72.277344 12.667969 C 72.078125 12.589844 71.902344 12.472656 71.753906 12.324219 C 71.601562 12.171875 71.484375 12 71.402344 11.804688 C 71.320312 11.609375 71.277344 11.402344 71.277344 11.191406 C 71.277344 10.980469 71.320312 10.773438 71.402344 10.578125 C 71.484375 10.382812 71.601562 10.210938 71.753906 10.058594 C 71.902344 9.910156 72.078125 9.792969 72.277344 9.714844 C 72.476562 9.632812 72.679688 9.589844 72.894531 9.589844 C 73.109375 9.589844 73.316406 9.632812 73.515625 9.714844 C 73.714844 9.792969 73.886719 9.910156 74.039062 10.058594 C 74.191406 10.210938 74.308594 10.382812 74.390625 10.578125 C 74.472656 10.773438 74.511719 10.980469 74.511719 11.191406 Z M 74.511719 11.191406"/><g clip-path="url(#r)"><path fill="#BE1622" d="M 80.996094 10.308594 L 83.652344 10.308594 C 83.0625 3.882812 78.226562 1.019531 73.695312 0.214844 L 73.695312 2.945312 C 76.441406 3.675781 80.15625 5.058594 80.996094 10.308594 Z M 80.996094 10.308594"/></g><path fill="#BE1622" d="M 76.355469 10.308594 L 79.113281 10.308594 C 78.980469 9.664062 78.75 9.058594 78.425781 8.488281 C 78.101562 7.917969 77.695312 7.410156 77.207031 6.964844 C 76.722656 6.519531 76.179688 6.15625 75.578125 5.878906 C 74.980469 5.601562 74.351562 5.421875 73.695312 5.335938 L 73.695312 7.988281 C 74.328125 8.082031 74.886719 8.339844 75.371094 8.757812 C 75.851562 9.179688 76.179688 9.695312 76.355469 10.308594 Z M 76.355469 10.308594"/><path fill="#FFF" d="M 107.273438 19.292969 L 107.273438 22.726562 L 106.296875 22.726562 L 106.296875 19.292969 Z M 107.273438 19.292969"/><path fill="#FFF" d="M 63.339844 19.292969 L 63.339844 22.726562 L 62.363281 22.726562 L 62.363281 19.292969 Z M 63.339844 19.292969"/><path fill="#FFF" d="M 146.230469 19.292969 L 146.230469 22.726562 L 145.253906 22.726562 L 145.253906 19.292969 Z M 146.230469 19.292969"/><path fill="#011E41" d="M 181 14.636719 L 181 27.910156 L 205.226562 27.910156 L 199.304688 14.636719 Z M 181 14.636719"/><g clip-path="url(#s)"><path fill="#011E41" d="M 177.265625 14.636719 L 177.265625 21.882812 C 177.265625 24.003906 176.417969 25.066406 174.734375 25.066406 C 174.292969 25.082031 173.871094 24.992188 173.476562 24.796875 C 172.617188 24.363281 172.1875 23.390625 172.1875 21.878906 L 172.1875 14.636719 L 168.394531 14.636719 L 168.394531 22 C 168.339844 22.839844 168.457031 23.65625 168.742188 24.453125 C 169.03125 25.246094 169.464844 25.949219 170.050781 26.566406 C 171.015625 27.46875 172.15625 27.980469 173.480469 28.105469 C 173.882812 28.15625 174.289062 28.179688 174.695312 28.179688 C 175.546875 28.230469 176.378906 28.117188 177.183594 27.835938 C 177.992188 27.558594 178.710938 27.132812 179.347656 26.566406 C 179.929688 25.949219 180.367188 25.246094 180.652344 24.453125 C 180.941406 23.65625 181.058594 22.839844 181.003906 22 L 181.003906 14.636719 Z M 177.265625 14.636719"/></g><g clip-path="url(#t)"><path fill="#011E41" d="M 185.691406 21.792969 C 182.449219 21.792969 182.453125 16.8125 185.691406 16.8125 C 185.804688 16.8125 185.914062 16.820312 186.023438 16.832031 L 186.023438 14.636719 L 177.265625 14.636719 L 177.265625 21.882812 C 177.265625 24.007812 176.417969 25.070312 174.734375 25.070312 C 174.292969 25.082031 173.871094 24.992188 173.476562 24.800781 L 173.476562 27.507812 C 173.476562 27.691406 173.539062 27.851562 173.671875 27.980469 C 173.804688 28.109375 173.964844 28.175781 174.152344 28.175781 L 186.023438 28.175781 L 188.949219 23.425781 C 188.84375 23.4375 185.808594 21.792969 185.691406 21.792969 Z M 185.691406 21.792969"/></g><g clip-path="url(#u)"><path fill="#BE1622" d="M 182.257812 27.894531 C 181.355469 27.683594 180.519531 27.324219 179.746094 26.820312 L 181.003906 24.027344 C 181.660156 24.445312 182.363281 24.765625 183.113281 24.984375 C 183.878906 25.222656 184.667969 25.34375 185.472656 25.347656 C 186.941406 25.347656 187.675781 24.984375 187.675781 24.257812 C 187.675781 24.0625 187.617188 23.886719 187.5 23.730469 C 187.386719 23.574219 187.234375 23.46875 187.046875 23.40625 C 186.394531 23.152344 185.71875 22.957031 185.027344 22.824219 C 184.160156 22.648438 183.3125 22.414062 182.476562 22.125 C 181.785156 21.875 181.199219 21.476562 180.714844 20.929688 C 180.183594 20.285156 179.9375 19.542969 179.980469 18.710938 C 179.972656 17.902344 180.199219 17.167969 180.660156 16.5 C 181.175781 15.785156 181.851562 15.265625 182.679688 14.945312 C 183.738281 14.527344 184.835938 14.335938 185.976562 14.371094 C 186.863281 14.371094 187.738281 14.46875 188.605469 14.667969 C 189.410156 14.839844 190.171875 15.132812 190.886719 15.535156 L 189.707031 18.347656 C 188.546875 17.6875 187.296875 17.34375 185.957031 17.316406 C 185.371094 17.273438 184.816406 17.386719 184.292969 17.648438 C 183.949219 17.839844 183.773438 18.128906 183.769531 18.519531 C 183.777344 18.707031 183.835938 18.875 183.949219 19.019531 C 184.0625 19.167969 184.210938 19.269531 184.390625 19.324219 C 185.035156 19.570312 185.699219 19.753906 186.382812 19.878906 C 187.253906 20.050781 188.105469 20.285156 188.941406 20.578125 C 189.628906 20.828125 190.214844 21.222656 190.703125 21.761719 C 191.246094 22.402344 191.492188 23.136719 191.445312 23.972656 C 191.453125 24.769531 191.230469 25.496094 190.769531 26.152344 C 190.246094 26.867188 189.570312 27.386719 188.738281 27.710938 C 187.683594 28.128906 186.589844 28.324219 185.453125 28.292969 C 184.371094 28.296875 183.304688 28.164062 182.257812 27.894531 Z M 182.257812 27.894531"/></g><g clip-path="url(#v)"><path fill="#BE1622" d="M 200.640625 14.46875 L 196.898438 14.46875 L 191.007812 27.914062 L 194.882812 27.914062 L 195.933594 25.332031 L 201.605469 25.332031 L 202.660156 27.914062 L 206.609375 27.914062 Z M 197.042969 22.5625 L 198.769531 18.316406 L 200.496094 22.5625 Z M 197.042969 22.5625"/></g><path fill="#FFF" d="M 170.390625 19.125 L 170.597656 19.753906 L 171.265625 19.753906 L 170.726562 20.144531 L 170.933594 20.773438 L 170.390625 20.382812 L 169.851562 20.773438 L 170.058594 20.144531 L 169.515625 19.753906 L 170.183594 19.753906 Z M 170.390625 19.125"/><path fill="#FFF" d="M 170.390625 15.84375 L 170.597656 16.472656 L 171.265625 16.472656 L 170.726562 16.863281 L 170.933594 17.492188 L 170.390625 17.101562 L 169.851562 17.492188 L 170.058594 16.863281 L 169.515625 16.472656 L 170.183594 16.472656 Z M 170.390625 15.84375"/><path fill="#FFF" d="M 170.390625 22.40625 L 170.597656 23.035156 L 171.265625 23.035156 L 170.726562 23.425781 L 170.933594 24.054688 L 170.390625 23.664062 L 169.851562 24.054688 L 170.058594 23.425781 L 169.515625 23.035156 L 170.183594 23.035156 Z M 170.390625 22.40625"/></svg>