<svg xmlns="http://www.w3.org/2000/svg" width="939" height="139" viewBox="0 0 939 139"><g transform="translate(-491 -3816)"><g transform="translate(560 3852.758)"><path d="M696.875,221.746c-34.707,0-52.143,14.833-69,29.178-16.289,13.859-31.676,26.95-62.942,26.95s-46.65-13.091-62.94-26.95c-16.861-14.345-34.294-29.178-69-29.178s-52.14,14.833-69,29.178c-16.288,13.859-31.674,26.95-62.937,26.95s-46.649-13.09-62.937-26.95c-16.861-14.345-34.294-29.178-69-29.178s-52.14,14.833-69,29.178c-16.289,13.859-31.674,26.95-62.937,26.95a4.677,4.677,0,1,0,0,9.355c34.7,0,52.14-14.834,69-29.18,16.288-13.859,31.674-26.949,62.937-26.949s46.651,13.09,62.939,26.95c16.861,14.344,34.294,29.178,69,29.178s52.14-14.834,69-29.18C386.34,244.19,401.725,231.1,432.989,231.1s46.65,13.09,62.939,26.949c16.861,14.345,34.3,29.18,69,29.18s52.142-14.834,69-29.18c16.29-13.859,31.676-26.949,62.942-26.949s46.653,13.09,62.942,26.949c16.862,14.345,34.3,29.18,69,29.18a4.677,4.677,0,0,0,0-9.355c-31.266,0-46.653-13.091-62.942-26.95C749.018,236.579,731.583,221.746,696.875,221.746Z" transform="translate(-32.5 -221.746)" fill="#be1622"/></g><circle cx="69.5" cy="69.5" r="69.5" transform="translate(491 3816)" fill="#be1622"/><circle cx="53.5" cy="53.5" r="53.5" transform="translate(507 3832)" fill="#fff"/><circle cx="69.5" cy="69.5" r="69.5" transform="translate(891 3816)" fill="#be1622"/><circle cx="69.5" cy="69.5" r="69.5" transform="translate(1291 3816)" fill="#be1622"/><circle cx="53.5" cy="53.5" r="53.5" transform="translate(907 3832)" fill="#fff"/><circle cx="53.5" cy="53.5" r="53.5" transform="translate(1307 3832)" fill="#fff"/><g transform="translate(529 3854)"><path d="M58,5H6A1,1,0,0,0,5,6v7H59V6A1,1,0,0,0,58,5ZM28,10H9A1,1,0,0,1,9,8H28a1,1,0,0,1,0,2Zm14,1a2,2,0,1,1,2-2A2,2,0,0,1,42,11Zm6,0a2,2,0,1,1,2-2A2,2,0,0,1,48,11Zm6,0a2,2,0,1,1,2-2A2,2,0,0,1,54,11Z" fill="#be1622"/><path d="M33,45v2H31V45h2Z" fill="#12284c"/><path d="M34,49v8a2,2,0,0,1-4,0V49Z" fill="#12284c"/><path d="M59,15V51a1,1,0,0,1-1,1H36V48a1,1,0,0,0-1-1V44.64a13,13,0,1,0-6,0V47a1,1,0,0,0-1,1v4H6a1,1,0,0,1-1-1V15Z" fill="#be1622"/><path d="M43,32a10.94,10.94,0,0,1-9.17,10.84A10.291,10.291,0,0,1,32,43h-.92a4.631,4.631,0,0,1-.91-.12A11,11,0,1,1,43,32Z" fill="#12284c"/></g><g transform="translate(-10550 494)"><g transform="translate(11476 3353.334)"><path d="M41.369,18.646c0,2.422,4.154,4.428,9.542,4.771v9.318H39.994a5.86,5.86,0,0,0-11.272,0H17.8V23.417c5.389-.343,9.543-2.349,9.543-4.771V15.666H5v2.979c0,2.422,4.154,4.428,9.542,4.771V36H28.732a5.862,5.862,0,0,0,11.252,0H54.173V23.417c5.389-.343,9.543-2.349,9.543-4.771V15.666H41.369ZM34.358,36.951a2.6,2.6,0,1,1,2.6-2.6A2.6,2.6,0,0,1,34.358,36.951Z" fill="#be1622"/><path d="M55.492,75.008a.228.228,0,0,0,.228-.228V68.593a1.047,1.047,0,0,0-.234-.66L47.34,57.891a1.047,1.047,0,0,0-.813-.387h-6.1a1.047,1.047,0,0,0-.813.387L31.466,67.934a1.047,1.047,0,0,0-.234.66V74.78a.228.228,0,0,0,.228.228Z" transform="translate(-9.118 -14.543)" fill="#12284c"/></g></g><g transform="translate(1319 3844.838)"><g transform="translate(16 21.162)"><path d="M27.584,30.838H17.053A1.056,1.056,0,0,0,16,31.891v27.38a1.056,1.056,0,0,0,1.053,1.053H27.584a1.056,1.056,0,0,0,1.053-1.053V31.891A1.056,1.056,0,0,0,27.584,30.838ZM22.318,56.114a2.106,2.106,0,1,1,2.106-2.106A2.109,2.109,0,0,1,22.318,56.114Z" transform="translate(-16 -20.648)" fill="#12284c"/><path d="M51.038,39.778H65.223a4.161,4.161,0,0,0,.582-2.108,4.211,4.211,0,0,0-4.212-4.212H46.554l1.422-4.444A6.157,6.157,0,0,0,44,21.274a2.246,2.246,0,0,0-2.843,1.464l-2.085,6.487c-.8,2.527-4.191,4.233-6.845,4.233a6.251,6.251,0,0,0-2.222.4V58.321a12.2,12.2,0,0,0,7.15,2.517H58.433a4.2,4.2,0,0,0,3.616-6.363H51.038a1.03,1.03,0,1,1,0-2.06h12.1a4.193,4.193,0,0,0-.033-4.259H51.038a1.03,1.03,0,1,1,0-2.06H64.187a4.193,4.193,0,0,0-.033-4.259H51.038a1.03,1.03,0,1,1,0-2.06Z" transform="translate(-15.257 -21.162)" fill="#be1622"/></g></g></g></svg>