<svg xmlns="http://www.w3.org/2000/svg" width="490.377" height="157.692" viewBox="0 0 490.377 157.692"><g transform="translate(-14426 -661)"><g transform="translate(14426 661)"><path d="M0,55.441H15.35c.228.274.365.35.4.472,1.629,7.477,5.376,10.828,13.02,11.863a26.985,26.985,0,0,0,12.487-.929,8.452,8.452,0,0,0,6.091-7.614c.4-3.761-1.8-5.954-4.721-7.614-4.919-2.8-10.4-3.868-15.823-5.163-4.157-.99-8.3-2.071-12.366-3.35C6.822,40.714,2.6,35.339,1.492,27.6.137,18.115,2.7,9.8,10.812,4.653A29.544,29.544,0,0,1,22.843.6,48.732,48.732,0,0,1,43.051,1.607c10.34,2.97,17.528,12.64,16.889,22.767H45.2c-1.523-7.02-4.98-10.355-12.183-11a34.356,34.356,0,0,0-9.472.533,9.746,9.746,0,0,0-4.919,3.046,6.929,6.929,0,0,0,1.767,11.224,33.731,33.731,0,0,0,7.157,2.848c6.518,1.919,13.112,3.548,19.614,5.482,9.929,2.954,15.152,9,15.625,17.8.64,11.7-4.2,20.163-13.9,24.153-7.767,3.2-15.9,3.32-24.076,2.5A29.132,29.132,0,0,1,9.046,74.9,23.8,23.8,0,0,1,.472,59.857c-.122-.67-.32-1.31-.472-1.98ZM407.457,24.07c7.508-5.558,15.9-6,24.518-5.163A33.351,33.351,0,0,1,445,22.714a32.558,32.558,0,0,1,4.721,3.183,7.889,7.889,0,0,1,3.046,6.685c-.152,14.894,0,29.8,0,44.711v2.528c-3.457,0-6.716.244-9.944,0-4.142-.4-6.594-3.442-6.609-7.706v-29.8A12.7,12.7,0,0,0,435.6,37.5a10.081,10.081,0,0,0-3.259-4.477,12.183,12.183,0,0,0-12.457-.5c-3.807,1.858-4.888,5.467-4.9,9.411V79.791H399.371V41.567c0-6.762-3.67-10.355-10.553-10.355-6.457,0-10.355,3.929-10.355,10.477V79.761H362.731c0-.655-.091-1.31-.091-1.949,0-11.3-.076-22.584,0-33.884,0-7.188,1.523-13.965,7.2-19.066,5.071-4.569,11.33-6.091,17.909-6.213,7.051-.2,13.889.655,19.706,5.421ZM81.351,76.578c0,5.711-.228,11.284,0,16.843.3,5.909-3.777,9.487-8.985,8.97-2.01-.2-4.051,0-6.183,0,0-.853-.107-1.523-.107-2.178,0-17.818-.137-35.65.091-53.468a46.249,46.249,0,0,1,2.193-12.579,19.356,19.356,0,0,1,11.7-12.579,36.549,36.549,0,0,1,22.569-2.056c9.609,2.239,15.853,8.147,18.411,17.635a45.442,45.442,0,0,1-.731,27.457c-2.909,8.193-8.071,14.422-17.026,16.249a27.411,27.411,0,0,1-19.8-3.381c-.472-.274-.929-.579-1.4-.838A3.046,3.046,0,0,0,81.351,76.578ZM107.1,50.141a36.945,36.945,0,0,0-2.147-11.086c-1.9-4.9-6.091-6.975-11.193-6.868a10.371,10.371,0,0,0-10.4,7.416,41.453,41.453,0,0,0-1.9,10.66A20.574,20.574,0,0,0,83.986,62.05a11.635,11.635,0,0,0,11.056,5.97,10.66,10.66,0,0,0,9.838-6.457A25.249,25.249,0,0,0,107.1,50.141Zm73.28,11.33c-2.056,7.919-6.472,13.6-13.706,16.751a31.432,31.432,0,0,1-23.528.975c-7.767-2.635-12.579-8.391-14.955-16.1a45.275,45.275,0,0,1-.457-25.021c3.046-11.665,11.132-18.366,23.163-19.173a30.183,30.183,0,0,1,18.137,3.7c7.751,4.66,10.66,12.183,11.833,20.62.472,3.411.457,6.883.67,10.66H142.768a11.726,11.726,0,0,0,10.1,13.934c5.558.518,10.843.289,13.828-5.65a1.751,1.751,0,0,1,1.34-.624c4.051-.091,8-.076,12.35-.076ZM165.155,43.806c-.32-4.492-1.416-8.406-5.376-10.66a11.559,11.559,0,0,0-12.579.533c-3.487,2.315-4.569,5.924-4.843,10.066Zm192.84-23.711a9.458,9.458,0,0,1,.183,1.218c0,12.716.167,25.447-.152,38.163-.289,11.224-7.386,18.975-18.5,20.757A38.529,38.529,0,0,1,321.157,79.2c-9.289-3.046-14.284-9.914-14.7-19.31-.563-13.173-.137-26.376-.137-39.732q.757-.122,1.523-.168h12.046c1.523,0,1.949.5,1.934,1.98V57.679c0,3.883.944,7.4,4.569,9.427a11.513,11.513,0,0,0,11.528.091c3.518-1.873,4.812-5.193,4.812-9.061V28.958a13.981,13.981,0,0,1,.7-4.188,6.289,6.289,0,0,1,5.833-4.66c2.833-.152,5.7-.015,8.726-.015ZM238.313,38.247H223.846a2.132,2.132,0,0,1-1.432-1.051c-2.284-4.173-6.091-5.437-10.447-5.36a10.127,10.127,0,0,0-9.518,5.878A25.3,25.3,0,0,0,200.3,52.425a32.361,32.361,0,0,0,2.345,9.4c2.924,6.4,13.142,8.437,18.625,3.975a6,6,0,0,0,1.919-2.33c.655-1.782,1.827-2.01,3.472-1.964,3.99.107,8,0,12.29,0a25.721,25.721,0,0,1-7.477,12.625c-6.9,6.411-15.32,7.69-24.168,6.381-12.183-1.8-20.117-10.2-21.9-22.706A50.255,50.255,0,0,1,186.7,36.557c2.741-9.472,8.97-15.3,18.746-17.132,8.619-1.6,16.752-.807,24.061,4.569,4.477,3.426,8.223,9.518,8.8,14.254Zm4.34-35.528c3.244,0,6.244-.137,9.213,0,3.518.2,5.939,3.046,6.091,6.944.122,2.711,0,5.437,0,8.163v2.467h9.259v4.569c0,3.046-.137,6,0,8.985.122,1.98-.624,2.437-2.437,2.33-2.223-.137-4.462,0-6.883,0V79.4a78.764,78.764,0,0,1-9.137,0c-3.168-.381-4.934-2.68-5.711-5.68a17.421,17.421,0,0,1-.624-4.218V4.394a6.1,6.1,0,0,0,.228-1.675Zm58.965,17.01V35.75l-1.934.091c-1.629,0-3.274,0-4.888.137-7.614.777-11.01,4.569-11.056,12.183v31.28H268.024c0-.746-.091-1.523-.091-2.178,0-9.046-.213-18.107.091-27.137a46.236,46.236,0,0,1,2.086-12.792C273.354,27.5,281,22.592,290.821,20.8,294.309,20.217,297.857,20.095,301.618,19.729Z" transform="translate(0 0.016)" fill="#fff"/><path d="M300.37,20.02V69.452l32.955-24.716Z" transform="translate(157.053 10.492)" fill="#fff"/><path d="M166.444,65.963H172l8.315,23.513h-5.33l-1.523-4.827h-8.65l-1.523,4.827H158.16Zm-.32,14.619h6.091l-2.97-9.244ZM183.3,65.963H188.3V80.4a8.208,8.208,0,0,0,.579,3.533,4.782,4.782,0,0,0,7.736,0,8.208,8.208,0,0,0,.579-3.533V65.963h5V80.415a12.183,12.183,0,0,1-1.173,5.787q-2.162,3.822-8.269,3.822T184.46,86.2a12.183,12.183,0,0,1-1.157-5.833Zm40.676,0V70.12h-7.036v19.34h-4.949V70.12h-7.066V65.963Zm2.833,23.513V65.963h4.873v8.97h9.137v-8.97h4.873V89.476h-4.873V78.968h-9.137V89.461Zm41.726-2.1a12.183,12.183,0,0,1-15.411,0,12.685,12.685,0,0,1-3.579-9.7q0-6.457,3.579-9.7a12.183,12.183,0,0,1,15.411,0q3.594,3.244,3.594,9.716A12.716,12.716,0,0,1,268.537,87.374ZM265.491,83.8a9.624,9.624,0,0,0,1.721-6.091,9.624,9.624,0,0,0-1.721-6.091,5.6,5.6,0,0,0-4.569-2.162,5.68,5.68,0,0,0-4.66,2.147,9.533,9.533,0,0,0-1.736,6.091,9.533,9.533,0,0,0,1.736,6.091,5.68,5.68,0,0,0,4.66,2.147,5.6,5.6,0,0,0,4.538-2.117Zm25.417-17.224a5.8,5.8,0,0,1,2.193,1.645,7.247,7.247,0,0,1,1.188,1.98,6.609,6.609,0,0,1,.442,2.467,7.036,7.036,0,0,1-.853,3.289,4.721,4.721,0,0,1-2.787,2.284,4.386,4.386,0,0,1,2.36,1.873,7.738,7.738,0,0,1,.685,3.67V85.3a11.752,11.752,0,0,0,.137,2.178,1.965,1.965,0,0,0,.914,1.34v.594h-5.421q-.228-.777-.32-1.264a11.57,11.57,0,0,1-.213-2.025V83.948a4.447,4.447,0,0,0-.777-3.046,3.975,3.975,0,0,0-2.8-.746h-4.8v9.213h-4.8V65.963H287.3a10.248,10.248,0,0,1,3.609.609Zm-10.157,3.472v6.32h5.284a5.635,5.635,0,0,0,2.36-.381,2.649,2.649,0,0,0,1.386-2.65,3.046,3.046,0,0,0-1.34-2.878,4.873,4.873,0,0,0-2.269-.411ZM303.9,89.476h-4.873V65.963H303.9Zm2.939-4.157L318.853,70.09h-11.7V65.963h17.818v3.944L312.792,85.334h12.183v4.142H306.837Zm39-15.2H333.4v4.995h11.421V79.2H333.4v6.091h13.02v4.234H328.6V65.963h17.239ZM364.005,66.4a7.751,7.751,0,0,1,4.066,3.046,10.416,10.416,0,0,1,1.675,3.792,18.28,18.28,0,0,1,.442,3.9A15.6,15.6,0,0,1,368.3,85.09a8.5,8.5,0,0,1-7.888,4.386H350.269V65.963h10.142a12.365,12.365,0,0,1,3.594.442Zm-9,3.579v15.4h4.569a4.9,4.9,0,0,0,4.858-3.426,12.091,12.091,0,0,0,.746-4.477,11,11,0,0,0-1.127-5.513q-1.127-1.919-4.477-1.919ZM215.3,100.09a5.817,5.817,0,0,1,2.208,1.645,7.31,7.31,0,0,1,1.188,1.98,6.577,6.577,0,0,1,.442,2.467,7.036,7.036,0,0,1-.853,3.289,4.721,4.721,0,0,1-2.787,2.284,4.385,4.385,0,0,1,2.3,1.858,7.736,7.736,0,0,1,.685,3.67v1.523a11.747,11.747,0,0,0,.137,2.178,1.949,1.949,0,0,0,.914,1.34v.594H214.11q-.229-.777-.32-1.264a11.581,11.581,0,0,1-.213-2.025v-2.178a4.432,4.432,0,0,0-.777-3.046,3.959,3.959,0,0,0-2.8-.746h-4.873v9.213h-4.8V99.481h11.239A10.233,10.233,0,0,1,215.3,100.09Zm-10.173,3.472v6.32h5.284a5.634,5.634,0,0,0,2.33-.381,2.65,2.65,0,0,0,1.386-2.65,3.045,3.045,0,0,0-1.34-2.878,4.872,4.872,0,0,0-2.269-.411Zm36.092.091H228.775v5h11.376v4.081H228.73v6.091H241.75v4.234H223.933V99.481h17.284Zm7.934,12.076a4.78,4.78,0,0,0,.9,2.406,5.208,5.208,0,0,0,4.188,1.523,9.014,9.014,0,0,0,2.878-.381,2.741,2.741,0,0,0,2.1-2.726,2.01,2.01,0,0,0-1.036-1.8,11.177,11.177,0,0,0-3.259-1.142l-2.589-.594a15.84,15.84,0,0,1-5.163-1.8,5.726,5.726,0,0,1-2.376-5.086,6.746,6.746,0,0,1,2.33-5.254,9.914,9.914,0,0,1,6.822-2.086,10.477,10.477,0,0,1,6.411,1.964,7,7,0,0,1,2.787,5.711h-4.721a3.365,3.365,0,0,0-1.9-3.046,6.487,6.487,0,0,0-2.924-.594,5.558,5.558,0,0,0-3.046.761,2.421,2.421,0,0,0-1.157,2.132,2.01,2.01,0,0,0,1.142,1.888,14.193,14.193,0,0,0,3.122.975l4.127.975a10.478,10.478,0,0,1,4.066,1.706,5.756,5.756,0,0,1,2.1,4.8,6.746,6.746,0,0,1-2.5,5.345,10.508,10.508,0,0,1-7.036,2.132,11.5,11.5,0,0,1-7.294-2.1,6.929,6.929,0,0,1-2.665-5.772Zm35.635-12.076H272.344v5h11.421v4.081H272.344v6.091h13.021v4.234h-17.8V99.481H284.8Zm4.4-4.173h4.919V118.76h11.741v4.234h-16.66Zm19.949,0h4.919V118.76H325.8v4.234h-16.66Zm37.341,4.173H334.036v5h11.421v4.081H334.036v6.091h13.02v4.234H329.238V99.481h17.239Zm19.462-3.563a5.8,5.8,0,0,1,2.132,1.645,7.247,7.247,0,0,1,1.188,1.98,6.608,6.608,0,0,1,.442,2.467,7.036,7.036,0,0,1-.853,3.289,4.721,4.721,0,0,1-2.787,2.284,4.386,4.386,0,0,1,2.36,1.858,7.736,7.736,0,0,1,.685,3.67v1.523a11.746,11.746,0,0,0,.137,2.178,1.964,1.964,0,0,0,.914,1.34v.594h-5.437q-.228-.777-.32-1.264a11.568,11.568,0,0,1-.213-2.025v-2.178a4.447,4.447,0,0,0-.777-3.046,3.975,3.975,0,0,0-2.8-.746h-4.8v9.213h-4.8V99.481h11.239A10.249,10.249,0,0,1,365.94,100.09Zm-10.157,3.472v6.32h5.284a5.633,5.633,0,0,0,2.437-.381,2.65,2.65,0,0,0,1.386-2.65,3.046,3.046,0,0,0-1.34-2.878,4.873,4.873,0,0,0-2.269-.411Z" transform="translate(82.696 34.129)" fill="#fff"/></g></g></svg>