<?xml version="1.0" encoding="UTF-8" standalone="no"?>
<svg
   xmlns:dc="http://purl.org/dc/elements/1.1/"
   xmlns:cc="http://creativecommons.org/ns#"
   xmlns:rdf="http://www.w3.org/1999/02/22-rdf-syntax-ns#"
   xmlns:svg="http://www.w3.org/2000/svg"
   xmlns="http://www.w3.org/2000/svg"
   xmlns:sodipodi="http://sodipodi.sourceforge.net/DTD/sodipodi-0.dtd"
   xmlns:inkscape="http://www.inkscape.org/namespaces/inkscape"
   version="1.1"
   id="Layer_1"
   x="0px"
   y="0px"
   width="1702.6241"
   height="209.086"
   viewBox="0 0 1702.6241 209.086"
   enable-background="new 0 0 1000.786 209.086"
   xml:space="preserve"
   sodipodi:docname="Spectrum Mobile.svg"
   inkscape:version="1.0 (4035a4fb49, 2020-05-01)"><metadata
   id="metadata27"><rdf:RDF><cc:Work
       rdf:about=""><dc:format>image/svg+xml</dc:format><dc:type
         rdf:resource="http://purl.org/dc/dcmitype/StillImage" /><dc:title></dc:title></cc:Work></rdf:RDF></metadata><defs
   id="defs25">


</defs><sodipodi:namedview
   fit-margin-bottom="0"
   fit-margin-right="0"
   fit-margin-left="0"
   fit-margin-top="0"
   inkscape:document-rotation="0"
   pagecolor="#ffffff"
   bordercolor="#666666"
   borderopacity="1"
   objecttolerance="10"
   gridtolerance="10"
   guidetolerance="10"
   inkscape:pageopacity="0"
   inkscape:pageshadow="2"
   inkscape:window-width="1366"
   inkscape:window-height="705"
   id="namedview23"
   showgrid="false"
   inkscape:zoom="0.41"
   inkscape:cx="1425.4706"
   inkscape:cy="117.80452"
   inkscape:window-x="-8"
   inkscape:window-y="-8"
   inkscape:window-maximized="1"
   inkscape:current-layer="Layer_1" />

<style
   type="text/css"
   id="style96">
	.st0{fill:#FFFFFF;}
</style><g
   id="g995"><g
     style="fill:#FFFFFF;fill-opacity:1"
     id="g20">
	<polygon
   style="fill:#FFFFFF;fill-opacity:1"
   id="polygon2"
   points="1000.786,112.168 933.78,61.306 933.78,163.002 "
   fill="#0076BC" />
	<path
   style="fill:#FFFFFF;fill-opacity:1"
   id="path4"
   d="m 166.332,193.412 c 0,8.211 -6.393,15.674 -15.68,15.674 H 134.978 V 94.303 c 1.825,-30.536 12.928,-54.874 59.314,-56.534 20.063,0.252 34.621,8.229 43.223,18.29 9.219,11.989 13.173,26.885 13.173,45.62 0,19.359 -4.612,35.034 -13.837,47.022 -9.219,11.68 -21.048,17.517 -35.492,17.517 -21.665,0 -32.188,-9.019 -35.05,-10.712 0.001,1.047 0.023,37.906 0.023,37.906 m 52.545,-90.349 c 0,-11.983 -2.197,-37.339 -26.736,-37.339 -23.302,0 -25.809,24.739 -25.809,37.339 0,31.903 18.129,35.955 26.73,35.955 22.278,0.001 25.815,-23.627 25.815,-35.955"
   fill="#77787B" />
	<path
   style="fill:#FFFFFF;fill-opacity:1"
   id="path6"
   d="m 18.341,152.741 c 10.387,8.87 25.986,13.294 46.782,13.294 20.184,0 35.783,-4.27 46.787,-12.836 11.005,-9.174 16.516,-22.015 16.516,-38.524 0,-7.64 -1.499,-14.69 -5.047,-21.105 -3.25,-5.871 -8.768,-11.411 -15.439,-14.752 -4.234,-2.112 -6.811,-3.033 -12.018,-4.636 -5.619,-1.722 -33.604,-9.356 -36.43,-10.1 -15.588,-3.8 -25.488,-8.99 -25.557,-18.215 0.807,-17.837 17.43,-19.262 26.609,-19.262 9.465,0 16.967,1.991 22.467,5.963 9.877,7.686 8.778,17.448 8.778,17.448 h 31.125 C 122.302,34.725 116.797,22.33 106.405,12.848 96.316,4.287 81.936,0 63.292,0 43.412,0 28.281,4.132 17.883,12.384 7.485,20.951 2.289,32.722 2.289,47.704 c 0.046,19.245 9.168,30.593 17.432,35.777 5.018,3.004 16.424,7.611 31.188,10.547 l 12.4,2.701 c 21.506,5.242 33.85,11.881 33.466,22.53 -0.234,6.415 -2.443,11.319 -7.342,14.679 -4.476,3.061 -12.087,5.035 -21.552,5.035 -10.713,0 -19.113,-2.129 -25.225,-6.415 -5.814,-3.668 -9.34,-10.089 -10.553,-19.262 H 0 c 0.916,17.425 7.027,30.581 18.341,39.445"
   fill="#77787B" />
	<path
   style="fill:#FFFFFF;fill-opacity:1"
   id="path8"
   d="m 313.945,64.826 c 19.715,-0.269 22.776,16.515 23.389,24.773 h -46.782 c 0,0 -0.395,-24.333 23.393,-24.773 m 1.38,73.85 c -7.948,-0.401 -23.079,-1.957 -24.464,-28.436 l 79.48,0.017 c 0.012,-0.813 0,-9.528 0.023,-9.54 -0.55,-19.955 -5.34,-34.822 -14.685,-45.981 -10.095,-11.01 -24.31,-16.509 -42.656,-16.509 -17.419,0 -31.033,5.66 -40.813,16.967 -9.482,11.005 -14.227,26.301 -14.227,45.866 0,20.492 4.888,36.235 14.685,47.24 9.786,11.318 23.394,16.973 40.813,16.973 14.381,0 26.301,-3.508 35.777,-10.547 9.477,-6.724 15.943,-16.543 19.309,-29.391 l -27.617,0.006 c -4.062,11.526 -14.449,13.895 -25.625,13.335"
   fill="#77787B" />
	<path
   style="fill:#FFFFFF;fill-opacity:1"
   id="path10"
   d="M 847.622,163.15 H 815.821 V 84.786 c 0,-9.036 -3.715,-21.208 -21.666,-21.208 -17.613,0 -21.201,13.837 -21.201,21.208 v 78.365 h -32.275 v -71.91 c 0,-20.893 6.197,-33.66 16.365,-41.946 10.072,-8.212 22.965,-10.907 36.184,-11.525 7.068,0 13.992,0.773 20.746,2.301 6.764,1.551 12.91,4.612 18.443,9.225 4.617,-3.989 10.061,-6.838 16.365,-8.532 6.295,-1.683 12.814,-2.958 19.59,-2.993 39.359,-0.206 55.154,17.814 56.465,23.594 0,0.086 0.01,101.787 0.01,101.787 h -18.215 c -4.605,0 -15.668,-3.13 -15.668,-15.668 V 84.786 c 0.08,-8.881 -3.033,-21.208 -21.672,-21.208 -18.449,0 -21.67,13.837 -21.67,21.208 z"
   fill="#77787B" />
	<path
   style="fill:#FFFFFF;fill-opacity:1"
   id="path12"
   d="m 457.994,125.382 h 30.152 c 0,0 -8.184,39.892 -53.734,39.892 -45.541,0 -56.752,-36.544 -56.752,-60.562 0,-24.012 4.264,-65.037 54.982,-66.474 46.863,-0.704 54.588,39.898 54.588,39.898 h -32.109 c 0,0 -3.107,-13.723 -22.221,-13.293 -19.107,0.435 -24.104,18.381 -24.104,35.434 0,17.059 4.246,38.399 25.466,38.399 20.173,0.617 21.953,-10.295 23.732,-13.294"
   fill="#77787B" />
	<path
   style="fill:#FFFFFF;fill-opacity:1"
   id="path14"
   d="m 625.282,40.951 h 32.104 v 77.97 c 0,0 -1.156,21.088 21.105,21.099 20.99,0.012 21.527,-18.867 21.545,-20.2 V 56.082 c 0,0 1.082,-15.13 15,-15.13 H 731.7 c 0,0 -0.018,71.727 0,72.413 -0.23,3.948 4.199,51.915 -53.209,51.721 -56.877,0 -52.848,-48.527 -53.209,-51.383 z"
   fill="#77787B" />
	<path
   style="fill:#FFFFFF;fill-opacity:1"
   id="path16"
   d="M 527.055,73.581 H 545.91 L 545.892,41.437 H 527.093 V 20.791 c 0,-5.66 -3.152,-15.594 -15.137,-15.594 h -16.509 v 134.858 c 0,14.061 5.455,22.473 17.265,22.473 0.133,0 13.85,0.011 14.348,0.011 z"
   fill="#77787B" />
	<path
   style="fill:#FFFFFF;fill-opacity:1"
   id="path18"
   d="m 579.512,162.762 v -62.84 c 0,-9.167 2.129,-15.897 6.422,-20.178 4.275,-4.28 10.844,-6.426 19.719,-6.426 h 10.541 V 40.756 c 0,0 -16.605,-0.412 -28.664,3.21 -7.742,2.329 -14.598,5.505 -20.4,10.083 -6.135,4.898 -10.941,11.399 -14.455,19.497 -3.514,8.103 -5.27,18.117 -5.27,30.043 v 59.171 h 32.107 z"
   fill="#77787B" />
</g><g
     id="g975"><path
       id="path918"
       d="m 1078.0927,37.983542 c -14.9026,0 -26.9475,3.602634 -35.3174,11.624183 -8.37,7.681652 -12.7246,19.645996 -12.7246,35.689093 v 77.496322 h 14.9029 V 82.034612 c 0,-9.109216 2.5173,-17.131296 7.6209,-23.317405 5.1037,-6.18611 13.4739,-9.449378 25.1102,-9.449378 10.9558,0 19.3261,3.330983 24.7699,9.856988 5.4439,6.526006 8.3692,14.548085 8.3692,23.657301 v 80.011022 h 14.5627 V 82.034612 c 0,-9.109216 2.9266,-17.131296 8.0302,-23.317405 5.1037,-6.18611 13.4726,-9.449378 24.7686,-9.449378 11.2961,0 19.3261,3.330983 24.7699,9.856988 5.512,6.526006 8.0303,14.548085 8.0303,23.657301 V 154.8401 c 0,4.35067 3.6738,8.02208 8.0289,8.02208 v -0.069 h 7.282 V 85.296819 c 0,-16.043097 -4.0156,-27.667545 -12.7259,-35.689093 -8.3699,-7.613674 -20.0732,-11.624183 -34.9758,-11.624183 -19.666,0 -32.7997,6.186641 -40.0809,18.55886 -8.0297,-12.372219 -21.5036,-18.55886 -40.4211,-18.558861 z"
       style="fill:#FFFFFF;fill-opacity:1;stroke-width:0.680139" /><path
       d="m 1588.4568,37.780401 c -8.7783,0 -16.7405,1.835439 -23.6815,5.098442 -6.9409,3.263003 -12.7245,7.952773 -17.4879,13.798986 -4.7634,6.18611 -8.4377,12.712116 -10.9555,20.733664 -2.5859,7.613674 -4.0152,16.043363 -4.0152,25.084597 0,9.04124 1.0893,17.47093 3.2669,25.0846 2.1776,8.02155 5.4439,14.54756 10.2073,20.39377 4.7634,5.84621 10.547,10.19609 17.4879,13.45909 6.8729,3.26301 15.2432,5.09844 25.1102,5.09844 7.6895,0 14.5624,-0.74697 20.4146,-2.92231 5.7841,-2.17533 10.5478,-5.03099 14.9029,-8.70187 4.3551,-4.01077 7.6214,-8.02075 10.5475,-13.11919 2.9261,-4.75855 5.1031,-10.19795 6.9404,-16.04416 h -15.6512 c -2.1775,9.10922 -6.6012,15.97512 -13.1339,20.73366 -6.5326,4.75855 -14.5616,7.27458 -23.6801,7.27458 -6.5326,0 -12.7259,-1.42783 -17.8295,-4.01104 -5.1036,-2.58321 -9.4582,-5.84622 -12.7245,-10.19689 -3.2664,-4.35067 -5.8517,-9.44911 -7.6209,-15.29532 -1.7693,-5.84622 -2.5186,-12.03286 -2.5186,-18.55886 v -0.20314 h 94.3841 c 0,-21.821338 -4.7637,-38.612471 -14.2224,-50.236919 -9.867,-11.624447 -23.0007,-17.47013 -39.7406,-17.47013 z m 0.7482,13.051473 c 6.1925,0 11.9763,1.088198 16.7397,3.263533 4.7634,2.175335 8.7791,5.09738 12.0454,9.108155 3.2663,3.942795 5.4433,8.701871 7.2807,13.800313 1.7692,5.098442 2.5186,10.876411 2.5186,16.722624 v 0.407611 h -79.7537 c 0.7485,-5.846214 1.8375,-11.284287 4.0151,-16.382728 1.8373,-5.438338 4.7639,-9.788213 8.0303,-13.798987 3.6746,-4.010774 7.6209,-7.274042 12.3843,-9.449377 5.1036,-2.583211 10.5472,-3.671144 16.7396,-3.671144 z"
       style="fill:#FFFFFF;fill-opacity:1;stroke-width:0.680139"
       id="path916" /><path
       d="m 1276.5898,37.711361 c -9.4588,0 -17.8277,1.835439 -24.7686,5.098442 -7.2812,3.263003 -13.1342,7.9541 -17.8295,13.800314 -4.6954,5.846213 -8.37,12.780094 -10.5476,20.393767 -2.5858,7.613673 -3.6749,15.975383 -3.6749,25.084596 0,10.53678 1.4293,19.98537 4.3554,28.00691 2.9261,7.95357 6.9418,14.54782 12.0454,19.98616 5.1037,5.50632 10.8872,9.51656 17.8282,12.03179 6.9409,2.92311 14.2216,4.35094 22.2513,4.35094 8.37,0 16.0603,-1.42677 23.9539,-4.2819 6.8729,-2.9231 12.7246,-7.2743 17.8282,-13.12052 4.7634,-5.84621 8.778,-12.37222 11.2958,-20.39376 2.5858,-8.02155 4.0151,-16.72263 4.0151,-26.57962 0,-8.701337 -1.0879,-17.063047 -3.2655,-25.084596 -2.1775,-8.021548 -5.8522,-14.615533 -10.5475,-20.393767 -4.6954,-5.778234 -10.8886,-10.537311 -17.8295,-13.800314 -7.2812,-3.263003 -15.6515,-5.098442 -25.1102,-5.098442 z m 0.1369,12.985093 c 7.2812,0 13.813,1.426502 18.9167,4.009712 5.1036,2.583211 9.4595,6.187172 12.7259,10.945718 3.2663,4.758545 5.8516,10.196617 7.2806,16.382727 1.429,6.593985 2.1784,13.11999 2.1784,20.393769 0,6.59399 -0.7497,12.7793 -1.7704,18.89743 -1.429,6.18611 -4.0143,11.62551 -7.2806,16.38405 -3.2664,4.69057 -7.6209,8.70108 -12.7246,11.62419 -5.1036,2.9231 -11.6368,4.35093 -18.918,4.35093 -6.5327,0 -12.7245,-1.15591 -17.8282,-3.67114 -5.5119,-2.51523 -9.8676,-5.77824 -13.1339,-10.53678 -3.6746,-4.75855 -6.261,-10.19662 -8.0303,-16.38273 -1.7692,-6.18611 -2.5172,-13.11999 -2.5172,-20.73366 0,-6.59399 0.748,-13.120261 2.177,-19.306371 1.429,-6.186109 4.0157,-11.692161 7.282,-16.382727 3.2663,-4.690567 7.6209,-8.702403 12.7245,-11.625509 5.1037,-2.923107 11.6369,-4.349609 18.9181,-4.349609 z"
       style="fill:#FFFFFF;fill-opacity:1;stroke-width:0.680139"
       id="path914" /><path
       id="path912"
       d="M 1504.6893,0.52725617 V 163.20207 h 14.2224 V 0.52725617 Z"
       style="fill:#FFFFFF;fill-opacity:1;stroke-width:0.680139" /><path
       d="M 1472.6387,0.52725617 V 18.746219 19.086115 h 15.6512 V 0.52725617 Z m 0.6805,41.12742983 V 163.20207 h 14.221 V 41.654687 Z"
       style="fill:#FFFFFF;fill-opacity:1;stroke-width:0.680139"
       id="path910" /><path
       d="M 1344.7752,0.18736004 V 104.60319 c 0.3403,9.85698 1.4293,18.21843 4.3554,25.8321 2.9261,8.02155 6.9404,14.54782 12.044,19.98616 5.1037,5.43834 10.9553,9.44858 17.8282,12.03179 6.8729,2.58321 14.223,4.01104 22.2527,4.35094 8.37,0 16.3989,-1.42757 23.3398,-4.75855 6.941,-2.92311 13.1342,-7.27298 17.8296,-13.11919 5.1036,-5.84622 8.7099,-12.37222 11.2958,-20.39377 2.5178,-8.02155 4.0151,-16.72395 4.0151,-26.58094 0.3402,-8.633362 -0.7488,-16.994276 -2.9944,-24.947846 -2.1776,-8.021548 -5.8522,-14.547554 -10.5475,-20.393767 -4.7634,-5.846214 -10.547,-10.197415 -17.8282,-13.800314 -6.941,-3.263003 -15.3112,-5.098442 -25.1102,-5.098442 -9.4587,0 -17.829,1.835439 -24.7699,5.098442 -6.941,3.263003 -13.1329,8.02208 -17.8282,13.800314 V 8.2094395 c 0,-4.3506696 -3.6752,-8.02207946 -8.0303,-8.02207946 z m 56.4803,50.57680396 c 7.6214,0 13.813,1.427829 18.9167,4.01104 5.1036,2.58321 9.4596,6.185844 12.7259,10.94439 3.2663,4.758545 5.8516,10.196618 7.2806,16.382727 1.429,6.18611 2.1784,13.119991 2.1784,20.393769 0.7485,6.52601 0,12.71265 -1.7704,18.89876 -1.429,6.18611 -4.0143,11.62418 -7.2806,16.38272 -3.2663,4.75854 -7.6209,8.70107 -12.7245,11.62418 -5.1037,2.92311 -11.6369,4.35094 -18.9181,4.35094 -6.9409,0 -12.7245,-1.08794 -17.8281,-3.67115 -5.1037,-2.51523 -9.4593,-6.18611 -13.134,-10.53678 -3.6746,-4.75854 -6.1929,-10.19662 -8.0302,-16.38272 -1.8373,-6.18611 -2.5173,-13.45988 -2.5173,-20.73366 0,-6.526011 0.748,-13.120261 2.177,-19.306371 1.429,-6.186109 4.0157,-11.624182 7.282,-16.382727 3.2664,-4.758546 7.6209,-8.701076 12.7246,-11.624182 5.1036,-2.923107 11.6368,-4.350936 18.918,-4.350936 z"
       style="fill:#FFFFFF;fill-opacity:1;stroke-width:0.680139"
       id="path837" /><path
       sodipodi:nodetypes="ccccccccccccccccccccccc"
       style="fill:#FFFFFF;fill-opacity:1;stroke-width:0.683684"
       id="path944"
       fill="#003057"
       d="m 1651.1812,46.102132 v -4.047484 h 20.7816 v 4.047484 h -8.0402 v 20.580425 h -4.7695 V 46.102132 Z m 32.0922,-4.047484 6.2004,17.630564 6.2004,-17.630564 h 6.9499 v 24.559307 h -4.3607 V 46.788146 l -6.9499,19.825809 h -4.0201 l -6.9499,-19.825809 v 19.825809 h -4.3607 V 42.054648 Z" /></g></g></svg>
