<svg xmlns="http://www.w3.org/2000/svg" width="458.505" height="83.547" viewBox="0 0 458.505 83.547"><g transform="translate(-26.366 -271.1)"><g transform="translate(26.366 271.1)"><path d="M37.615,312.912a35.63,35.63,0,0,1,52.131-31.569c2.064-1.3,4.128-2.446,6.115-3.516a41.7,41.7,0,0,0-60.922,51.6c1.376-1.758,2.9-3.593,4.433-5.427a37.388,37.388,0,0,1-1.758-11.084" transform="translate(-27.576 -271.1)" fill="#f78d1e"/><path d="M114.428,301.993c-.459-1.147-.917-2.293-1.452-3.363a24.761,24.761,0,0,0-1.3-2.446,42.216,42.216,0,0,0-9.02-11.084c-1.758.917-3.669,2.064-5.656,3.21a35.456,35.456,0,0,1,10.549,13.147c.382.841.764,1.758,1.07,2.6a33.782,33.782,0,0,1,1.147,3.669,35.617,35.617,0,0,1-47.927,41.583,28.62,28.62,0,0,1-3.44-1.682,25.768,25.768,0,0,1-2.446-1.452,35.821,35.821,0,0,1-11.924-12.918c-1.452,1.758-2.9,3.44-4.128,5.045a41.352,41.352,0,0,0,10.319,11.237c.764.535,1.452,1.07,2.293,1.605a25.8,25.8,0,0,0,3.134,1.835,41.652,41.652,0,0,0,61.38-36.767,43.81,43.81,0,0,0-2.6-14.218" transform="translate(-29.555 -274.399)" fill="#f78d1e"/><path d="M132.749,277.205a5.2,5.2,0,0,0-4.2-1.605c-6.5,0-19.568,6.879-34.244,17.657a7.757,7.757,0,0,1,1.452,2.064c4.969-3.593,9.631-6.8,13.988-9.4,1.987-1.223,3.9-2.293,5.656-3.21,5.58-2.9,10.166-4.586,13.071-4.586a3.164,3.164,0,0,1,2.293.688c1.223,1.376.153,6.115-6.344,14.982.459.841.841,1.605,1.3,2.446,7.338-9.555,9.708-15.976,7.032-19.033" transform="translate(-42.372 -272.16)" fill="#fff"/><path d="M72.179,301.9a3.752,3.752,0,0,0-3.745,3.746,4.463,4.463,0,0,0,.306,1.376c-1.223.994-2.446,1.987-3.593,2.981-.612.535-1.3,1.07-1.911,1.605C51.464,321.7,41.3,332.246,34.495,341.189c-7.338,9.708-9.708,16.129-7.109,19.186a5.17,5.17,0,0,0,4.2,1.529c3.9,0,10.243-2.446,17.81-6.727l-2.293-1.605c-6.65,3.745-12.154,5.886-15.517,5.886a3.164,3.164,0,0,1-2.293-.688c-1.223-1.452-.076-6.5,7.185-16.052a1.666,1.666,0,0,1,.306-.382c1.223-1.605,2.675-3.363,4.128-5.045a226.816,226.816,0,0,1,23.925-23.7c.688-.535,1.3-1.07,1.987-1.682,1.223-.994,2.37-1.987,3.593-2.981.076.076.153.076.229.153a3.814,3.814,0,0,0,1.605.382,3.784,3.784,0,0,0-.076-7.567" transform="translate(-26.366 -278.357)" fill="#fff"/><path d="M615.885,297.949a1.168,1.168,0,0,0,.306-.764.8.8,0,0,0-.306-.764,1.734,1.734,0,0,0-.994-.229h-1.07v1.987h1.07a1.576,1.576,0,0,0,.994-.229m2.9,4.433a5.48,5.48,0,0,0,1.605-3.975,5.26,5.26,0,0,0-1.682-3.975,5.733,5.733,0,0,0-9.784,4.051,5.545,5.545,0,0,0,1.682,4.051,5.31,5.31,0,0,0,4.051,1.682,5.742,5.742,0,0,0,4.128-1.835h-2.37l-1.758-2.522h-.841v2.522H611.6v-8.1h3.21a4.261,4.261,0,0,1,2.752.688,2.649,2.649,0,0,1,.841,2.14,2.481,2.481,0,0,1-1.605,2.446Zm.917-9.02a6.986,6.986,0,0,1,2.064,5.045,7.243,7.243,0,0,1-12.307,5.2,6.862,6.862,0,0,1-2.064-5.045,7.161,7.161,0,0,1,2.064-5.121,6.813,6.813,0,0,1,5.121-2.14,6.635,6.635,0,0,1,5.121,2.064" transform="translate(-163.266 -275.858)" fill="#fff"/></g><path d="M204.155,295.3v9.937h-25v10.4h22.473v9.478H179.16v10.472h25.76v9.861H168V295.3Z" transform="translate(-33.371 -5.702)" fill="#fff"/><g transform="translate(224.292 286.464)"><path d="M305.633,319.69a8.165,8.165,0,0,0-7.185,3.44c-1.605,2.293-2.37,5.274-2.37,9.02v16.74H285.3v-38.6h10.778v5.121a18.582,18.582,0,0,1,5.2-4.051,14.948,14.948,0,0,1,6.344-1.758l.076,10.09h-2.064Z" transform="translate(-285.3 -295.535)" fill="#fff"/><path d="M338.211,314.539v17.275a5.125,5.125,0,0,0,1.147,3.516,3.553,3.553,0,0,0,2.752,1.223,6.364,6.364,0,0,0,5.121-2.752l4.051,7.567q-5.045,4.586-10.549,4.586a12.974,12.974,0,0,1-9.4-3.669c-2.522-2.446-3.822-5.733-3.822-10.013v-17.81H323v-7.72h4.51V295.2h10.854v11.542h9.326v7.72h-9.478Z" transform="translate(-294.183 -292.142)" fill="#fff"/><path d="M378.178,323.686v20.791H367.4V291.2h10.778v18.957c3.287-3.287,6.879-4.969,10.931-4.969a13.91,13.91,0,0,1,10.243,4.281q4.128,4.357,4.128,11.466V344.4H392.7V323.3c0-5.962-2.217-8.867-6.5-8.867a7.745,7.745,0,0,0-5.656,2.37,9.49,9.49,0,0,0-2.37,6.879" transform="translate(-304.644 -291.2)" fill="#fff"/></g><path d="M424.4,345.444V295.3h11.16v40.207h21.4v9.937Z" transform="translate(-93.782 -5.702)" fill="#fff"/><g transform="translate(369.372 285.394)"><path d="M486.8,344.148H476.017v-38.6H486.8Zm-9.861-43.494a6.461,6.461,0,1,1,4.51,1.835,6.05,6.05,0,0,1-4.51-1.835" transform="translate(-475.1 -289.8)" fill="#fff"/><path d="M512.178,327.334v21.556H501.4v-38.6h10.778v4.281c3.287-3.287,6.879-4.969,11.007-4.969a13.669,13.669,0,0,1,10.243,4.281q4.128,4.357,4.128,11.466v23.467H526.778V327.028c0-5.962-2.217-8.867-6.5-8.867a7.745,7.745,0,0,0-5.656,2.37c-1.605,1.452-2.446,3.745-2.446,6.8" transform="translate(-481.297 -294.465)" fill="#fff"/></g><path d="M569.978,344.5H559.2V291.3h10.778v27.289l12-12.765h13.53l-14.676,15.67L596.12,344.5H583.355l-9.861-14.753-3.516,3.669Z" transform="translate(-125.543 -4.759)" fill="#fff"/><path d="M249.4,336.847a8.22,8.22,0,0,1-6.344,2.981,8.527,8.527,0,0,1-6.5-2.981,10.834,10.834,0,0,1-2.828-7.644,11.3,11.3,0,0,1,2.752-7.8,8.223,8.223,0,0,1,12.918,0,11.58,11.58,0,0,1,2.6,7.8,11.175,11.175,0,0,1-2.6,7.644m2.446-22.779a14.815,14.815,0,0,0-11.466-4.969,16.576,16.576,0,0,0-12.307,5.5c-3.516,3.669-5.274,8.332-5.274,14.065a20.49,20.49,0,0,0,5.351,14.447c3.593,3.9,7.644,5.809,12.23,5.809a14.113,14.113,0,0,0,11.389-5.656v5.121h10.778V309.864H251.77v4.2Z" transform="translate(-46.283 -8.953)" fill="#fff"/></g></svg>