<svg xmlns="http://www.w3.org/2000/svg" width="78" height="71.266" viewBox="0 0 78 71.266">
  <g id="logo-icon" transform="translate(-26.366 -271.1)">
    <path id="Path_12111" data-name="Path 12111" d="M36.716,306.766a30.393,30.393,0,0,1,44.468-26.929c1.76-1.108,3.521-2.086,5.216-3a35.573,35.573,0,0,0-51.966,44.012c1.174-1.5,2.478-3.065,3.782-4.629a31.892,31.892,0,0,1-1.5-9.454" transform="translate(-1.786)" fill="#f78d1e"/>
    <path id="Path_12112" data-name="Path 12112" d="M103.472,299.51c-.391-.978-.782-1.956-1.239-2.869a21.122,21.122,0,0,0-1.108-2.086,36.01,36.01,0,0,0-7.694-9.454c-1.5.782-3.13,1.76-4.825,2.738a30.244,30.244,0,0,1,9,11.215c.326.717.652,1.5.913,2.217a28.81,28.81,0,0,1,.978,3.13,30.381,30.381,0,0,1-40.882,35.47,24.411,24.411,0,0,1-2.934-1.434,21.984,21.984,0,0,1-2.086-1.239,30.556,30.556,0,0,1-10.172-11.019c-1.239,1.5-2.478,2.934-3.521,4.3a35.274,35.274,0,0,0,8.8,9.585c.652.456,1.239.913,1.956,1.369A22.009,22.009,0,0,0,53.332,343a35.529,35.529,0,0,0,52.357-31.362,37.37,37.37,0,0,0-2.217-12.128" transform="translate(-4.709 -4.872)" fill="#f78d1e"/>
    <path id="Path_12113" data-name="Path 12113" d="M127.1,276.969a4.437,4.437,0,0,0-3.586-1.369c-5.542,0-16.692,5.868-29.211,15.062a6.616,6.616,0,0,1,1.239,1.76c4.238-3.065,8.215-5.8,11.932-8.02,1.7-1.043,3.325-1.956,4.825-2.739,4.76-2.478,8.672-3.912,11.15-3.912a2.7,2.7,0,0,1,1.956.587c1.043,1.174.13,5.216-5.412,12.78.391.717.717,1.369,1.108,2.086,6.259-8.15,8.281-13.627,6-16.235" transform="translate(-23.639 -1.566)" fill="#4d5156"/>
    <path id="Path_12114" data-name="Path 12114" d="M65.444,301.9a3.2,3.2,0,0,0-3.195,3.195,3.807,3.807,0,0,0,.261,1.174c-1.043.848-2.086,1.7-3.065,2.543-.522.456-1.108.913-1.63,1.369-10.041,8.607-18.713,17.6-24.516,25.233-6.259,8.281-8.281,13.758-6.064,16.366a4.41,4.41,0,0,0,3.586,1.3c3.325,0,8.737-2.086,15.192-5.738l-1.956-1.369C38.385,349.172,33.691,351,30.822,351a2.7,2.7,0,0,1-1.956-.587c-1.043-1.239-.065-5.542,6.129-13.693a1.422,1.422,0,0,1,.261-.326c1.043-1.369,2.282-2.869,3.521-4.3a193.472,193.472,0,0,1,20.408-20.213c.587-.456,1.108-.913,1.7-1.434,1.043-.848,2.021-1.7,3.064-2.543.065.065.13.065.2.13a3.254,3.254,0,0,0,1.369.326,3.228,3.228,0,0,0-.065-6.455" transform="translate(0 -10.718)" fill="#4d5156"/>
  </g>
</svg>
