<svg xmlns="http://www.w3.org/2000/svg" width="57" height="57" viewBox="0 0 57 57">
  <g id="Group_1602" data-name="Group 1602" transform="translate(-111 -750)">
    <path id="Path_12181" data-name="Path 12181" d="M28.5,0A28.5,28.5,0,1,1,0,28.5,28.5,28.5,0,0,1,28.5,0Z" transform="translate(111 750)" fill="#12284c"/>
    <path id="Icon_awesome-phone" data-name="Icon awesome-phone" d="M1.053,1.393,6.943.034A1.368,1.368,0,0,1,8.5.821L11.22,7.165a1.356,1.356,0,0,1-.391,1.586L7.4,11.56A20.992,20.992,0,0,0,17.433,21.6l2.809-3.432a1.358,1.358,0,0,1,1.586-.391l6.344,2.719a1.376,1.376,0,0,1,.793,1.563l-1.359,5.891A1.359,1.359,0,0,1,26.281,29,26.278,26.278,0,0,1,0,2.719,1.358,1.358,0,0,1,1.053,1.393Z" transform="translate(125 764.001)" fill="#fff"/>
  </g>
</svg>
