<svg xmlns="http://www.w3.org/2000/svg" width="490.376" height="184.809" viewBox="0 0 490.376 184.809"><g transform="translate(0 0)"><path d="M373.851,116.564a2.517,2.517,0,0,1-2.632-2.648V36.535H344.936A2.517,2.517,0,0,1,342.32,33.9V23.229a2.517,2.517,0,0,1,2.632-2.648H414.9a2.517,2.517,0,0,1,2.615,2.648V33.9a2.517,2.517,0,0,1-2.632,2.632H388.595v77.381a2.517,2.517,0,0,1-2.632,2.648ZM172.569,77.939l-13.8-39.589-13.91,39.589Zm30.6,35.5a2.19,2.19,0,0,1-2.043,3.122H188.67a3.367,3.367,0,0,1-3.482-2.517l-7.078-20.383H139.371l-7.078,20.383a3.367,3.367,0,0,1-3.482,2.517H117.059a2.239,2.239,0,0,1-2.043-3.122l32.512-90.457a3.269,3.269,0,0,1,3.482-2.4h16.084a3.4,3.4,0,0,1,3.6,2.4L203.2,113.442m93.171-9.807c7.666,0,12.831-3.71,17.032-10.069L293.953,72.659c-7.437,4.2-12.243,8.4-12.243,16.8a14.2,14.2,0,0,0,14.711,14.155m5.394-70.287c-6.244,0-9.807,3.956-9.807,9.235,0,4.086,2.158,7.683,7.078,12.962,8.516-4.9,12.112-7.911,12.112-13.191,0-4.9-3.122-9.007-9.35-9.007m53.14,79.9c1.635,1.635.6,3.351-1.324,3.351H338.43a4.9,4.9,0,0,1-4.446-2.043l-9.121-10.069c-6.113,8.173-14.711,14.27-28.785,14.27-17.523,0-31.319-10.559-31.319-28.67,0-13.927,7.437-21.348,18.716-27.592-5.508-6.358-8.042-13.077-8.042-18.961,0-14.875,10.445-25.074,26.153-25.074,16.068,0,25.908,9.481,25.908,23.522,0,12-8.631,18.716-17.751,23.75l13.436,14.515,7.552-13.207a4.054,4.054,0,0,1,3.956-2.158h11.638c1.929,0,3.008,1.324,1.8,3.367l-13.5,23.048,20.269,21.952M235.174,116.58a2.517,2.517,0,0,0,2.648-2.648v-77.4h26.268a2.517,2.517,0,0,0,2.632-2.632V23.229a2.517,2.517,0,0,0-2.632-2.648H194.146a2.517,2.517,0,0,0-2.632,2.648V33.9a2.517,2.517,0,0,0,2.632,2.632h26.268v77.381A2.517,2.517,0,0,0,223,116.564ZM114.82,172.711h2.6l2.877-7.5H130.1l2.877,7.5h2.7l-8.647-22.345c-.245-.6-.67-.883-1.814-.883s-1.635.278-1.814.883Zm6.26-9.644,4.168-10.854,4.135,10.854Zm17.653,2.6c0,4.479,2.239,7.47,6.718,7.47a6.7,6.7,0,0,0,5.77-3.057v.539c0,1.847.719,2.239,1.487,2.239a1.088,1.088,0,0,0,.785-.245V155.777h-2.321v11.605a5.983,5.983,0,0,1-5.59,3.6c-2.877,0-4.56-2.06-4.56-5.443v-9.807H138.7Zm20.955,2.06c0,3.531,1.422,5.41,4.74,5.41a4.119,4.119,0,0,0,2.959-1,1.52,1.52,0,0,0,.54-1.112c0-.883-.719-1.21-.785-1.144a3.269,3.269,0,0,1-2.632,1.242c-1.88,0-2.534-1.177-2.534-3.661V157.82h5.443v-2.06h-5.476V152.8c0-.85-.392-1.1-1-1.1H160.7c-.6,0-1.03.245-1.03,1.1v2.959h-2.534v2.06h2.534Zm11.605,4.9h2.321v-9.4a5.362,5.362,0,0,1,5.59-5.8c2.844,0,4.56,2.027,4.56,5.443v9.807h2.3v-9.889c0-4.479-2.239-7.47-6.718-7.47a6.538,6.538,0,0,0-5.737,3.138V150.71c0-1.847-.752-2.239-1.536-2.239a1.088,1.088,0,0,0-.785.245Zm18.618-8.5a8.745,8.745,0,1,0,8.761-8.859,8.549,8.549,0,0,0-8.745,8.925Zm2.354,0a7.6,7.6,0,1,1,0,.065Zm19.141,8.5h2.3v-7.617c0-4.348,1.177-7.5,4.2-7.5a2.943,2.943,0,0,1,2.06.719,1.408,1.408,0,0,0,.637-1.21c0-1.112-.883-1.749-2.452-1.749a4.43,4.43,0,0,0-4.479,3.563V157.8c0-1.847-.719-2.239-1.487-2.239a1.088,1.088,0,0,0-.785.245Zm13.7-21.249a1.373,1.373,0,0,0,1.635-1.537,1.34,1.34,0,0,0-1.487-1.537,1.536,1.536,0,0,0,0,3.057Zm-1.144,21.249h2.3V156.66c0-.85-.425-1.1-1.03-1.1h-.245c-.6,0-1.03.245-1.03,1.1Zm6.653,0h12.946c.85,0,1.177-.278,1.177-.883v-.213c0-.6-.327-.883-1.177-.883H233.523l10.968-13.387V155.63h-12.7c-.85,0-1.177.278-1.177.883v.212c0,.6.327.883,1.177.883H241.4l-10.788,13.175Zm16.346-8.4a8.4,8.4,0,0,0,8.761,8.827,9.055,9.055,0,0,0,6.228-2.174,2.615,2.615,0,0,0,.932-1.635,1.373,1.373,0,0,0-1.357-1.324,6.08,6.08,0,0,1-5.8,3.024,6.244,6.244,0,0,1-6.44-6.2h13.175c.719,0,.964-.147.964-.785v-.213c0-5.165-3.138-8.549-7.895-8.549a8.516,8.516,0,0,0-8.582,9.088Zm2.419-1.422a6.179,6.179,0,0,1,6.113-5.509,5.329,5.329,0,0,1,5.443,5.509Zm16.836,1.389c0,5.378,3.531,8.859,8.009,8.859A7.535,7.535,0,0,0,280.566,170v2.632h2.272V150.71c0-1.847-.752-2.239-1.537-2.239a1.088,1.088,0,0,0-.785.245v9.432a7.274,7.274,0,0,0-6.162-2.811c-4.708,0-8.157,3.6-8.157,8.925Zm2.354,0c0-4.086,2.387-6.865,5.983-6.865a6.162,6.162,0,0,1,6.015,3.988v4.054a5.966,5.966,0,0,1-6.081,5.688c-3.449.033-5.95-2.844-5.95-6.833Zm25.091,8.467h2.387v-9.677h2.877l7.47,8.974a1.945,1.945,0,0,0,1.488.85c1,0,1.635-.964,1.455-1.144l-7.323-8.68c4.74,0,7.617-2.419,7.617-6.685s-2.926-6.653-8.287-6.653h-6.424A1.357,1.357,0,0,0,293.561,151Zm2.387-11.736v-9.1h5.41c3.809,0,5.737,1.635,5.737,4.56,0,2.746-1.782,4.56-5.59,4.56ZM312.7,164.2a8.4,8.4,0,0,0,8.761,8.827,9.055,9.055,0,0,0,6.228-2.174,2.615,2.615,0,0,0,.932-1.635,1.373,1.373,0,0,0-1.357-1.324,6.081,6.081,0,0,1-5.8,3.024,6.244,6.244,0,0,1-6.44-6.2H328.2c.719,0,.964-.147.964-.785v-.212c0-5.165-3.138-8.549-7.9-8.549a8.516,8.516,0,0,0-8.6,9.121Zm2.419-1.422a6.179,6.179,0,0,1,6.113-5.509,5.329,5.329,0,0,1,5.443,5.509Zm19.043,4.9c0,3.531,1.422,5.41,4.74,5.41a4.119,4.119,0,0,0,2.959-1,1.536,1.536,0,0,0,.539-1.112c0-.883-.719-1.21-.785-1.144a3.269,3.269,0,0,1-2.632,1.242c-1.88,0-2.534-1.177-2.534-3.661v-9.644h5.476v-2.06h-5.476v-2.959c0-.85-.392-1.1-1-1.1h-.245c-.6,0-1.03.245-1.03,1.1v2.959h-2.534v2.06h2.5Zm10.363.637c0,2.844,2.141,4.74,5.835,4.74a7.633,7.633,0,0,0,6.342-2.991v2.6h2.239V161.874c0-4.086-2.566-6.538-6.865-6.538a8.4,8.4,0,0,0-5.983,2.207,2.926,2.926,0,0,0-.932,1.635,1.357,1.357,0,0,0,1.324,1.357,5.8,5.8,0,0,1,5.41-3.138c3.057,0,4.773,1.635,4.773,4.511v.6h-.36c-7.862.262-11.818,1.9-11.818,5.852Zm2.354,0c0-2.664,2.991-3.743,9.317-3.956h.458v1.635a5.656,5.656,0,0,1-6.081,5.2c-2.337-.016-3.727-1.128-3.727-2.828ZM365.2,151.527a1.373,1.373,0,0,0,1.635-1.536,1.34,1.34,0,0,0-1.635-1.5,1.536,1.536,0,0,0,0,3.057Zm-1.144,21.249h2.321V156.66c0-.85-.425-1.1-1.03-1.1h-.245c-.6,0-1.03.245-1.03,1.1Zm7.8,0h2.321V150.71c0-1.847-.752-2.239-1.536-2.239a1.088,1.088,0,0,0-.785.245Zm6.538-8.4a8.4,8.4,0,0,0,8.761,8.827,9.055,9.055,0,0,0,6.228-2.174,2.615,2.615,0,0,0,.932-1.635,1.373,1.373,0,0,0-1.357-1.324,6.081,6.081,0,0,1-5.8,3.024,6.244,6.244,0,0,1-6.44-6.2h13.175c.719,0,.964-.147.964-.785V163.9c0-5.165-3.138-8.549-7.895-8.549a8.516,8.516,0,0,0-8.68,8.941Zm2.419-1.422a6.179,6.179,0,0,1,6.113-5.509,5.329,5.329,0,0,1,5.443,5.509Zm17.98,9.807h2.321v-7.617c0-4.348,1.177-7.5,4.2-7.5a2.942,2.942,0,0,1,2.06.719,1.408,1.408,0,0,0,.637-1.21c0-1.111-.883-1.749-2.452-1.749a4.43,4.43,0,0,0-4.479,3.563v-1.03c0-1.847-.719-2.239-1.487-2.239a1.088,1.088,0,0,0-.785.245Z" transform="translate(72.862 11.599)" fill="#fff"/><path d="M31.057,143.345a80.094,80.094,0,0,0,101.834-3.024c.163-.147.082-.245-.082-.147-6.326,4.234-24.339,13.436-52.715,13.436-24.649,0-40.227-5.509-49.037-10.412-.163-.082-.229,0-.1.147m54.562,4.086c19.713,0,41.387-5.378,54.333-16.019a43.332,43.332,0,0,0,9.955-11.949,76.512,76.512,0,0,0,4.9-10.02c0-.163,0-.245-.163,0-12.1,17.7-46.994,28.769-83.02,28.769-25.467,0-52.862-8.173-63.585-23.7-.1-.147-.212-.082-.147.082,9.987,21.249,40.309,32.855,77.757,32.855M64.01,112.19c-41,0-60.332-19.059-63.847-32.136,0-.2-.163-.147-.163,0A79.555,79.555,0,0,0,1.193,93.867a16.084,16.084,0,0,0,4.037,7.012c9.938,10.347,34.686,24.862,77.561,24.862,58.4,0,71.758-19.468,74.488-25.859,1.945-4.593,2.91-12.864,2.91-19.827,0-1.635,0-3.024-.1-4.348,0-.212-.131-.229-.163,0-2.91,15.659-52.813,36.484-95.95,36.484M7.732,45.728A79.473,79.473,0,0,0,1.994,62.319a5.312,5.312,0,0,0,.425,3.89c4.9,10.429,29.766,27.118,87.76,27.118,35.372,0,62.849-8.7,67.312-24.519a18.863,18.863,0,0,0-.2-10.167,77.659,77.659,0,0,0-5.28-13.894c0-.131-.163-.114-.147,0,.687,20.808-57.308,34.228-86.632,34.228-31.694,0-58.158-12.635-58.158-28.589a19.353,19.353,0,0,1,.8-4.659c0-.147-.082-.163-.147,0m125.29-25.565a3.269,3.269,0,0,1,.507,1.847c0,8.908-27.232,24.649-70.581,24.649C31.09,46.66,25.14,34.842,25.14,27.323a13.077,13.077,0,0,1,3.269-8.173c.131-.163,0-.229-.131-.1A80.308,80.308,0,0,0,17,30.772a10.183,10.183,0,0,0-2.583,4.9c0,15.577,39.05,26.872,75.55,26.872,38.9,0,56.262-12.7,56.262-23.865,0-3.988-1.553-6.326-5.525-10.837a94.544,94.544,0,0,0-7.6-7.683c-.131-.1-.212,0-.131.1M121.04,11.353a80.012,80.012,0,0,0-82.53.343c-3.563,2.125-5.59,3.907-5.59,6.244,0,6.767,15.79,14.025,43.79,14.025,27.722-.049,49.152-8.009,49.152-15.659,0-1.831-1.635-3.106-4.9-5.034" transform="translate(0 -0.062)" fill="#00b0eb"/></g></svg>