<svg xmlns="http://www.w3.org/2000/svg" width="77.497" height="76.6" viewBox="0 0 77.497 76.6">
  <g id="Group_214" data-name="Group 214" transform="translate(-1322.061 -139.022)">
    <g id="Group_213" data-name="Group 213">
      <path id="Path_211" data-name="Path 211" d="M1329.464,158.193h-1.113a6.309,6.309,0,0,0-6.29,6.29V173.6a6.309,6.309,0,0,0,6.29,6.29h1.12a33.225,33.225,0,0,1-.007-21.694Z" fill="#be1622"/>
      <path id="Path_212" data-name="Path 212" d="M1393.268,158.193h-1.119a33.226,33.226,0,0,1-.007,21.694h1.126a6.308,6.308,0,0,0,6.29-6.29v-9.114A6.308,6.308,0,0,0,1393.268,158.193Z" fill="#be1622"/>
      <path id="Path_213" data-name="Path 213" d="M1360.809,139.022a30.012,30.012,0,0,0-16.371,55.167l-1.006,5.91a1.537,1.537,0,0,0,2.376,1.531l5.9-3.986a30.017,30.017,0,1,0,9.1-58.622Zm21.318,28.833a9.412,9.412,0,0,1-9.412,9.412h-24.366a9.412,9.412,0,0,1-9.412-9.412h0a9.412,9.412,0,0,1,9.412-9.411h24.366a9.412,9.412,0,0,1,9.412,9.411Z" fill="#be1622"/>
      <path id="Path_214" data-name="Path 214" d="M1350.259,163.322a4.534,4.534,0,1,0,4.533,4.533A4.534,4.534,0,0,0,1350.259,163.322Z" fill="#be1622"/>
      <circle id="Ellipse_146" data-name="Ellipse 146" cx="4.534" cy="4.534" r="4.534" transform="translate(1366.272 163.322)" fill="#be1622"/>
    </g>
    <ellipse id="Ellipse_147" data-name="Ellipse 147" cx="16.131" cy="2.016" rx="16.131" ry="2.016" transform="translate(1344.401 211.589)" fill="#bababa" opacity="0.5"/>
  </g>
</svg>
