<svg xmlns="http://www.w3.org/2000/svg" width="45" height="45" viewBox="0 0 45 45">
  <g id="close_button" data-name="close button" transform="translate(-1532.31 -78.339)">
    <circle id="Ellipse_148" data-name="Ellipse 148" cx="22.5" cy="22.5" r="22.5" transform="translate(1532.31 78.339)" fill="#a3a3a3"/>
    <g id="surface1">
      <path id="Path_218" data-name="Path 218" d="M1548.943,93.3a1.672,1.672,0,0,0-1.161,2.868l4.665,4.666-4.665,4.666a1.671,1.671,0,1,0,2.362,2.362l4.666-4.666,4.665,4.666a1.671,1.671,0,1,0,2.363-2.362l-4.666-4.666,4.666-4.666a1.671,1.671,0,1,0-2.363-2.362l-4.665,4.665-4.666-4.665A1.68,1.68,0,0,0,1548.943,93.3Z" fill="#fff"/>
    </g>
  </g>
</svg>
