<svg xmlns="http://www.w3.org/2000/svg" width="16.718" height="16.72" viewBox="0 0 16.718 16.72">
  <g id="surface1" transform="translate(-1485.398 -715.01)">
    <path id="Path_217" data-name="Path 217" d="M1501.988,715.081a.33.33,0,0,0-.361-.031l-16.056,8.7a.325.325,0,0,0-.171.321.328.328,0,0,0,.226.285l4.564,1.49-.442,4.518a.329.329,0,0,0,.2.336.324.324,0,0,0,.132.028.332.332,0,0,0,.249-.112l2.878-3.252,4.334,4.273a.336.336,0,0,0,.233.095.349.349,0,0,0,.09-.013.328.328,0,0,0,.231-.238l4.015-16.056A.331.331,0,0,0,1501.988,715.081Zm-11.127,10.7,6.527-5.278-4.448,6.159-2.434,2.748Z" fill="#fbfbfb"/>
  </g>
</svg>
