<svg xmlns="http://www.w3.org/2000/svg" xmlns:xlink="http://www.w3.org/1999/xlink" width="934.303" height="934.309" viewBox="0 0 934.303 934.309"><defs><linearGradient id="a" x1="0.5" x2="0.5" y2="1" gradientUnits="objectBoundingBox"><stop offset="0" stop-color="#01aaf4"/><stop offset="1" stop-color="#00692c"/></linearGradient><linearGradient id="r" x1="-8.705" y1="0.5" x2="9.705" y2="0.5" xlink:href="#a"/><linearGradient id="s" x1="-3.908" y1="0.5" x2="4.908" y2="0.5" xlink:href="#a"/><linearGradient id="t" x1="-2.398" y1="0.5" x2="3.398" y2="0.5" xlink:href="#a"/><linearGradient id="u" x1="-1.659" y1="0.5" x2="2.659" y2="0.5" xlink:href="#a"/><linearGradient id="v" x1="-1.22" y1="0.5" x2="2.22" y2="0.5" xlink:href="#a"/><linearGradient id="w" x1="-0.929" y1="0.5" x2="1.929" y2="0.5" xlink:href="#a"/><linearGradient id="x" x1="-0.723" y1="0.5" x2="1.723" y2="0.5" xlink:href="#a"/><linearGradient id="y" x1="-0.568" y1="0.5" x2="1.568" y2="0.5" xlink:href="#a"/><linearGradient id="z" x1="-0.448" y1="0.5" x2="1.448" y2="0.5" xlink:href="#a"/><linearGradient id="aa" x1="-0.353" y1="0.5" x2="1.353" y2="0.5" xlink:href="#a"/><linearGradient id="ab" x1="-0.275" y1="0.5" x2="1.275" y2="0.5" xlink:href="#a"/><linearGradient id="ac" x1="-0.21" y1="0.5" x2="1.21" y2="0.5" xlink:href="#a"/><linearGradient id="ad" x1="-0.155" y1="0.5" x2="1.155" y2="0.5" xlink:href="#a"/><linearGradient id="ae" x1="-0.108" y1="0.5" x2="1.108" y2="0.5" xlink:href="#a"/><linearGradient id="af" x1="-0.067" y1="0.5" x2="1.067" y2="0.5" xlink:href="#a"/><linearGradient id="ag" x1="-0.031" y1="0.5" x2="1.031" y2="0.5" xlink:href="#a"/><linearGradient id="ah" x1="0" y1="0.5" x2="1" y2="0.5" xlink:href="#a"/></defs><g transform="translate(-933.888 -507.174)" opacity="0.09"><g transform="translate(933.888 507.174)"><path d="M1048.082,608.86a12.507,12.507,0,1,0,12.5,12.5A12.521,12.521,0,0,0,1048.082,608.86Zm0,37.882a25.375,25.375,0,1,1,25.372-25.377A25.4,25.4,0,0,1,1048.082,646.742Z" transform="translate(-580.928 -154.21)" fill="url(#a)"/><path d="M1070.142,602.518a40.894,40.894,0,0,0-28.924,69.83,41.4,41.4,0,0,0,6.014,4.969,40.859,40.859,0,0,0,45.815,0,41.176,41.176,0,0,0,10.982-10.983,40.9,40.9,0,0,0-33.888-63.816Zm0-12.077a52.749,52.749,0,0,1,20.622,4.168,53.189,53.189,0,0,1,28.108,28,52.833,52.833,0,0,1-4.785,50.406,53.256,53.256,0,0,1-23.129,19.145,52.886,52.886,0,0,1-50.406-4.785,53.3,53.3,0,0,1-7.8-6.417,53.858,53.858,0,0,1-6.446-7.769,52.74,52.74,0,0,1-9.152-29.765,52.8,52.8,0,0,1,9.038-29.591,53.18,53.18,0,0,1,23.129-19.14A52.726,52.726,0,0,1,1070.142,590.441Z" transform="translate(-602.988 -176.27)" fill="url(#a)"/><path d="M1092.2,596.181a69.185,69.185,0,0,0-49,20.3,69.291,69.291,0,0,0-14.828,21.96,69.3,69.3,0,0,0,102.614,84.484,69.577,69.577,0,0,0,25.044-30.4,69.213,69.213,0,0,0-6.387-65.826,69.507,69.507,0,0,0-30.4-25.044A68.883,68.883,0,0,0,1092.2,596.181Zm0-11.291a80.145,80.145,0,0,1,45.03,13.753,80.888,80.888,0,0,1,29.147,35.291,80.809,80.809,0,0,1,.08,62.926A80.6,80.6,0,0,1,1011.6,665.484a80.265,80.265,0,0,1,13.753-45.03,80.9,80.9,0,0,1,35.291-29.148A80.172,80.172,0,0,1,1092.2,584.89Z" transform="translate(-625.048 -198.33)" fill="url(#a)"/><path d="M1114.261,589.839a97.275,97.275,0,0,0-54.659,16.713,98,98,0,0,0-35.34,42.9,97.565,97.565,0,0,0,9,92.75,98.111,98.111,0,0,0,42.9,35.341,97.526,97.526,0,0,0,92.75-9.008,97.976,97.976,0,0,0,35.34-42.9,97.562,97.562,0,0,0-9-92.75,98,98,0,0,0-42.9-35.34A97.094,97.094,0,0,0,1114.261,589.839Zm0-10.5a108.016,108.016,0,0,1,76.441,31.635,108.278,108.278,0,0,1,23.184,34.286A108.077,108.077,0,0,1,1204,748.018a108.85,108.85,0,0,1-29.118,29.163,108.062,108.062,0,0,1-121.092.1,108.791,108.791,0,0,1-29.163-29.123,108.041,108.041,0,0,1-.1-121.088,108.979,108.979,0,0,1,29.118-29.167,107.748,107.748,0,0,1,60.623-18.568Z" transform="translate(-647.108 -220.39)" fill="url(#a)"/><path d="M1136.321,583.5a125.48,125.48,0,0,0-70.537,21.557,126.526,126.526,0,0,0-45.631,55.406,125.922,125.922,0,0,0,11.624,119.675,126.482,126.482,0,0,0,55.4,45.632,125.922,125.922,0,0,0,119.675-11.624,126.5,126.5,0,0,0,45.631-55.4,125.918,125.918,0,0,0-11.625-119.675,126.464,126.464,0,0,0-55.4-45.637A125.367,125.367,0,0,0,1136.321,583.5Zm0-9.714a135.121,135.121,0,0,1,75.908,23.184,136.222,136.222,0,0,1,49.164,59.614,135.649,135.649,0,0,1-12.44,128.931,136.223,136.223,0,0,1-59.614,49.163,135.64,135.64,0,0,1-128.931-12.44,136.284,136.284,0,0,1-49.163-59.613,135.644,135.644,0,0,1,12.439-128.931,136.554,136.554,0,0,1,36.589-36.628,135.162,135.162,0,0,1,76.047-23.278Z" transform="translate(-669.167 -242.449)" fill="url(#a)"/><path d="M1158.381,577.16a153.733,153.733,0,0,0-86.414,26.412,155.025,155.025,0,0,0-55.928,67.9,154.259,154.259,0,0,0,14.246,146.6,155.023,155.023,0,0,0,67.9,55.928,154.257,154.257,0,0,0,146.6-14.246,155.025,155.025,0,0,0,55.928-67.9,154.259,154.259,0,0,0-14.246-146.6,155.026,155.026,0,0,0-67.9-55.928A153.564,153.564,0,0,0,1158.381,577.16Zm0-8.923a162.7,162.7,0,0,1,91.348,27.9,164.008,164.008,0,0,1,59.171,71.775,163.209,163.209,0,0,1-14.992,155.1,164,164,0,0,1-71.775,59.171,163.17,163.17,0,0,1-155.1-15,163.98,163.98,0,0,1-59.171-71.77,163.209,163.209,0,0,1,14.992-155.1,163.9,163.9,0,0,1,71.775-59.171A162.437,162.437,0,0,1,1158.381,568.237Z" transform="translate(-691.227 -264.509)" fill="url(#a)"/><path d="M1180.441,570.828a182.054,182.054,0,0,0-102.291,31.257,183.429,183.429,0,0,0-66.219,80.4,182.659,182.659,0,0,0,16.861,173.528,183.442,183.442,0,0,0,80.405,66.219,182.656,182.656,0,0,0,173.528-16.862,183.443,183.443,0,0,0,66.219-80.4,182.656,182.656,0,0,0-16.862-173.529,183.755,183.755,0,0,0-49.357-49.357,182.054,182.054,0,0,0-102.286-31.257Zm0-8.143A190.2,190.2,0,0,1,1287.228,595.3a191.614,191.614,0,0,1,69.178,83.937,190.8,190.8,0,0,1-17.543,181.278,191.623,191.623,0,0,1-83.937,69.178,190.737,190.737,0,0,1-181.278-17.548,191.571,191.571,0,0,1-69.178-83.931,190.74,190.74,0,0,1,17.548-181.278,191.579,191.579,0,0,1,83.932-69.179A189.8,189.8,0,0,1,1180.441,562.685Z" transform="translate(-713.286 -286.573)" fill="url(#a)"/><path d="M1202.5,564.486a210.325,210.325,0,0,0-118.163,36.106,211.865,211.865,0,0,0-76.515,92.9A211.031,211.031,0,0,0,1027.3,893.949a211.944,211.944,0,0,0,92.9,76.515,211.036,211.036,0,0,0,200.458-19.478,211.92,211.92,0,0,0,76.51-92.909A211.035,211.035,0,0,0,1377.7,657.624a211.89,211.89,0,0,0-92.905-76.51A209.959,209.959,0,0,0,1202.5,564.486Zm0-7.352a217.713,217.713,0,0,1,122.227,37.335,219.369,219.369,0,0,1,79.186,96.093,218.335,218.335,0,0,1-20.1,207.456,219.334,219.334,0,0,1-96.088,79.186,218.333,218.333,0,0,1-207.457-20.1,219.294,219.294,0,0,1-79.186-96.093,218.324,218.324,0,0,1,20.1-207.451,219.332,219.332,0,0,1,96.088-79.186A217.3,217.3,0,0,1,1202.5,557.134Z" transform="translate(-735.346 -308.633)" fill="url(#a)"/><path d="M1224.56,558.149a238.533,238.533,0,0,0-134.04,40.951,240.443,240.443,0,0,0-86.812,105.409,239.362,239.362,0,0,0,22.1,227.377,240.44,240.44,0,0,0,105.409,86.811,239.363,239.363,0,0,0,227.377-22.1,240.443,240.443,0,0,0,86.812-105.409,239.362,239.362,0,0,0-22.1-227.377A240.44,240.44,0,0,0,1317.9,577,238.222,238.222,0,0,0,1224.56,558.149Zm0-6.566a245.095,245.095,0,0,1,137.666,42.055,246.946,246.946,0,0,1,89.194,108.249,245.9,245.9,0,0,1-22.651,233.629,246.938,246.938,0,0,1-108.25,89.194,245.9,245.9,0,0,1-233.629-22.652A246.931,246.931,0,0,1,997.7,893.81a245.929,245.929,0,0,1,22.651-233.634A247.048,247.048,0,0,1,1128.6,570.981,244.833,244.833,0,0,1,1224.56,551.583Z" transform="translate(-757.406 -330.692)" fill="url(#a)"/><path d="M1246.624,551.807a266.894,266.894,0,0,0-149.917,45.8,268.89,268.89,0,0,0-97.1,117.909,267.762,267.762,0,0,0,24.716,254.306,268.86,268.86,0,0,0,117.914,97.1,267.762,267.762,0,0,0,254.3-24.716,269.437,269.437,0,0,0,72.386-72.387,268.019,268.019,0,0,0-222.3-418.016Zm0-5.775a272.61,272.61,0,0,1,153.11,46.771,274.763,274.763,0,0,1,99.2,120.411,273.475,273.475,0,0,1-25.208,259.8,274.648,274.648,0,0,1-120.411,99.2,273.467,273.467,0,0,1-259.8-25.2,274.725,274.725,0,0,1-99.2-120.411,273.5,273.5,0,0,1,25.2-259.808,274.836,274.836,0,0,1,120.411-99.2A272.181,272.181,0,0,1,1246.624,546.032Z" transform="translate(-779.47 -352.752)" fill="url(#a)"/><path d="M1268.684,545.465a295.217,295.217,0,0,0-165.794,50.65A297.429,297.429,0,0,0,995.5,726.529a296.093,296.093,0,0,0,27.337,281.23,297.373,297.373,0,0,0,130.408,107.394,296.1,296.1,0,0,0,281.23-27.337,297.273,297.273,0,0,0,107.394-130.409,296.138,296.138,0,0,0-27.332-281.23,297.315,297.315,0,0,0-130.414-107.394A294.607,294.607,0,0,0,1268.684,545.465Zm0-4.984a300.07,300.07,0,0,1,168.549,51.486,302.382,302.382,0,0,1,109.209,132.572,301.07,301.07,0,0,1-27.76,285.976,302.329,302.329,0,0,1-132.572,109.209,301.058,301.058,0,0,1-285.976-27.755A302.331,302.331,0,0,1,990.925,959.4a301.066,301.066,0,0,1,27.754-285.981,302.445,302.445,0,0,1,132.573-109.209A299.624,299.624,0,0,1,1268.684,540.481Z" transform="translate(-801.53 -374.812)" fill="url(#a)"/><path d="M1290.743,539.128a323.3,323.3,0,0,0-181.666,55.5,325.89,325.89,0,0,0-117.7,142.908,324.456,324.456,0,0,0,29.958,308.16,325.873,325.873,0,0,0,142.914,117.685,324.493,324.493,0,0,0,308.154-29.953A325.875,325.875,0,0,0,1590.1,990.514a324.433,324.433,0,0,0-29.958-308.155,325.887,325.887,0,0,0-142.914-117.69A322.862,322.862,0,0,0,1290.743,539.128Zm0-4.2a327.582,327.582,0,0,1,183.989,56.2,330.161,330.161,0,0,1,119.217,144.734,328.667,328.667,0,0,1-30.312,312.154A330.153,330.153,0,0,1,1418.9,1167.236a328.668,328.668,0,0,1-312.154-30.312A330.077,330.077,0,0,1,987.538,992.191a328.656,328.656,0,0,1,30.307-312.154A330.158,330.158,0,0,1,1162.578,560.82,327.091,327.091,0,0,1,1290.743,534.93Z" transform="translate(-823.589 -396.871)" fill="url(#a)"/><path d="M1312.8,532.786a351.625,351.625,0,0,0-197.543,60.35A354.3,354.3,0,0,0,987.274,748.549a352.807,352.807,0,0,0,32.574,335.079,354.384,354.384,0,0,0,155.414,127.986,352.826,352.826,0,0,0,335.083-32.575,354.405,354.405,0,0,0,127.981-155.413,352.831,352.831,0,0,0-32.575-335.084A354.34,354.34,0,0,0,1450.34,560.561,351.085,351.085,0,0,0,1312.8,532.786Zm0-3.407A355.047,355.047,0,0,1,1512.231,590.3a357.777,357.777,0,0,1,129.225,156.9,356.235,356.235,0,0,1-32.863,338.327,357.77,357.77,0,0,1-156.9,129.225,356.238,356.238,0,0,1-338.327-32.864,357.683,357.683,0,0,1-129.22-156.9,356.227,356.227,0,0,1,32.858-338.327,357.77,357.77,0,0,1,156.9-129.225A354.51,354.51,0,0,1,1312.8,529.379Z" transform="translate(-845.649 -418.931)" fill="url(#a)"/><path d="M1334.863,526.449a379.949,379.949,0,0,0-213.42,65.194A382.8,382.8,0,0,0,983.165,759.561a381.2,381.2,0,0,0,35.191,362,382.8,382.8,0,0,0,167.918,138.277,381.2,381.2,0,0,0,362-35.191,382.8,382.8,0,0,0,138.277-167.917,381.2,381.2,0,0,0-35.191-362,382.792,382.792,0,0,0-167.917-138.277A379.248,379.248,0,0,0,1334.863,526.449Zm0-2.621A382.512,382.512,0,0,1,1549.73,589.46a385.487,385.487,0,0,1,139.232,169.057,383.8,383.8,0,0,1-35.415,364.5,385.49,385.49,0,0,1-169.056,139.232,383.806,383.806,0,0,1-364.5-35.415,385.407,385.407,0,0,1-139.227-169.056,383.789,383.789,0,0,1,35.41-364.5,385.485,385.485,0,0,1,169.056-139.232A381.886,381.886,0,0,1,1334.863,523.828Z" transform="translate(-867.708 -440.991)" fill="url(#a)"/><path d="M1356.922,520.108a408.144,408.144,0,0,0-229.3,70.044A411.255,411.255,0,0,0,979.057,770.569a409.576,409.576,0,0,0,37.808,388.933,411.249,411.249,0,0,0,180.417,148.569,409.582,409.582,0,0,0,388.933-37.807,411.339,411.339,0,0,0,148.574-180.417,409.537,409.537,0,0,0-37.812-388.933,411.332,411.332,0,0,0-180.417-148.573A407.551,407.551,0,0,0,1356.922,520.108Zm0-1.831a410.016,410.016,0,0,1,230.307,70.347,413.129,413.129,0,0,1,149.24,181.213,411.4,411.4,0,0,1-37.967,390.679,413.235,413.235,0,0,1-181.213,149.24,411.4,411.4,0,0,1-390.678-37.967,413.09,413.09,0,0,1-149.24-181.218A411.393,411.393,0,0,1,1015.337,699.9a413.16,413.16,0,0,1,181.218-149.24A409.338,409.338,0,0,1,1356.922,518.277Z" transform="translate(-889.768 -463.051)" fill="url(#a)"/><path d="M1378.982,513.765a436.512,436.512,0,0,0-245.174,74.894A439.753,439.753,0,0,0,974.944,781.581a437.934,437.934,0,0,0,40.429,415.857A439.751,439.751,0,0,0,1208.294,1356.3a437.934,437.934,0,0,0,415.857-40.429,439.755,439.755,0,0,0,158.865-192.922A437.934,437.934,0,0,0,1742.587,707.1,439.753,439.753,0,0,0,1549.665,548.23,435.733,435.733,0,0,0,1378.982,513.765Zm0-1.04a437.479,437.479,0,0,1,245.746,75.063,440.837,440.837,0,0,1,159.248,193.374,438.971,438.971,0,0,1-40.518,416.852,440.848,440.848,0,0,1-193.375,159.248,438.925,438.925,0,0,1-416.852-40.523,440.877,440.877,0,0,1-159.248-193.37A438.967,438.967,0,0,1,1014.5,706.518a440.909,440.909,0,0,1,193.375-159.248A436.814,436.814,0,0,1,1378.982,512.726Z" transform="translate(-911.828 -485.11)" fill="url(#a)"/><path d="M1401.042,507.433A464.74,464.74,0,0,0,1140,587.171,468.176,468.176,0,0,0,970.835,792.593a466.309,466.309,0,0,0,43.045,442.781A468.364,468.364,0,0,0,1219.3,1404.535a466.271,466.271,0,0,0,442.786-43.05,468.21,468.21,0,0,0,169.156-205.422A466.305,466.305,0,0,0,1788.2,713.282a468.2,468.2,0,0,0-205.421-169.156A463.948,463.948,0,0,0,1401.042,507.433Zm0,934.049a464.868,464.868,0,0,1-261.19-79.783A468.482,468.482,0,0,1,970.6,1156.168a466.538,466.538,0,0,1,43.07-443.025A468.531,468.531,0,0,1,1219.2,543.887a466.537,466.537,0,0,1,443.025,43.07,468.626,468.626,0,0,1,169.255,205.536,466.5,466.5,0,0,1-43.075,443.025,468.593,468.593,0,0,1-205.531,169.256A464.273,464.273,0,0,1,1401.042,1441.482Z" transform="translate(-933.888 -507.174)" fill="url(#a)"/></g><g transform="translate(933.888 507.174)"><path d="M1048.082,608.86a12.507,12.507,0,1,0,12.5,12.5A12.521,12.521,0,0,0,1048.082,608.86Zm0,37.882a25.375,25.375,0,1,1,25.372-25.377A25.4,25.4,0,0,1,1048.082,646.742Z" transform="translate(-580.928 -154.21)" fill="url(#r)"/><path d="M1070.142,602.518a40.894,40.894,0,0,0-28.924,69.83,41.4,41.4,0,0,0,6.014,4.969,40.859,40.859,0,0,0,45.815,0,41.176,41.176,0,0,0,10.982-10.983,40.9,40.9,0,0,0-33.888-63.816Zm0-12.077a52.749,52.749,0,0,1,20.622,4.168,53.189,53.189,0,0,1,28.108,28,52.833,52.833,0,0,1-4.785,50.406,53.256,53.256,0,0,1-23.129,19.145,52.886,52.886,0,0,1-50.406-4.785,53.3,53.3,0,0,1-7.8-6.417,53.858,53.858,0,0,1-6.446-7.769,52.74,52.74,0,0,1-9.152-29.765,52.8,52.8,0,0,1,9.038-29.591,53.18,53.18,0,0,1,23.129-19.14A52.726,52.726,0,0,1,1070.142,590.441Z" transform="translate(-602.988 -176.27)" fill="url(#s)"/><path d="M1092.2,596.181a69.185,69.185,0,0,0-49,20.3,69.291,69.291,0,0,0-14.828,21.96,69.3,69.3,0,0,0,102.614,84.484,69.577,69.577,0,0,0,25.044-30.4,69.213,69.213,0,0,0-6.387-65.826,69.507,69.507,0,0,0-30.4-25.044A68.883,68.883,0,0,0,1092.2,596.181Zm0-11.291a80.145,80.145,0,0,1,45.03,13.753,80.888,80.888,0,0,1,29.147,35.291,80.809,80.809,0,0,1,.08,62.926A80.6,80.6,0,0,1,1011.6,665.484a80.265,80.265,0,0,1,13.753-45.03,80.9,80.9,0,0,1,35.291-29.148A80.172,80.172,0,0,1,1092.2,584.89Z" transform="translate(-625.048 -198.33)" fill="url(#t)"/><path d="M1114.261,589.839a97.275,97.275,0,0,0-54.659,16.713,98,98,0,0,0-35.34,42.9,97.565,97.565,0,0,0,9,92.75,98.111,98.111,0,0,0,42.9,35.341,97.526,97.526,0,0,0,92.75-9.008,97.976,97.976,0,0,0,35.34-42.9,97.562,97.562,0,0,0-9-92.75,98,98,0,0,0-42.9-35.34A97.094,97.094,0,0,0,1114.261,589.839Zm0-10.5a108.016,108.016,0,0,1,76.441,31.635,108.278,108.278,0,0,1,23.184,34.286A108.077,108.077,0,0,1,1204,748.018a108.85,108.85,0,0,1-29.118,29.163,108.062,108.062,0,0,1-121.092.1,108.791,108.791,0,0,1-29.163-29.123,108.041,108.041,0,0,1-.1-121.088,108.979,108.979,0,0,1,29.118-29.167,107.748,107.748,0,0,1,60.623-18.568Z" transform="translate(-647.108 -220.39)" fill="url(#u)"/><path d="M1136.321,583.5a125.48,125.48,0,0,0-70.537,21.557,126.526,126.526,0,0,0-45.631,55.406,125.922,125.922,0,0,0,11.624,119.675,126.482,126.482,0,0,0,55.4,45.632,125.922,125.922,0,0,0,119.675-11.624,126.5,126.5,0,0,0,45.631-55.4,125.918,125.918,0,0,0-11.625-119.675,126.464,126.464,0,0,0-55.4-45.637A125.367,125.367,0,0,0,1136.321,583.5Zm0-9.714a135.121,135.121,0,0,1,75.908,23.184,136.222,136.222,0,0,1,49.164,59.614,135.649,135.649,0,0,1-12.44,128.931,136.223,136.223,0,0,1-59.614,49.163,135.64,135.64,0,0,1-128.931-12.44,136.284,136.284,0,0,1-49.163-59.613,135.644,135.644,0,0,1,12.439-128.931,136.554,136.554,0,0,1,36.589-36.628,135.162,135.162,0,0,1,76.047-23.278Z" transform="translate(-669.167 -242.449)" fill="url(#v)"/><path d="M1158.381,577.16a153.733,153.733,0,0,0-86.414,26.412,155.025,155.025,0,0,0-55.928,67.9,154.259,154.259,0,0,0,14.246,146.6,155.023,155.023,0,0,0,67.9,55.928,154.257,154.257,0,0,0,146.6-14.246,155.025,155.025,0,0,0,55.928-67.9,154.259,154.259,0,0,0-14.246-146.6,155.026,155.026,0,0,0-67.9-55.928A153.564,153.564,0,0,0,1158.381,577.16Zm0-8.923a162.7,162.7,0,0,1,91.348,27.9,164.008,164.008,0,0,1,59.171,71.775,163.209,163.209,0,0,1-14.992,155.1,164,164,0,0,1-71.775,59.171,163.17,163.17,0,0,1-155.1-15,163.98,163.98,0,0,1-59.171-71.77,163.209,163.209,0,0,1,14.992-155.1,163.9,163.9,0,0,1,71.775-59.171A162.437,162.437,0,0,1,1158.381,568.237Z" transform="translate(-691.227 -264.509)" fill="url(#w)"/><path d="M1180.441,570.828a182.054,182.054,0,0,0-102.291,31.257,183.429,183.429,0,0,0-66.219,80.4,182.659,182.659,0,0,0,16.861,173.528,183.442,183.442,0,0,0,80.405,66.219,182.656,182.656,0,0,0,173.528-16.862,183.443,183.443,0,0,0,66.219-80.4,182.656,182.656,0,0,0-16.862-173.529,183.755,183.755,0,0,0-49.357-49.357,182.054,182.054,0,0,0-102.286-31.257Zm0-8.143A190.2,190.2,0,0,1,1287.228,595.3a191.614,191.614,0,0,1,69.178,83.937,190.8,190.8,0,0,1-17.543,181.278,191.623,191.623,0,0,1-83.937,69.178,190.737,190.737,0,0,1-181.278-17.548,191.571,191.571,0,0,1-69.178-83.931,190.74,190.74,0,0,1,17.548-181.278,191.579,191.579,0,0,1,83.932-69.179A189.8,189.8,0,0,1,1180.441,562.685Z" transform="translate(-713.286 -286.573)" fill="url(#x)"/><path d="M1202.5,564.486a210.325,210.325,0,0,0-118.163,36.106,211.865,211.865,0,0,0-76.515,92.9A211.031,211.031,0,0,0,1027.3,893.949a211.944,211.944,0,0,0,92.9,76.515,211.036,211.036,0,0,0,200.458-19.478,211.92,211.92,0,0,0,76.51-92.909A211.035,211.035,0,0,0,1377.7,657.624a211.89,211.89,0,0,0-92.905-76.51A209.959,209.959,0,0,0,1202.5,564.486Zm0-7.352a217.713,217.713,0,0,1,122.227,37.335,219.369,219.369,0,0,1,79.186,96.093,218.335,218.335,0,0,1-20.1,207.456,219.334,219.334,0,0,1-96.088,79.186,218.333,218.333,0,0,1-207.457-20.1,219.294,219.294,0,0,1-79.186-96.093,218.324,218.324,0,0,1,20.1-207.451,219.332,219.332,0,0,1,96.088-79.186A217.3,217.3,0,0,1,1202.5,557.134Z" transform="translate(-735.346 -308.633)" fill="url(#y)"/><path d="M1224.56,558.149a238.533,238.533,0,0,0-134.04,40.951,240.443,240.443,0,0,0-86.812,105.409,239.362,239.362,0,0,0,22.1,227.377,240.44,240.44,0,0,0,105.409,86.811,239.363,239.363,0,0,0,227.377-22.1,240.443,240.443,0,0,0,86.812-105.409,239.362,239.362,0,0,0-22.1-227.377A240.44,240.44,0,0,0,1317.9,577,238.222,238.222,0,0,0,1224.56,558.149Zm0-6.566a245.095,245.095,0,0,1,137.666,42.055,246.946,246.946,0,0,1,89.194,108.249,245.9,245.9,0,0,1-22.651,233.629,246.938,246.938,0,0,1-108.25,89.194,245.9,245.9,0,0,1-233.629-22.652A246.931,246.931,0,0,1,997.7,893.81a245.929,245.929,0,0,1,22.651-233.634A247.048,247.048,0,0,1,1128.6,570.981,244.833,244.833,0,0,1,1224.56,551.583Z" transform="translate(-757.406 -330.692)" fill="url(#z)"/><path d="M1246.624,551.807a266.894,266.894,0,0,0-149.917,45.8,268.89,268.89,0,0,0-97.1,117.909,267.762,267.762,0,0,0,24.716,254.306,268.86,268.86,0,0,0,117.914,97.1,267.762,267.762,0,0,0,254.3-24.716,269.437,269.437,0,0,0,72.386-72.387,268.019,268.019,0,0,0-222.3-418.016Zm0-5.775a272.61,272.61,0,0,1,153.11,46.771,274.763,274.763,0,0,1,99.2,120.411,273.475,273.475,0,0,1-25.208,259.8,274.648,274.648,0,0,1-120.411,99.2,273.467,273.467,0,0,1-259.8-25.2,274.725,274.725,0,0,1-99.2-120.411,273.5,273.5,0,0,1,25.2-259.808,274.836,274.836,0,0,1,120.411-99.2A272.181,272.181,0,0,1,1246.624,546.032Z" transform="translate(-779.47 -352.752)" fill="url(#aa)"/><path d="M1268.684,545.465a295.217,295.217,0,0,0-165.794,50.65A297.429,297.429,0,0,0,995.5,726.529a296.093,296.093,0,0,0,27.337,281.23,297.373,297.373,0,0,0,130.408,107.394,296.1,296.1,0,0,0,281.23-27.337,297.273,297.273,0,0,0,107.394-130.409,296.138,296.138,0,0,0-27.332-281.23,297.315,297.315,0,0,0-130.414-107.394A294.607,294.607,0,0,0,1268.684,545.465Zm0-4.984a300.07,300.07,0,0,1,168.549,51.486,302.382,302.382,0,0,1,109.209,132.572,301.07,301.07,0,0,1-27.76,285.976,302.329,302.329,0,0,1-132.572,109.209,301.058,301.058,0,0,1-285.976-27.755A302.331,302.331,0,0,1,990.925,959.4a301.066,301.066,0,0,1,27.754-285.981,302.445,302.445,0,0,1,132.573-109.209A299.624,299.624,0,0,1,1268.684,540.481Z" transform="translate(-801.53 -374.812)" fill="url(#ab)"/><path d="M1290.743,539.128a323.3,323.3,0,0,0-181.666,55.5,325.89,325.89,0,0,0-117.7,142.908,324.456,324.456,0,0,0,29.958,308.16,325.873,325.873,0,0,0,142.914,117.685,324.493,324.493,0,0,0,308.154-29.953A325.875,325.875,0,0,0,1590.1,990.514a324.433,324.433,0,0,0-29.958-308.155,325.887,325.887,0,0,0-142.914-117.69A322.862,322.862,0,0,0,1290.743,539.128Zm0-4.2a327.582,327.582,0,0,1,183.989,56.2,330.161,330.161,0,0,1,119.217,144.734,328.667,328.667,0,0,1-30.312,312.154A330.153,330.153,0,0,1,1418.9,1167.236a328.668,328.668,0,0,1-312.154-30.312A330.077,330.077,0,0,1,987.538,992.191a328.656,328.656,0,0,1,30.307-312.154A330.158,330.158,0,0,1,1162.578,560.82,327.091,327.091,0,0,1,1290.743,534.93Z" transform="translate(-823.589 -396.871)" fill="url(#ac)"/><path d="M1312.8,532.786a351.625,351.625,0,0,0-197.543,60.35A354.3,354.3,0,0,0,987.274,748.549a352.807,352.807,0,0,0,32.574,335.079,354.384,354.384,0,0,0,155.414,127.986,352.826,352.826,0,0,0,335.083-32.575,354.405,354.405,0,0,0,127.981-155.413,352.831,352.831,0,0,0-32.575-335.084A354.34,354.34,0,0,0,1450.34,560.561,351.085,351.085,0,0,0,1312.8,532.786Zm0-3.407A355.047,355.047,0,0,1,1512.231,590.3a357.777,357.777,0,0,1,129.225,156.9,356.235,356.235,0,0,1-32.863,338.327,357.77,357.77,0,0,1-156.9,129.225,356.238,356.238,0,0,1-338.327-32.864,357.683,357.683,0,0,1-129.22-156.9,356.227,356.227,0,0,1,32.858-338.327,357.77,357.77,0,0,1,156.9-129.225A354.51,354.51,0,0,1,1312.8,529.379Z" transform="translate(-845.649 -418.931)" fill="url(#ad)"/><path d="M1334.863,526.449a379.949,379.949,0,0,0-213.42,65.194A382.8,382.8,0,0,0,983.165,759.561a381.2,381.2,0,0,0,35.191,362,382.8,382.8,0,0,0,167.918,138.277,381.2,381.2,0,0,0,362-35.191,382.8,382.8,0,0,0,138.277-167.917,381.2,381.2,0,0,0-35.191-362,382.792,382.792,0,0,0-167.917-138.277A379.248,379.248,0,0,0,1334.863,526.449Zm0-2.621A382.512,382.512,0,0,1,1549.73,589.46a385.487,385.487,0,0,1,139.232,169.057,383.8,383.8,0,0,1-35.415,364.5,385.49,385.49,0,0,1-169.056,139.232,383.806,383.806,0,0,1-364.5-35.415,385.407,385.407,0,0,1-139.227-169.056,383.789,383.789,0,0,1,35.41-364.5,385.485,385.485,0,0,1,169.056-139.232A381.886,381.886,0,0,1,1334.863,523.828Z" transform="translate(-867.708 -440.991)" fill="url(#ae)"/><path d="M1356.922,520.108a408.144,408.144,0,0,0-229.3,70.044A411.255,411.255,0,0,0,979.057,770.569a409.576,409.576,0,0,0,37.808,388.933,411.249,411.249,0,0,0,180.417,148.569,409.582,409.582,0,0,0,388.933-37.807,411.339,411.339,0,0,0,148.574-180.417,409.537,409.537,0,0,0-37.812-388.933,411.332,411.332,0,0,0-180.417-148.573A407.551,407.551,0,0,0,1356.922,520.108Zm0-1.831a410.016,410.016,0,0,1,230.307,70.347,413.129,413.129,0,0,1,149.24,181.213,411.4,411.4,0,0,1-37.967,390.679,413.235,413.235,0,0,1-181.213,149.24,411.4,411.4,0,0,1-390.678-37.967,413.09,413.09,0,0,1-149.24-181.218A411.393,411.393,0,0,1,1015.337,699.9a413.16,413.16,0,0,1,181.218-149.24A409.338,409.338,0,0,1,1356.922,518.277Z" transform="translate(-889.768 -463.051)" fill="url(#af)"/><path d="M1378.982,513.765a436.512,436.512,0,0,0-245.174,74.894A439.753,439.753,0,0,0,974.944,781.581a437.934,437.934,0,0,0,40.429,415.857A439.751,439.751,0,0,0,1208.294,1356.3a437.934,437.934,0,0,0,415.857-40.429,439.755,439.755,0,0,0,158.865-192.922A437.934,437.934,0,0,0,1742.587,707.1,439.753,439.753,0,0,0,1549.665,548.23,435.733,435.733,0,0,0,1378.982,513.765Zm0-1.04a437.479,437.479,0,0,1,245.746,75.063,440.837,440.837,0,0,1,159.248,193.374,438.971,438.971,0,0,1-40.518,416.852,440.848,440.848,0,0,1-193.375,159.248,438.925,438.925,0,0,1-416.852-40.523,440.877,440.877,0,0,1-159.248-193.37A438.967,438.967,0,0,1,1014.5,706.518a440.909,440.909,0,0,1,193.375-159.248A436.814,436.814,0,0,1,1378.982,512.726Z" transform="translate(-911.828 -485.11)" fill="url(#ag)"/><path d="M1401.042,507.433A464.74,464.74,0,0,0,1140,587.171,468.176,468.176,0,0,0,970.835,792.593a466.309,466.309,0,0,0,43.045,442.781A468.364,468.364,0,0,0,1219.3,1404.535a466.271,466.271,0,0,0,442.786-43.05,468.21,468.21,0,0,0,169.156-205.422A466.305,466.305,0,0,0,1788.2,713.282a468.2,468.2,0,0,0-205.421-169.156A463.948,463.948,0,0,0,1401.042,507.433Zm0,934.049a464.868,464.868,0,0,1-261.19-79.783A468.482,468.482,0,0,1,970.6,1156.168a466.538,466.538,0,0,1,43.07-443.025A468.531,468.531,0,0,1,1219.2,543.887a466.537,466.537,0,0,1,443.025,43.07,468.626,468.626,0,0,1,169.255,205.536,466.5,466.5,0,0,1-43.075,443.025,468.593,468.593,0,0,1-205.531,169.256A464.273,464.273,0,0,1,1401.042,1441.482Z" transform="translate(-933.888 -507.174)" fill="url(#ah)"/></g></g></svg>