<svg xmlns="http://www.w3.org/2000/svg" xmlns:xlink="http://www.w3.org/1999/xlink" width="728.296" height="240.846" viewBox="0 0 728.296 240.846"><defs><linearGradient id="a" y1="0.002" x2="1" y2="0.998" gradientUnits="objectBoundingBox"><stop offset="0" stop-color="#00abf7"/><stop offset="0.12" stop-color="#00abf7"/><stop offset="0.88" stop-color="#01d258"/><stop offset="1" stop-color="#01d258"/></linearGradient></defs><path d="M325.742,117.125,390.664,43.7a25.425,25.425,0,1,0-38.093-33.683L291.8,78.737,231.036,10.019a25.429,25.429,0,1,0-38.1,33.686l64.921,73.421-64.922,73.423a25.43,25.43,0,1,0,38.1,33.685l60.759-68.72,60.771,68.718a25.425,25.425,0,1,0,38.093-33.683l-64.919-73.426Z" transform="translate(331.249 3.307)" fill="#00d258"/><path d="M152.02,120.4a69.567,69.567,0,1,1,69.567,69.567A69.566,69.566,0,0,1,152.02,120.4Zm24.013,111.271A120.293,120.293,0,1,0,101.192,120.4C101.192,169.133,130.989,213.06,176.033,231.669Z" transform="translate(133.981 0)" fill="url(#a)"/><path d="M150.954,240.832A120.413,120.413,0,1,1,212.185,16.723,25.423,25.423,0,0,1,186.3,60.488a69.56,69.56,0,1,0,0,119.858,25.428,25.428,0,1,1,25.887,43.775,120.349,120.349,0,0,1-61.234,16.71" transform="translate(-30.539 0.014)" fill="#01aaf4"/></svg>