<svg xmlns="http://www.w3.org/2000/svg" xmlns:xlink="http://www.w3.org/1999/xlink" width="289.705" height="130.064" viewBox="0 0 289.705 130.064"><defs><linearGradient id="a" y1="0.002" x2="1" y2="0.998" gradientUnits="objectBoundingBox"><stop offset="0" stop-color="#00abf7"/><stop offset="0.12" stop-color="#00abf7"/><stop offset="0.88" stop-color="#01d258"/><stop offset="1" stop-color="#01d258"/></linearGradient></defs><g transform="translate(0 0)"><path d="M20.367,126.916H17.526L15.6,122.382H4.7l-1.9,4.534H0l9.71-22.7h.947Zm-14.683-6.9h8.932l-4.432-10.928Zm31.582.339a7.552,7.552,0,0,1-.524,2.874,6.239,6.239,0,0,1-3.6,3.57,7.533,7.533,0,0,1-5.345,0,6.554,6.554,0,0,1-2.182-1.387,6.279,6.279,0,0,1-1.455-2.183,7.554,7.554,0,0,1-.524-2.876V110.44H26.2v10.082a4.7,4.7,0,0,0,.339,1.827,3.944,3.944,0,0,0,2.266,2.233,4.509,4.509,0,0,0,1.658.3,4.377,4.377,0,0,0,1.641-.3,4.067,4.067,0,0,0,1.336-.863,3.839,3.839,0,0,0,.9-1.37,4.921,4.921,0,0,0,.322-1.827V110.44h2.605Zm14.057-7.58H46.181v9a3.968,3.968,0,0,0,.254,1.522,2.324,2.324,0,0,0,.71.965,2.844,2.844,0,0,0,1.083.507,5.943,5.943,0,0,0,1.4.152c.339,0,.682-.016,1.031-.051s.74-.084,1.167-.152v2.2a12.711,12.711,0,0,1-1.285.27,9.149,9.149,0,0,1-1.421.1,6.112,6.112,0,0,1-3.992-1.27,4.959,4.959,0,0,1-1.556-4.076v-9.169H40.8V110.44h2.774v-4.5h2.605v4.5h5.142v2.334Zm7.122-.473a5.584,5.584,0,0,1,2.064-1.642,7.3,7.3,0,0,1,5.464-.119,5.27,5.27,0,0,1,1.911,1.338,5.822,5.822,0,0,1,1.183,2.063,8.13,8.13,0,0,1,.407,2.623v10.352H66.868V116.9a4.672,4.672,0,0,0-1.083-3.2,3.8,3.8,0,0,0-3.011-1.235,4.4,4.4,0,0,0-1.742.339,4.29,4.29,0,0,0-1.37.912,4,4,0,0,0-.9,1.4,4.869,4.869,0,0,0-.322,1.776v10.014H55.839V101.541h2.605V112.3Zm24.071-2.233a8.575,8.575,0,0,1,6.073,2.486,8.74,8.74,0,0,1,1.844,2.723,8.75,8.75,0,0,1,0,6.75,8.687,8.687,0,0,1-1.844,2.741,8.456,8.456,0,0,1-2.74,1.827,8.615,8.615,0,0,1-3.367.66,8.328,8.328,0,0,1-3.349-.676,8.889,8.889,0,0,1-2.723-1.828,8.537,8.537,0,0,1-1.844-2.706,8.378,8.378,0,0,1-.677-3.383,8.5,8.5,0,0,1,2.487-6.106,8.457,8.457,0,0,1,2.74-1.829A8.727,8.727,0,0,1,82.517,110.068Zm0,2.4a5.992,5.992,0,0,0-2.385.473,5.62,5.62,0,0,0-1.894,1.32A6.054,6.054,0,0,0,77,116.242a6.721,6.721,0,0,0-.44,2.452,6.6,6.6,0,0,0,.44,2.437,5.786,5.786,0,0,0,3.113,3.248,6.169,6.169,0,0,0,4.736,0,5.786,5.786,0,0,0,1.878-1.3,6.088,6.088,0,0,0,1.252-1.962,6.41,6.41,0,0,0,.456-2.419,6.642,6.642,0,0,0-.456-2.47,6.2,6.2,0,0,0-1.235-1.979,5.554,5.554,0,0,0-1.878-1.3A5.88,5.88,0,0,0,82.517,112.47Zm20.858-2.166a5.616,5.616,0,0,1,.677.034,3.386,3.386,0,0,1,.507.1v2.3h-.948a5.926,5.926,0,0,0-1.945.321,5.2,5.2,0,0,0-1.658.931,4.559,4.559,0,0,0-1.167,1.505,4.677,4.677,0,0,0-.44,2.081v9.337H95.8V110.44h2.436v2.368a6.033,6.033,0,0,1,2.267-1.86,6.618,6.618,0,0,1,2.875-.643Zm7.359,16.612h-2.605V110.44h2.605Zm-1.286-24.664a1.88,1.88,0,0,1,1.354.559,1.859,1.859,0,0,1,0,2.69,1.911,1.911,0,0,1-1.354.541,1.952,1.952,0,0,1-1.387-.541,1.859,1.859,0,0,1,0-2.69A1.919,1.919,0,0,1,109.447,102.252ZM128,111.217l-9.473,13.4h9.575v2.3H114.573v-.778l9.371-13.364h-8.594V110.44H128v.778Zm11.215-1.151a7.869,7.869,0,0,1,2.926.542,7.165,7.165,0,0,1,2.385,1.522,6.99,6.99,0,0,1,1.59,2.351,7.757,7.757,0,0,1,.575,3.028,9.456,9.456,0,0,1-.068,1.2,5.7,5.7,0,0,1-.136.76H133.5a6.671,6.671,0,0,0,.627,2.25,5.439,5.439,0,0,0,3.129,2.792,6.74,6.74,0,0,0,2.266.372,6.206,6.206,0,0,0,2.809-.609,8.568,8.568,0,0,0,2.232-1.623l1.522,1.759a9.125,9.125,0,0,1-2.893,2.1,8.678,8.678,0,0,1-3.7.778,8.92,8.92,0,0,1-3.451-.66,8.412,8.412,0,0,1-2.757-1.827,8.5,8.5,0,0,1-2.486-6.107,8.814,8.814,0,0,1,.642-3.365,8.37,8.37,0,0,1,1.794-2.741,8.647,8.647,0,0,1,2.672-1.844,8.074,8.074,0,0,1,3.316-.676Zm-.068,2.369a5.741,5.741,0,0,0-1.98.339,5.288,5.288,0,0,0-1.657.964,5.5,5.5,0,0,0-1.218,1.505,6.444,6.444,0,0,0-.693,1.928h10.42a4.8,4.8,0,0,0-.406-2.029,4.649,4.649,0,0,0-1.065-1.49,4.329,4.329,0,0,0-1.54-.913,5.648,5.648,0,0,0-1.86-.3Zm27.861,14.48h-2.436v-2.639a6.635,6.635,0,0,1-2.623,2.216,8.149,8.149,0,0,1-3.6.8,8.009,8.009,0,0,1-3.281-.66A7.748,7.748,0,0,1,152.5,124.8a8.533,8.533,0,0,1-1.692-2.723,9.211,9.211,0,0,1-.609-3.384,9.351,9.351,0,0,1,.609-3.4,8.348,8.348,0,0,1,1.708-2.74,7.883,7.883,0,0,1,5.836-2.486,8.012,8.012,0,0,1,3.468.76,6.788,6.788,0,0,1,2.588,2.081V101.542h2.605Zm-8.289-14.446a5.831,5.831,0,0,0-2.318.456,5.617,5.617,0,0,0-1.859,1.286,5.864,5.864,0,0,0-1.236,1.962,7.251,7.251,0,0,0,0,4.973,6,6,0,0,0,1.218,1.962,5.656,5.656,0,0,0,1.843,1.3,5.736,5.736,0,0,0,2.353.474,6.343,6.343,0,0,0,2.08-.355,5.1,5.1,0,0,0,1.843-1.116,5.535,5.535,0,0,0,1.3-1.929,8.175,8.175,0,0,0,0-5.581,5.52,5.52,0,0,0-1.3-1.929,5.3,5.3,0,0,0-1.843-1.133A6.1,6.1,0,0,0,158.723,112.47Zm31.261-2.166a5.585,5.585,0,0,1,.676.034,3.361,3.361,0,0,1,.508.1v2.3h-.947a5.926,5.926,0,0,0-1.945.321,5.2,5.2,0,0,0-1.658.931,4.559,4.559,0,0,0-1.167,1.505,4.663,4.663,0,0,0-.44,2.081v9.337h-2.605V110.44h2.436v2.368a6.033,6.033,0,0,1,2.267-1.86,6.618,6.618,0,0,1,2.875-.643Zm11.655-.236a7.878,7.878,0,0,1,2.927.541,7.161,7.161,0,0,1,2.384,1.522,6.99,6.99,0,0,1,1.59,2.351,7.757,7.757,0,0,1,.575,3.028,9.459,9.459,0,0,1-.068,1.2,5.7,5.7,0,0,1-.136.76H195.922a6.672,6.672,0,0,0,.627,2.25,5.447,5.447,0,0,0,3.129,2.792,6.739,6.739,0,0,0,2.266.372,6.205,6.205,0,0,0,2.809-.609,8.568,8.568,0,0,0,2.232-1.623l1.522,1.759a9.125,9.125,0,0,1-2.892,2.1,8.69,8.69,0,0,1-3.706.778,8.92,8.92,0,0,1-3.451-.66A8.412,8.412,0,0,1,195.7,124.8a8.5,8.5,0,0,1-2.486-6.107,8.8,8.8,0,0,1,.643-3.365,8.37,8.37,0,0,1,1.793-2.741,8.647,8.647,0,0,1,2.673-1.844,8.069,8.069,0,0,1,3.315-.676Zm-.068,2.368a5.731,5.731,0,0,0-1.979.339,5.288,5.288,0,0,0-1.658.964,5.5,5.5,0,0,0-1.218,1.505,6.444,6.444,0,0,0-.693,1.928h10.42a4.782,4.782,0,0,0-.406-2.029,4.65,4.65,0,0,0-1.065-1.49,4.329,4.329,0,0,0-1.54-.913,5.649,5.649,0,0,0-1.859-.3Zm20.688.339h-5.142v9a3.967,3.967,0,0,0,.254,1.521,2.324,2.324,0,0,0,.71.965,2.844,2.844,0,0,0,1.083.508,5.943,5.943,0,0,0,1.4.152c.338,0,.682-.016,1.031-.051s.74-.084,1.167-.152v2.2a12.718,12.718,0,0,1-1.285.27,9.146,9.146,0,0,1-1.421.1,6.11,6.11,0,0,1-3.992-1.27,4.959,4.959,0,0,1-1.556-4.076v-9.169H211.74V110.44h2.774v-4.5h2.605v4.5h5.142v2.334Zm10.4-2.707a7.712,7.712,0,0,1,2.605.422,5.548,5.548,0,0,1,2.046,1.269,5.733,5.733,0,0,1,1.337,2.1,8.207,8.207,0,0,1,.474,2.909v10.15h-2.47v-2.1a5.793,5.793,0,0,1-2.284,1.828,7.689,7.689,0,0,1-3.231.642,8,8,0,0,1-2.318-.322,5.552,5.552,0,0,1-1.827-.913,4.115,4.115,0,0,1-1.185-1.455,4.364,4.364,0,0,1-.422-1.945A4.026,4.026,0,0,1,227,119.3a6.831,6.831,0,0,1,4.314-1.253h5.21v-1.42a4.133,4.133,0,0,0-1.083-3.13,4.086,4.086,0,0,0-2.943-1.031,4.985,4.985,0,0,0-2.656.693,8.079,8.079,0,0,0-2.114,1.946l-1.76-1.422a7.238,7.238,0,0,1,2.944-2.757,8.417,8.417,0,0,1,3.755-.863Zm-1.218,15.055a5.634,5.634,0,0,0,1.946-.339,5.047,5.047,0,0,0,1.623-.947,4.566,4.566,0,0,0,1.1-1.438,4.058,4.058,0,0,0,.406-1.809v-.407h-4.939q-3.518,0-3.519,2.335a2.164,2.164,0,0,0,1.015,1.962A4.333,4.333,0,0,0,231.446,125.123Zm15.884,1.793h-2.605V110.44h2.605Zm-1.285-24.664a1.876,1.876,0,0,1,1.353.559,1.859,1.859,0,0,1,0,2.69,1.911,1.911,0,0,1-1.353.541,1.952,1.952,0,0,1-1.387-.541,1.859,1.859,0,0,1,0-2.69A1.919,1.919,0,0,1,246.045,102.252Zm9.693,24.664h-2.605V101.541h2.605v25.375Zm13.042-16.848a7.878,7.878,0,0,1,2.927.541,7.165,7.165,0,0,1,2.385,1.522,6.99,6.99,0,0,1,1.59,2.351,7.757,7.757,0,0,1,.575,3.028,9.652,9.652,0,0,1-.068,1.2,5.694,5.694,0,0,1-.136.76H263.063a6.671,6.671,0,0,0,.626,2.25,5.447,5.447,0,0,0,3.129,2.792,6.743,6.743,0,0,0,2.267.372,6.2,6.2,0,0,0,2.808-.609,8.568,8.568,0,0,0,2.233-1.623l1.522,1.759a9.125,9.125,0,0,1-2.893,2.1,8.685,8.685,0,0,1-3.7.778,8.925,8.925,0,0,1-3.452-.66,8.411,8.411,0,0,1-2.756-1.827,8.5,8.5,0,0,1-2.487-6.107,8.814,8.814,0,0,1,.643-3.365,8.369,8.369,0,0,1,1.793-2.741,8.647,8.647,0,0,1,2.673-1.844,8.072,8.072,0,0,1,3.315-.676Zm-.068,2.368a5.736,5.736,0,0,0-1.979.339,5.288,5.288,0,0,0-1.658.964,5.5,5.5,0,0,0-1.217,1.505,6.444,6.444,0,0,0-.693,1.928h10.42a4.8,4.8,0,0,0-.406-2.029,4.65,4.65,0,0,0-1.066-1.49,4.328,4.328,0,0,0-1.539-.913A5.648,5.648,0,0,0,268.712,112.436Zm19.809-2.132a5.6,5.6,0,0,1,.677.034,3.359,3.359,0,0,1,.507.1v2.3h-.947a5.932,5.932,0,0,0-1.946.321,5.2,5.2,0,0,0-1.657.931,4.56,4.56,0,0,0-1.168,1.505,4.677,4.677,0,0,0-.44,2.081v9.337h-2.6V110.44h2.435v2.368a6.033,6.033,0,0,1,2.267-1.86,6.618,6.618,0,0,1,2.876-.643Z" transform="translate(0 2.774)" fill="#fff"/><path d="M229.714,37.305l20.131-22.768A7.884,7.884,0,1,0,238.033,4.093L219.188,25.4,200.347,4.093a7.885,7.885,0,1,0-11.815,10.446l20.131,22.767L188.532,60.073a7.885,7.885,0,1,0,11.816,10.445l18.841-21.309,18.844,21.309a7.884,7.884,0,1,0,11.812-10.445L229.714,37.3Z" transform="translate(5.097 0.039)" fill="#00d258"/><path d="M116.953,37.334a21.572,21.572,0,1,1,21.572,21.572A21.572,21.572,0,0,1,116.953,37.334Zm7.446,34.5a37.3,37.3,0,1,0-23.207-34.5A37.333,37.333,0,0,0,124.4,71.838Z" transform="translate(2.765)" fill="url(#a)"/><path d="M67.878,74.683A37.339,37.339,0,1,1,86.865,5.19a7.883,7.883,0,0,1-8.026,13.571,21.57,21.57,0,1,0,0,37.166A7.885,7.885,0,1,1,86.866,69.5a37.318,37.318,0,0,1-18.988,5.182" transform="translate(0.834 0)" fill="#01aaf4"/></g></svg>