<svg xmlns="http://www.w3.org/2000/svg" xmlns:xlink="http://www.w3.org/1999/xlink" width="57" height="57" viewBox="0 0 57 57"><defs><linearGradient id="a" x1="0.193" y1="0.088" x2="0.789" y2="0.877" gradientUnits="objectBoundingBox"><stop offset="0" stop-color="#01aaf4"/><stop offset="1" stop-color="#00692c"/></linearGradient></defs><g transform="translate(-850 -666)"><circle cx="28.5" cy="28.5" r="28.5" transform="translate(850 666)" fill="url(#a)"/><path d="M1.053,1.393,6.943.034A1.368,1.368,0,0,1,8.5.821L11.22,7.165a1.356,1.356,0,0,1-.391,1.586L7.4,11.56A20.992,20.992,0,0,0,17.433,21.6l2.809-3.432a1.358,1.358,0,0,1,1.586-.391l6.344,2.719a1.376,1.376,0,0,1,.793,1.563l-1.359,5.891A1.359,1.359,0,0,1,26.281,29,26.278,26.278,0,0,1,0,2.719,1.358,1.358,0,0,1,1.053,1.393Z" transform="translate(864.001 680.001)" fill="#fff"/></g></svg>