<svg xmlns="http://www.w3.org/2000/svg" width="93" height="74.784" viewBox="0 0 93 74.784"><path d="M-42.649-6.441c0-.276-.154-.4-.464-.4h-.512v1.348h.23v-.547h.132l.387.547h.269l-.388-.552A.357.357,0,0,0-42.649-6.441Zm-.745.19v-.38h.212c.151,0,.3.036.3.191,0,.179-.167.19-.353.19Z" transform="translate(135.023 79.603)" fill="#00428b"/><path d="M-43.538-7.514a1.158,1.158,0,0,0-1.155,1.155A1.158,1.158,0,0,0-43.538-5.2,1.155,1.155,0,0,0-42.38-6.359,1.156,1.156,0,0,0-43.538-7.514Zm0,2.082a.885.885,0,0,1-.9-.928.883.883,0,0,1,.9-.923.885.885,0,0,1,.907.923A.886.886,0,0,1-43.538-5.432Z" transform="translate(135.373 79.823)" fill="#00428b"/><path d="M-168.758-28.212a6.319,6.319,0,0,0-4.582-1.657h-6.266v17.355h6.266a6.316,6.316,0,0,0,4.582-1.662c1.949-1.947,1.754-4.482,1.754-7.09S-166.81-26.263-168.758-28.212Zm-2.365,11.6a3.028,3.028,0,0,1-2.535,1.073h-2.56V-26.849h2.56a3.025,3.025,0,0,1,2.535,1.074c.632.782.731,1.879.731,4.51S-170.49-17.391-171.123-16.61Z" transform="translate(179.606 87.153)" fill="#00428b"/><rect width="3.386" height="17.347" transform="translate(15.736 57.292)" fill="#00428b"/><path d="M-133.652-24.546a5.241,5.241,0,0,0-5.626-5.31h-6.8v17.347h3.386V-19.43h2.437l3.386,6.921h3.921l-3.873-7.481A4.668,4.668,0,0,0-133.652-24.546Zm-5.847,2.29h-3.191v-4.58h3.191a2.263,2.263,0,0,1,2.461,2.29A2.262,2.262,0,0,1-139.5-22.256Z" transform="translate(168.613 87.149)" fill="#00428b"/><path d="M-123.291-12.51h11.425v-3.024H-119.9v-4.213h6.845v-3.021H-119.9v-4.069h8.039v-3.02h-11.425Z" transform="translate(161.142 87.149)" fill="#00428b"/><path d="M-97.063-27.053a2.858,2.858,0,0,1,2.922,2.459h3.435a6.111,6.111,0,0,0-6.385-5.479,6.342,6.342,0,0,0-4.675,1.9,4.892,4.892,0,0,0-1.414,2.6,23.592,23.592,0,0,0-.292,4.312,23.6,23.6,0,0,0,.292,4.312,5,5,0,0,0,1.414,2.607,6.349,6.349,0,0,0,4.675,1.9,6.127,6.127,0,0,0,6.385-5.482h-3.435a2.858,2.858,0,0,1-2.922,2.461,2.692,2.692,0,0,1-2.17-.9c-.7-.757-.85-1.534-.85-4.9s.147-4.14.85-4.9A2.682,2.682,0,0,1-97.063-27.053Z" transform="translate(154.644 87.22)" fill="#00428b"/><path d="M-83.1-26.836h4.532V-12.51h3.386V-26.836h4.53v-3.02H-83.1Z" transform="translate(147.967 87.149)" fill="#00428b"/><path d="M-51.625-29.857l-3.483,11.3-3.486-11.3H-62.1l5.724,17.347h2.534l5.747-17.347Z" transform="translate(141.08 87.149)" fill="#00428b"/><path d="M-76.754-115.1H-89.709c8.626,8.96,10.392,20.21,4.1,29.989-7.112,10.26-27.019,19.589-50.959,22.325h60.458a3.316,3.316,0,0,0,3.611-3.377v-45.826C-72.494-113.112-73.291-115.1-76.754-115.1Z" transform="translate(165.494 115.095)" fill="#00428b"/><path d="M-176.1-62.759h8.22c34.8-1.711,51.877-13.548,52.787-25.555.03-.429.048-.86.04-1.29-.249-11.942-15.782-25.586-47.055-25.423h-13.809a3.55,3.55,0,0,0-3.632,3.809V-66.4A3.612,3.612,0,0,0-176.1-62.759Z" transform="translate(179.586 115.073)" fill="#0083c7"/></svg>