<svg xmlns="http://www.w3.org/2000/svg" xmlns:xlink="http://www.w3.org/1999/xlink" width="322.224" height="68.731" viewBox="0 0 322.224 68.731"><defs><linearGradient id="a" x1="0.244" y1="-1.61" x2="0.755" y2="0.026" gradientUnits="objectBoundingBox"><stop offset="0.152" stop-color="#d2181a"/><stop offset="0.758" stop-color="#d2181a"/><stop offset="0.876" stop-color="#e76914"/><stop offset="0.921" stop-color="#f1850c"/><stop offset="0.989" stop-color="#ffc900"/><stop offset="1" stop-color="#fea900"/></linearGradient><linearGradient id="b" x1="1.157" y1="-0.43" x2="1.157" y2="-0.043" gradientUnits="objectBoundingBox"><stop offset="0" stop-color="#005297"/><stop offset="1" stop-color="#132366"/></linearGradient><linearGradient id="c" x1="1.106" y1="-0.877" x2="1.106" y2="-0.376" xlink:href="#b"/><linearGradient id="d" x1="0.718" y1="-0.337" x2="0.718" y2="0.02" xlink:href="#b"/><linearGradient id="e" x1="0.254" y1="-0.896" x2="0.254" y2="-0.383" xlink:href="#b"/><linearGradient id="f" x1="0.143" y1="-0.857" x2="0.143" y2="-0.368" xlink:href="#b"/><linearGradient id="g" x1="-0.296" y1="-0.866" x2="-0.296" y2="-0.367" xlink:href="#b"/><linearGradient id="h" x1="-0.498" y1="-0.885" x2="-0.498" y2="-0.381" xlink:href="#b"/><linearGradient id="i" x1="-0.497" y1="-0.907" x2="-0.497" y2="-0.391" xlink:href="#b"/></defs><g transform="translate(-38.692 -149.176)"><path d="M177.176,167.358l-5.051-.732-2.258-4.578-2.259,4.578-5.051.732,3.656,3.564-.864,5.029,4.519-2.374,4.517,2.374-.863-5.029Z" fill="#d2181a"/><path d="M180.263,167.225c244.447-49.047,158.794,42,152.108,49.215,19.223-8.743,68.039-67.792-34.628-67.26-24.884.128-67.68,4.463-116.66,17.262Z" fill="url(#a)"/><path d="M55.713,167.612l6.348,24.275a75.923,75.923,0,0,1,1.676,7.674c.418-2.512.975-5.022,1.743-7.884l6.558-24.065H84.455l4.325,48.482H79.222l-1.813-25.881c-.209-3.069-.349-5.511-.349-8.093-.558,2.792-.976,4.535-1.814,7.466l-7.673,26.508h-8.3l-6.907-25.463c-.628-2.372-1.465-5.789-1.952-8.58,0,2.861-.14,5.72-.35,8.721l-1.675,25.322h-9.7l4.535-48.482Z" fill="url(#b)"/><path d="M101.685,194.329v-.139c0-4.953,2.023-7.744,5.581-7.744a4.525,4.525,0,0,1,4.116,2.093c.837,1.325,1.116,2.721,1.116,5.372v.418Zm16.463,12.207a13.963,13.963,0,0,1-9.068,3.558c-4.813,0-7.534-3.138-7.534-8.651v-.278h20.649V199c0-7.464-1.465-12.278-4.744-15.625-2.3-2.373-6.208-3.767-10.325-3.767a14.037,14.037,0,0,0-11.231,4.814c-3.139,3.486-4.464,7.742-4.464,14.161,0,11.23,6.627,18.486,16.881,18.486a20.492,20.492,0,0,0,13.464-4.954Z" fill="url(#c)"/><path d="M147.643,189.8v17.019a6.683,6.683,0,0,1-4.6,2.3c-4.884,0-6.488-2.511-6.488-10.185,0-7.952,1.814-11.44,6-11.44A7.789,7.789,0,0,1,147.643,189.8Zm9.138-23.86-9.278-1.464v12.277a43.553,43.553,0,0,0,.279,5.3,9.625,9.625,0,0,0-6.347-2.022c-9.069,0-15.278,7.672-15.278,18.834,0,11.092,5.72,18.136,14.789,18.136a11.981,11.981,0,0,0,8.231-3,6.4,6.4,0,0,0,.558,2.094h8.371c-.627-1.4-1.325-4.255-1.325-13.045Z" fill="url(#d)"/><path d="M174.75,179.54v36.554H165.4V181Z" fill="url(#e)"/><path d="M200.478,200.467l-.14,7.675a6.772,6.772,0,0,1-4.883,2.44c-2.372,0-4.117-1.883-4.117-4.673,0-4.254,2.232-5.442,8.721-5.442ZM182.13,184.632l3.977,6.7c3.837-2.581,7.324-4.046,10.324-4.046,3.418,0,4.186,1.326,4.186,5.3v1.465c-.768-.069-1.4-.069-2.092-.069-11.373,0-17.162,3.9-17.162,12.277,0,7.113,4.324,11.162,12.278,11.162a12.343,12.343,0,0,0,7.185-1.954,17.245,17.245,0,0,0,2.163-1.884,9.989,9.989,0,0,0,5.022,4.325l4.953-5.72c-2.721-2.023-3.348-3.488-3.348-7.326v-.627l.209-12c.069-3.836-.14-4.953-.628-6.418-1.4-3.976-5.512-6.208-11.51-6.208a24.212,24.212,0,0,0-9.767,2.091A34.551,34.551,0,0,0,182.13,184.632Z" fill="url(#f)"/><path d="M237.632,189.586c-1.885-1.745-3.907-2.792-5.652-2.792-4.186,0-6.069,3.629-6.069,12,0,4.674.628,7.464,1.814,9a5.4,5.4,0,0,0,4.186,2.023c2.162,0,4.116-.908,6.418-2.929l.558-.489,4.255,5.652a14.747,14.747,0,0,1-3.28,2.648,16.684,16.684,0,0,1-8.718,2.233c-9.837,0-15.557-6.836-15.557-18.415,0-8.233,3.14-13.673,7.325-16.533a16.909,16.909,0,0,1,8.858-2.652,15.235,15.235,0,0,1,6.907,1.6,15.752,15.752,0,0,1,3.488,2.511Z" fill="url(#g)"/><path d="M260.483,186.585a5.005,5.005,0,0,1,4.047,1.883c1.255,1.6,1.882,4.745,1.882,9.558,0,8.441-1.743,12.068-5.789,12.068a5.168,5.168,0,0,1-4.743-2.93c-.769-1.813-1.187-4.882-1.187-9a25.45,25.45,0,0,1,.977-7.953A5.044,5.044,0,0,1,260.483,186.585Zm-.139-6.907c-9.627,0-16.044,7.466-16.044,18.7s6.347,18.485,16.044,18.485c5.511,0,9.069-1.881,11.79-4.952,3.068-3.487,4.465-7.674,4.465-13.811,0-5.792-1.256-9.7-4.118-13.046A14.967,14.967,0,0,0,260.344,179.678Z" fill="url(#h)"/><path d="M289.2,179.749a9.089,9.089,0,0,1,1.255,3.628,12.31,12.31,0,0,1,8.721-3.628,9.68,9.68,0,0,1,7.255,2.929,11.739,11.739,0,0,1,1.395,1.746c3.279-3.35,6.209-4.675,10.115-4.675a11.054,11.054,0,0,1,7.046,2.233c2.023,1.743,2.652,3.836,2.652,8.719v25.393h-9.071V192.516c0-4.257-.488-5.094-2.929-5.094-1.744,0-4.186,1.187-6.208,3v25.671h-8.86V192.863c0-4.463-.628-5.51-3.209-5.51a9.9,9.9,0,0,0-6.138,2.72v26.021h-9.14v-24.9c0-5.162-.35-7.393-1.324-9.138Z" fill="url(#i)"/></g></svg>